<?xml version="1.0" encoding="UTF-8" standalone="no"?>
<!DOCTYPE svg PUBLIC "-//W3C//DTD SVG 1.1//EN"
 "http://www.w3.org/Graphics/SVG/1.1/DTD/svg11.dtd">
<!-- Generated by graphviz version 2.38.0 (20140413.2041)
 -->
<!-- Title: G Pages: 1 -->
<svg width="500pt" height="332pt"
 viewBox="0.00 0.00 500.00 332.00" xmlns="http://www.w3.org/2000/svg" xmlns:xlink="http://www.w3.org/1999/xlink">
<g id="graph0" class="graph" transform="scale(1 1) rotate(0) translate(4 328)">
<title>G</title>
<polygon fill="white" stroke="none" points="-4,4 -4,-328 496,-328 496,4 -4,4"/>
<!-- 2 -->
<g id="node1" class="node"><title>2</title>
<ellipse fill="none" stroke="black" cx="73" cy="-234" rx="46.2923" ry="18"/>
<text text-anchor="middle" x="73" y="-230.3" font-family="Times,serif" font-size="14.00">RETURN</text>
</g>
<!-- 3 -->
<g id="node2" class="node"><title>3</title>
<ellipse fill="none" stroke="black" cx="30" cy="-162" rx="27" ry="18"/>
<text text-anchor="middle" x="30" y="-158.3" font-family="Times,serif" font-size="14.00">0</text>
</g>
<!-- 2&#45;&gt;3 -->
<g id="edge2" class="edge"><title>2&#45;&gt;3</title>
<path fill="none" stroke="black" d="M62.8096,-216.411C57.5399,-207.832 51.0029,-197.191 45.1541,-187.67"/>
<polygon fill="black" stroke="black" points="48.0378,-185.677 39.8213,-178.988 42.0732,-189.341 48.0378,-185.677"/>
</g>
<!-- 4 -->
<g id="node3" class="node"><title>4</title>
<ellipse fill="none" stroke="black" cx="207" cy="-234" rx="27.8951" ry="18"/>
<text text-anchor="middle" x="207" y="-230.3" font-family="Times,serif" font-size="14.00">FOR</text>
</g>
<!-- 5 -->
<g id="node4" class="node"><title>5</title>
<ellipse fill="none" stroke="black" cx="112" cy="-162" rx="37.0935" ry="18"/>
<text text-anchor="middle" x="112" y="-158.3" font-family="Times,serif" font-size="14.00">ATRIB</text>
</g>
<!-- 4&#45;&gt;5 -->
<g id="edge4" class="edge"><title>4&#45;&gt;5</title>
<path fill="none" stroke="black" d="M189.131,-219.834C175.345,-209.675 156.013,-195.431 140.153,-183.744"/>
<polygon fill="black" stroke="black" points="141.883,-180.672 131.756,-177.557 137.731,-186.307 141.883,-180.672"/>
</g>
<!-- 8 -->
<g id="node7" class="node"><title>8</title>
<ellipse fill="none" stroke="black" cx="207" cy="-162" rx="27" ry="18"/>
<text text-anchor="middle" x="207" y="-158.3" font-family="Times,serif" font-size="14.00">&lt;=</text>
</g>
<!-- 4&#45;&gt;8 -->
<g id="edge7" class="edge"><title>4&#45;&gt;8</title>
<path fill="none" stroke="black" d="M207,-215.697C207,-207.983 207,-198.712 207,-190.112"/>
<polygon fill="black" stroke="black" points="210.5,-190.104 207,-180.104 203.5,-190.104 210.5,-190.104"/>
</g>
<!-- 11 -->
<g id="node10" class="node"><title>11</title>
<ellipse fill="none" stroke="black" cx="315" cy="-162" rx="37.0935" ry="18"/>
<text text-anchor="middle" x="315" y="-158.3" font-family="Times,serif" font-size="14.00">ATRIB</text>
</g>
<!-- 4&#45;&gt;11 -->
<g id="edge10" class="edge"><title>4&#45;&gt;11</title>
<path fill="none" stroke="black" d="M226.06,-220.647C242.37,-210.075 266.133,-194.673 284.994,-182.448"/>
<polygon fill="black" stroke="black" points="287.05,-185.287 293.538,-176.911 283.242,-179.413 287.05,-185.287"/>
</g>
<!-- 16 -->
<g id="node15" class="node"><title>16</title>
<ellipse fill="none" stroke="black" cx="435" cy="-162" rx="36.2938" ry="18"/>
<text text-anchor="middle" x="435" y="-158.3" font-family="Times,serif" font-size="14.00">PRINT</text>
</g>
<!-- 4&#45;&gt;16 -->
<g id="edge15" class="edge"><title>4&#45;&gt;16</title>
<path fill="none" stroke="black" d="M231.834,-225.376C271.163,-213.301 348.135,-189.669 395.222,-175.212"/>
<polygon fill="black" stroke="black" points="396.26,-178.555 404.792,-172.274 394.205,-171.863 396.26,-178.555"/>
</g>
<!-- 6 -->
<g id="node5" class="node"><title>6</title>
<ellipse fill="none" stroke="black" cx="27" cy="-90" rx="27" ry="18"/>
<text text-anchor="middle" x="27" y="-86.3" font-family="Times,serif" font-size="14.00">x</text>
</g>
<!-- 5&#45;&gt;6 -->
<g id="edge5" class="edge"><title>5&#45;&gt;6</title>
<path fill="none" stroke="black" d="M93.9737,-146.155C81.5439,-135.918 64.8773,-122.193 51.28,-110.995"/>
<polygon fill="black" stroke="black" points="53.22,-108.059 43.2757,-104.404 48.7701,-113.462 53.22,-108.059"/>
</g>
<!-- 7 -->
<g id="node6" class="node"><title>7</title>
<ellipse fill="none" stroke="black" cx="99" cy="-90" rx="27" ry="18"/>
<text text-anchor="middle" x="99" y="-86.3" font-family="Times,serif" font-size="14.00">0</text>
</g>
<!-- 5&#45;&gt;7 -->
<g id="edge6" class="edge"><title>5&#45;&gt;7</title>
<path fill="none" stroke="black" d="M108.853,-144.055C107.421,-136.346 105.691,-127.027 104.082,-118.364"/>
<polygon fill="black" stroke="black" points="107.475,-117.468 102.208,-108.275 100.593,-118.746 107.475,-117.468"/>
</g>
<!-- 9 -->
<g id="node8" class="node"><title>9</title>
<ellipse fill="none" stroke="black" cx="171" cy="-90" rx="27" ry="18"/>
<text text-anchor="middle" x="171" y="-86.3" font-family="Times,serif" font-size="14.00">x</text>
</g>
<!-- 8&#45;&gt;9 -->
<g id="edge8" class="edge"><title>8&#45;&gt;9</title>
<path fill="none" stroke="black" d="M198.65,-144.765C194.288,-136.283 188.853,-125.714 183.959,-116.197"/>
<polygon fill="black" stroke="black" points="186.99,-114.439 179.304,-107.147 180.765,-117.641 186.99,-114.439"/>
</g>
<!-- 10 -->
<g id="node9" class="node"><title>10</title>
<ellipse fill="none" stroke="black" cx="243" cy="-90" rx="27" ry="18"/>
<text text-anchor="middle" x="243" y="-86.3" font-family="Times,serif" font-size="14.00">10</text>
</g>
<!-- 8&#45;&gt;10 -->
<g id="edge9" class="edge"><title>8&#45;&gt;10</title>
<path fill="none" stroke="black" d="M215.35,-144.765C219.712,-136.283 225.147,-125.714 230.041,-116.197"/>
<polygon fill="black" stroke="black" points="233.235,-117.641 234.696,-107.147 227.01,-114.439 233.235,-117.641"/>
</g>
<!-- 12 -->
<g id="node11" class="node"><title>12</title>
<ellipse fill="none" stroke="black" cx="315" cy="-90" rx="27" ry="18"/>
<text text-anchor="middle" x="315" y="-86.3" font-family="Times,serif" font-size="14.00">x</text>
</g>
<!-- 11&#45;&gt;12 -->
<g id="edge11" class="edge"><title>11&#45;&gt;12</title>
<path fill="none" stroke="black" d="M315,-143.697C315,-135.983 315,-126.712 315,-118.112"/>
<polygon fill="black" stroke="black" points="318.5,-118.104 315,-108.104 311.5,-118.104 318.5,-118.104"/>
</g>
<!-- 13 -->
<g id="node12" class="node"><title>13</title>
<ellipse fill="none" stroke="black" cx="390" cy="-90" rx="29.795" ry="18"/>
<text text-anchor="middle" x="390" y="-86.3" font-family="Times,serif" font-size="14.00">ADD</text>
</g>
<!-- 11&#45;&gt;13 -->
<g id="edge12" class="edge"><title>11&#45;&gt;13</title>
<path fill="none" stroke="black" d="M331.274,-145.811C341.705,-136.075 355.404,-123.29 366.947,-112.517"/>
<polygon fill="black" stroke="black" points="369.604,-114.824 374.527,-105.442 364.828,-109.706 369.604,-114.824"/>
</g>
<!-- 14 -->
<g id="node13" class="node"><title>14</title>
<ellipse fill="none" stroke="black" cx="354" cy="-18" rx="27" ry="18"/>
<text text-anchor="middle" x="354" y="-14.3" font-family="Times,serif" font-size="14.00">x</text>
</g>
<!-- 13&#45;&gt;14 -->
<g id="edge13" class="edge"><title>13&#45;&gt;14</title>
<path fill="none" stroke="black" d="M381.469,-72.411C377.164,-64.0421 371.851,-53.7098 367.047,-44.3698"/>
<polygon fill="black" stroke="black" points="370.156,-42.7621 362.47,-35.4699 363.931,-45.9636 370.156,-42.7621"/>
</g>
<!-- 15 -->
<g id="node14" class="node"><title>15</title>
<ellipse fill="none" stroke="black" cx="426" cy="-18" rx="27" ry="18"/>
<text text-anchor="middle" x="426" y="-14.3" font-family="Times,serif" font-size="14.00">1</text>
</g>
<!-- 13&#45;&gt;15 -->
<g id="edge14" class="edge"><title>13&#45;&gt;15</title>
<path fill="none" stroke="black" d="M398.531,-72.411C402.836,-64.0421 408.149,-53.7098 412.953,-44.3698"/>
<polygon fill="black" stroke="black" points="416.069,-45.9636 417.53,-35.4699 409.844,-42.7621 416.069,-45.9636"/>
</g>
<!-- 17 -->
<g id="node16" class="node"><title>17</title>
<ellipse fill="none" stroke="black" cx="465" cy="-90" rx="27" ry="18"/>
<text text-anchor="middle" x="465" y="-86.3" font-family="Times,serif" font-size="14.00">x</text>
</g>
<!-- 16&#45;&gt;17 -->
<g id="edge16" class="edge"><title>16&#45;&gt;17</title>
<path fill="none" stroke="black" d="M442.262,-144.055C445.726,-135.973 449.948,-126.121 453.809,-117.112"/>
<polygon fill="black" stroke="black" points="457.082,-118.359 457.805,-107.789 450.648,-115.602 457.082,-118.359"/>
</g>
<!-- 1 -->
<g id="node17" class="node"><title>1</title>
<ellipse fill="none" stroke="black" cx="140" cy="-306" rx="27" ry="18"/>
<text text-anchor="middle" x="140" y="-302.3" font-family="Times,serif" font-size="14.00">1</text>
</g>
<!-- 1&#45;&gt;2 -->
<g id="edge1" class="edge"><title>1&#45;&gt;2</title>
<path fill="none" stroke="black" d="M126.118,-290.496C117.296,-281.28 105.673,-269.136 95.5493,-258.559"/>
<polygon fill="black" stroke="black" points="97.9471,-256.002 88.504,-251.198 92.8901,-260.843 97.9471,-256.002"/>
</g>
<!-- 1&#45;&gt;4 -->
<g id="edge3" class="edge"><title>1&#45;&gt;4</title>
<path fill="none" stroke="black" d="M153.882,-290.496C163.012,-280.958 175.143,-268.283 185.507,-257.455"/>
<polygon fill="black" stroke="black" points="188.287,-259.613 192.673,-249.968 183.23,-254.773 188.287,-259.613"/>
</g>
</g>
</svg>
