<?xml version="1.0" encoding="UTF-8" standalone="no"?>
<!DOCTYPE svg PUBLIC "-//W3C//DTD SVG 1.1//EN"
 "http://www.w3.org/Graphics/SVG/1.1/DTD/svg11.dtd">
<!-- Generated by graphviz version 2.38.0 (20140413.2041)
 -->
<!-- Title: G Pages: 1 -->
<svg width="1271pt" height="908pt"
 viewBox="0.00 0.00 1271.15 908.00" xmlns="http://www.w3.org/2000/svg" xmlns:xlink="http://www.w3.org/1999/xlink">
<g id="graph0" class="graph" transform="scale(1 1) rotate(0) translate(4 904)">
<title>G</title>
<polygon fill="white" stroke="none" points="-4,4 -4,-904 1267.15,-904 1267.15,4 -4,4"/>
<!-- 1 -->
<g id="node1" class="node"><title>1</title>
<ellipse fill="none" stroke="black" cx="236.146" cy="-882" rx="31.3957" ry="18"/>
<text text-anchor="middle" x="236.146" y="-878.3" font-family="Times,serif" font-size="14.00">RAIZ</text>
</g>
<!-- 2 -->
<g id="node2" class="node"><title>2</title>
<ellipse fill="none" stroke="black" cx="184.146" cy="-810" rx="34.394" ry="18"/>
<text text-anchor="middle" x="184.146" y="-806.3" font-family="Times,serif" font-size="14.00">FUNC</text>
</g>
<!-- 1&#45;&gt;2 -->
<g id="edge1" class="edge"><title>1&#45;&gt;2</title>
<path fill="none" stroke="black" d="M224.346,-865.116C217.857,-856.38 209.665,-845.353 202.372,-835.535"/>
<polygon fill="black" stroke="black" points="205.033,-833.247 196.26,-827.307 199.413,-837.422 205.033,-833.247"/>
</g>
<!-- 15 -->
<g id="node67" class="node"><title>15</title>
<ellipse fill="none" stroke="black" cx="289.146" cy="-810" rx="27" ry="18"/>
<text text-anchor="middle" x="289.146" y="-806.3" font-family="Times,serif" font-size="14.00">15</text>
</g>
<!-- 1&#45;&gt;15 -->
<g id="edge14" class="edge"><title>1&#45;&gt;15</title>
<path fill="none" stroke="black" d="M248.172,-865.116C255.044,-856.04 263.789,-844.49 271.434,-834.393"/>
<polygon fill="black" stroke="black" points="274.285,-836.426 277.531,-826.34 268.704,-832.2 274.285,-836.426"/>
</g>
<!-- 3 -->
<g id="node66" class="node"><title>3</title>
<ellipse fill="none" stroke="black" cx="158.146" cy="-738" rx="27" ry="18"/>
<text text-anchor="middle" x="158.146" y="-734.3" font-family="Times,serif" font-size="14.00">3</text>
</g>
<!-- 2&#45;&gt;3 -->
<g id="edge2" class="edge"><title>2&#45;&gt;3</title>
<path fill="none" stroke="black" d="M177.852,-792.055C174.882,-784.059 171.269,-774.331 167.951,-765.4"/>
<polygon fill="black" stroke="black" points="171.145,-763.945 164.382,-755.789 164.583,-766.382 171.145,-763.945"/>
</g>
<!-- 4 -->
<g id="node3" class="node"><title>4</title>
<ellipse fill="none" stroke="black" cx="46.1459" cy="-666" rx="46.2923" ry="18"/>
<text text-anchor="middle" x="46.1459" y="-662.3" font-family="Times,serif" font-size="14.00">RETURN</text>
</g>
<!-- 5 -->
<g id="node4" class="node"><title>5</title>
<ellipse fill="none" stroke="black" cx="35.1459" cy="-594" rx="27" ry="18"/>
<text text-anchor="middle" x="35.1459" y="-590.3" font-family="Times,serif" font-size="14.00">0</text>
</g>
<!-- 4&#45;&gt;5 -->
<g id="edge4" class="edge"><title>4&#45;&gt;5</title>
<path fill="none" stroke="black" d="M43.4268,-647.697C42.2146,-639.983 40.7579,-630.712 39.4064,-622.112"/>
<polygon fill="black" stroke="black" points="42.8438,-621.44 37.8337,-612.104 35.9286,-622.526 42.8438,-621.44"/>
</g>
<!-- 6 -->
<g id="node5" class="node"><title>6</title>
<ellipse fill="none" stroke="black" cx="158.146" cy="-666" rx="37.0935" ry="18"/>
<text text-anchor="middle" x="158.146" y="-662.3" font-family="Times,serif" font-size="14.00">ATRIB</text>
</g>
<!-- 7 -->
<g id="node6" class="node"><title>7</title>
<ellipse fill="none" stroke="black" cx="107.146" cy="-594" rx="27" ry="18"/>
<text text-anchor="middle" x="107.146" y="-590.3" font-family="Times,serif" font-size="14.00">3</text>
</g>
<!-- 6&#45;&gt;7 -->
<g id="edge6" class="edge"><title>6&#45;&gt;7</title>
<path fill="none" stroke="black" d="M146.317,-648.765C139.854,-639.893 131.726,-628.738 124.553,-618.892"/>
<polygon fill="black" stroke="black" points="127.277,-616.687 118.56,-610.666 121.619,-620.809 127.277,-616.687"/>
</g>
<!-- 8 -->
<g id="node7" class="node"><title>8</title>
<ellipse fill="none" stroke="black" cx="180.146" cy="-594" rx="27.8951" ry="18"/>
<text text-anchor="middle" x="180.146" y="-590.3" font-family="Times,serif" font-size="14.00">SUB</text>
</g>
<!-- 6&#45;&gt;8 -->
<g id="edge7" class="edge"><title>6&#45;&gt;8</title>
<path fill="none" stroke="black" d="M163.471,-648.055C165.985,-640.059 169.042,-630.331 171.849,-621.4"/>
<polygon fill="black" stroke="black" points="175.21,-622.378 174.869,-611.789 168.532,-620.28 175.21,-622.378"/>
</g>
<!-- 9 -->
<g id="node8" class="node"><title>9</title>
<ellipse fill="none" stroke="black" cx="105.146" cy="-522" rx="29.795" ry="18"/>
<text text-anchor="middle" x="105.146" y="-518.3" font-family="Times,serif" font-size="14.00">ADD</text>
</g>
<!-- 8&#45;&gt;9 -->
<g id="edge8" class="edge"><title>8&#45;&gt;9</title>
<path fill="none" stroke="black" d="M164.969,-578.834C154.435,-569.003 140.207,-555.723 128.269,-544.582"/>
<polygon fill="black" stroke="black" points="130.516,-541.891 120.817,-537.626 125.739,-547.008 130.516,-541.891"/>
</g>
<!-- 14 -->
<g id="node13" class="node"><title>14</title>
<ellipse fill="none" stroke="black" cx="180.146" cy="-522" rx="27" ry="18"/>
<text text-anchor="middle" x="180.146" y="-518.3" font-family="Times,serif" font-size="14.00">0</text>
</g>
<!-- 8&#45;&gt;14 -->
<g id="edge13" class="edge"><title>8&#45;&gt;14</title>
<path fill="none" stroke="black" d="M180.146,-575.697C180.146,-567.983 180.146,-558.712 180.146,-550.112"/>
<polygon fill="black" stroke="black" points="183.646,-550.104 180.146,-540.104 176.646,-550.104 183.646,-550.104"/>
</g>
<!-- 10 -->
<g id="node9" class="node"><title>10</title>
<ellipse fill="none" stroke="black" cx="65.1459" cy="-450" rx="27" ry="18"/>
<text text-anchor="middle" x="65.1459" y="-446.3" font-family="Times,serif" font-size="14.00">1</text>
</g>
<!-- 9&#45;&gt;10 -->
<g id="edge9" class="edge"><title>9&#45;&gt;10</title>
<path fill="none" stroke="black" d="M95.8686,-504.765C90.9715,-496.195 84.8568,-485.494 79.3747,-475.9"/>
<polygon fill="black" stroke="black" points="82.3732,-474.093 74.3729,-467.147 76.2955,-477.566 82.3732,-474.093"/>
</g>
<!-- 11 -->
<g id="node10" class="node"><title>11</title>
<ellipse fill="none" stroke="black" cx="146.146" cy="-450" rx="36.2938" ry="18"/>
<text text-anchor="middle" x="146.146" y="-446.3" font-family="Times,serif" font-size="14.00">MULT</text>
</g>
<!-- 9&#45;&gt;11 -->
<g id="edge10" class="edge"><title>9&#45;&gt;11</title>
<path fill="none" stroke="black" d="M114.655,-504.765C119.603,-496.317 125.763,-485.799 131.32,-476.312"/>
<polygon fill="black" stroke="black" points="134.37,-478.031 136.403,-467.633 128.329,-474.493 134.37,-478.031"/>
</g>
<!-- 12 -->
<g id="node11" class="node"><title>12</title>
<ellipse fill="none" stroke="black" cx="110.146" cy="-378" rx="27" ry="18"/>
<text text-anchor="middle" x="110.146" y="-374.3" font-family="Times,serif" font-size="14.00">1</text>
</g>
<!-- 11&#45;&gt;12 -->
<g id="edge11" class="edge"><title>11&#45;&gt;12</title>
<path fill="none" stroke="black" d="M137.614,-432.411C133.31,-424.042 127.997,-413.71 123.193,-404.37"/>
<polygon fill="black" stroke="black" points="126.302,-402.762 118.616,-395.47 120.077,-405.964 126.302,-402.762"/>
</g>
<!-- 13 -->
<g id="node12" class="node"><title>13</title>
<ellipse fill="none" stroke="black" cx="182.146" cy="-378" rx="27" ry="18"/>
<text text-anchor="middle" x="182.146" y="-374.3" font-family="Times,serif" font-size="14.00">2</text>
</g>
<!-- 11&#45;&gt;13 -->
<g id="edge12" class="edge"><title>11&#45;&gt;13</title>
<path fill="none" stroke="black" d="M154.677,-432.411C158.981,-424.042 164.295,-413.71 169.099,-404.37"/>
<polygon fill="black" stroke="black" points="172.215,-405.964 173.676,-395.47 165.99,-402.762 172.215,-405.964"/>
</g>
<!-- 16 -->
<g id="node14" class="node"><title>16</title>
<ellipse fill="none" stroke="black" cx="289.146" cy="-738" rx="46.2923" ry="18"/>
<text text-anchor="middle" x="289.146" y="-734.3" font-family="Times,serif" font-size="14.00">RETURN</text>
</g>
<!-- 17 -->
<g id="node15" class="node"><title>17</title>
<ellipse fill="none" stroke="black" cx="289.146" cy="-666" rx="27" ry="18"/>
<text text-anchor="middle" x="289.146" y="-662.3" font-family="Times,serif" font-size="14.00">0</text>
</g>
<!-- 16&#45;&gt;17 -->
<g id="edge16" class="edge"><title>16&#45;&gt;17</title>
<path fill="none" stroke="black" d="M289.146,-719.697C289.146,-711.983 289.146,-702.712 289.146,-694.112"/>
<polygon fill="black" stroke="black" points="292.646,-694.104 289.146,-684.104 285.646,-694.104 292.646,-694.104"/>
</g>
<!-- 19 -->
<g id="node16" class="node"><title>19</title>
<ellipse fill="none" stroke="black" cx="420.146" cy="-666" rx="27" ry="18"/>
<text text-anchor="middle" x="420.146" y="-662.3" font-family="Times,serif" font-size="14.00">IF</text>
</g>
<!-- 20 -->
<g id="node17" class="node"><title>20</title>
<ellipse fill="none" stroke="black" cx="324.146" cy="-594" rx="27" ry="18"/>
<text text-anchor="middle" x="324.146" y="-590.3" font-family="Times,serif" font-size="14.00">==</text>
</g>
<!-- 19&#45;&gt;20 -->
<g id="edge19" class="edge"><title>19&#45;&gt;20</title>
<path fill="none" stroke="black" d="M402.538,-652.161C387.788,-641.405 366.533,-625.907 349.875,-613.761"/>
<polygon fill="black" stroke="black" points="351.784,-610.821 341.642,-607.758 347.66,-616.477 351.784,-610.821"/>
</g>
<!-- 23 -->
<g id="node20" class="node"><title>23</title>
<ellipse fill="none" stroke="black" cx="420.146" cy="-594" rx="36.2938" ry="18"/>
<text text-anchor="middle" x="420.146" y="-590.3" font-family="Times,serif" font-size="14.00">PRINT</text>
</g>
<!-- 19&#45;&gt;23 -->
<g id="edge22" class="edge"><title>19&#45;&gt;23</title>
<path fill="none" stroke="black" d="M420.146,-647.697C420.146,-639.983 420.146,-630.712 420.146,-622.112"/>
<polygon fill="black" stroke="black" points="423.646,-622.104 420.146,-612.104 416.646,-622.104 423.646,-622.104"/>
</g>
<!-- 25 -->
<g id="node22" class="node"><title>25</title>
<ellipse fill="none" stroke="black" cx="534.146" cy="-594" rx="36.2938" ry="18"/>
<text text-anchor="middle" x="534.146" y="-590.3" font-family="Times,serif" font-size="14.00">PRINT</text>
</g>
<!-- 19&#45;&gt;25 -->
<g id="edge24" class="edge"><title>19&#45;&gt;25</title>
<path fill="none" stroke="black" d="M439.484,-653.125C456.971,-642.388 483.016,-626.396 503.363,-613.902"/>
<polygon fill="black" stroke="black" points="505.285,-616.829 511.975,-608.613 501.622,-610.864 505.285,-616.829"/>
</g>
<!-- 21 -->
<g id="node18" class="node"><title>21</title>
<ellipse fill="none" stroke="black" cx="252.146" cy="-522" rx="27" ry="18"/>
<text text-anchor="middle" x="252.146" y="-518.3" font-family="Times,serif" font-size="14.00">f</text>
</g>
<!-- 20&#45;&gt;21 -->
<g id="edge20" class="edge"><title>20&#45;&gt;21</title>
<path fill="none" stroke="black" d="M309.576,-578.834C299.396,-568.938 285.622,-555.546 274.115,-544.359"/>
<polygon fill="black" stroke="black" points="276.551,-541.846 266.942,-537.385 271.672,-546.865 276.551,-541.846"/>
</g>
<!-- 22 -->
<g id="node19" class="node"><title>22</title>
<ellipse fill="none" stroke="black" cx="324.146" cy="-522" rx="27" ry="18"/>
<text text-anchor="middle" x="324.146" y="-518.3" font-family="Times,serif" font-size="14.00">1</text>
</g>
<!-- 20&#45;&gt;22 -->
<g id="edge21" class="edge"><title>20&#45;&gt;22</title>
<path fill="none" stroke="black" d="M324.146,-575.697C324.146,-567.983 324.146,-558.712 324.146,-550.112"/>
<polygon fill="black" stroke="black" points="327.646,-550.104 324.146,-540.104 320.646,-550.104 327.646,-550.104"/>
</g>
<!-- 24 -->
<g id="node21" class="node"><title>24</title>
<ellipse fill="none" stroke="black" cx="420.146" cy="-522" rx="51.1914" ry="18"/>
<text text-anchor="middle" x="420.146" y="-518.3" font-family="Times,serif" font-size="14.00"> eh primo!!</text>
</g>
<!-- 23&#45;&gt;24 -->
<g id="edge23" class="edge"><title>23&#45;&gt;24</title>
<path fill="none" stroke="black" d="M420.146,-575.697C420.146,-567.983 420.146,-558.712 420.146,-550.112"/>
<polygon fill="black" stroke="black" points="423.646,-550.104 420.146,-540.104 416.646,-550.104 423.646,-550.104"/>
</g>
<!-- 26 -->
<g id="node23" class="node"><title>26</title>
<ellipse fill="none" stroke="black" cx="556.146" cy="-522" rx="66.0889" ry="18"/>
<text text-anchor="middle" x="556.146" y="-518.3" font-family="Times,serif" font-size="14.00"> nao eh primo!!</text>
</g>
<!-- 25&#45;&gt;26 -->
<g id="edge25" class="edge"><title>25&#45;&gt;26</title>
<path fill="none" stroke="black" d="M539.471,-576.055C541.921,-568.261 544.888,-558.822 547.635,-550.079"/>
<polygon fill="black" stroke="black" points="551.057,-550.865 550.717,-540.275 544.379,-548.766 551.057,-550.865"/>
</g>
<!-- 28 -->
<g id="node24" class="node"><title>28</title>
<ellipse fill="none" stroke="black" cx="667.146" cy="-594" rx="36.2938" ry="18"/>
<text text-anchor="middle" x="667.146" y="-590.3" font-family="Times,serif" font-size="14.00">PRINT</text>
</g>
<!-- 29 -->
<g id="node25" class="node"><title>29</title>
<ellipse fill="none" stroke="black" cx="667.146" cy="-522" rx="27" ry="18"/>
<text text-anchor="middle" x="667.146" y="-518.3" font-family="Times,serif" font-size="14.00">num</text>
</g>
<!-- 28&#45;&gt;29 -->
<g id="edge28" class="edge"><title>28&#45;&gt;29</title>
<path fill="none" stroke="black" d="M667.146,-575.697C667.146,-567.983 667.146,-558.712 667.146,-550.112"/>
<polygon fill="black" stroke="black" points="670.646,-550.104 667.146,-540.104 663.646,-550.104 670.646,-550.104"/>
</g>
<!-- 31 -->
<g id="node26" class="node"><title>31</title>
<ellipse fill="none" stroke="black" cx="752.146" cy="-522" rx="39.7935" ry="18"/>
<text text-anchor="middle" x="752.146" y="-518.3" font-family="Times,serif" font-size="14.00">WHILE</text>
</g>
<!-- 32 -->
<g id="node27" class="node"><title>32</title>
<ellipse fill="none" stroke="black" cx="629.146" cy="-450" rx="27" ry="18"/>
<text text-anchor="middle" x="629.146" y="-446.3" font-family="Times,serif" font-size="14.00">&lt;</text>
</g>
<!-- 31&#45;&gt;32 -->
<g id="edge31" class="edge"><title>31&#45;&gt;32</title>
<path fill="none" stroke="black" d="M728.43,-507.503C708.363,-496.083 679.532,-479.675 658.104,-467.48"/>
<polygon fill="black" stroke="black" points="659.553,-464.278 649.13,-462.373 656.09,-470.361 659.553,-464.278"/>
</g>
<!-- 35 -->
<g id="node71" class="node"><title>35</title>
<ellipse fill="none" stroke="black" cx="752.146" cy="-450" rx="27" ry="18"/>
<text text-anchor="middle" x="752.146" y="-446.3" font-family="Times,serif" font-size="14.00">35</text>
</g>
<!-- 31&#45;&gt;35 -->
<g id="edge34" class="edge"><title>31&#45;&gt;35</title>
<path fill="none" stroke="black" d="M752.146,-503.697C752.146,-495.983 752.146,-486.712 752.146,-478.112"/>
<polygon fill="black" stroke="black" points="755.646,-478.104 752.146,-468.104 748.646,-478.104 755.646,-478.104"/>
</g>
<!-- 33 -->
<g id="node28" class="node"><title>33</title>
<ellipse fill="none" stroke="black" cx="557.146" cy="-378" rx="27" ry="18"/>
<text text-anchor="middle" x="557.146" y="-374.3" font-family="Times,serif" font-size="14.00">i</text>
</g>
<!-- 32&#45;&gt;33 -->
<g id="edge32" class="edge"><title>32&#45;&gt;33</title>
<path fill="none" stroke="black" d="M614.576,-434.834C604.396,-424.938 590.622,-411.546 579.115,-400.359"/>
<polygon fill="black" stroke="black" points="581.551,-397.846 571.942,-393.385 576.672,-402.865 581.551,-397.846"/>
</g>
<!-- 34 -->
<g id="node29" class="node"><title>34</title>
<ellipse fill="none" stroke="black" cx="629.146" cy="-378" rx="27" ry="18"/>
<text text-anchor="middle" x="629.146" y="-374.3" font-family="Times,serif" font-size="14.00">num</text>
</g>
<!-- 32&#45;&gt;34 -->
<g id="edge33" class="edge"><title>32&#45;&gt;34</title>
<path fill="none" stroke="black" d="M629.146,-431.697C629.146,-423.983 629.146,-414.712 629.146,-406.112"/>
<polygon fill="black" stroke="black" points="632.646,-406.104 629.146,-396.104 625.646,-406.104 632.646,-406.104"/>
</g>
<!-- 36 -->
<g id="node30" class="node"><title>36</title>
<ellipse fill="none" stroke="black" cx="711.146" cy="-378" rx="37.0935" ry="18"/>
<text text-anchor="middle" x="711.146" y="-374.3" font-family="Times,serif" font-size="14.00">ATRIB</text>
</g>
<!-- 37 -->
<g id="node31" class="node"><title>37</title>
<ellipse fill="none" stroke="black" cx="605.146" cy="-306" rx="27" ry="18"/>
<text text-anchor="middle" x="605.146" y="-302.3" font-family="Times,serif" font-size="14.00">i</text>
</g>
<!-- 36&#45;&gt;37 -->
<g id="edge36" class="edge"><title>36&#45;&gt;37</title>
<path fill="none" stroke="black" d="M689.95,-363.003C673.486,-352.13 650.525,-336.968 632.647,-325.161"/>
<polygon fill="black" stroke="black" points="634.096,-321.923 623.822,-319.333 630.238,-327.765 634.096,-321.923"/>
</g>
<!-- 38 -->
<g id="node32" class="node"><title>38</title>
<ellipse fill="none" stroke="black" cx="680.146" cy="-306" rx="29.795" ry="18"/>
<text text-anchor="middle" x="680.146" y="-302.3" font-family="Times,serif" font-size="14.00">ADD</text>
</g>
<!-- 36&#45;&gt;38 -->
<g id="edge37" class="edge"><title>36&#45;&gt;38</title>
<path fill="none" stroke="black" d="M703.642,-360.055C700.062,-351.973 695.7,-342.121 691.71,-333.112"/>
<polygon fill="black" stroke="black" points="694.831,-331.515 687.581,-323.789 688.43,-334.35 694.831,-331.515"/>
</g>
<!-- 39 -->
<g id="node33" class="node"><title>39</title>
<ellipse fill="none" stroke="black" cx="593.146" cy="-234" rx="27" ry="18"/>
<text text-anchor="middle" x="593.146" y="-230.3" font-family="Times,serif" font-size="14.00">i</text>
</g>
<!-- 38&#45;&gt;39 -->
<g id="edge38" class="edge"><title>38&#45;&gt;39</title>
<path fill="none" stroke="black" d="M662.958,-291.17C650.042,-280.778 632.169,-266.398 617.742,-254.79"/>
<polygon fill="black" stroke="black" points="619.694,-251.868 609.708,-248.326 615.305,-257.322 619.694,-251.868"/>
</g>
<!-- 40 -->
<g id="node34" class="node"><title>40</title>
<ellipse fill="none" stroke="black" cx="665.146" cy="-234" rx="27" ry="18"/>
<text text-anchor="middle" x="665.146" y="-230.3" font-family="Times,serif" font-size="14.00">1</text>
</g>
<!-- 38&#45;&gt;40 -->
<g id="edge39" class="edge"><title>38&#45;&gt;40</title>
<path fill="none" stroke="black" d="M676.515,-288.055C674.845,-280.261 672.822,-270.822 670.949,-262.079"/>
<polygon fill="black" stroke="black" points="674.365,-261.32 668.848,-252.275 667.521,-262.787 674.365,-261.32"/>
</g>
<!-- 42 -->
<g id="node35" class="node"><title>42</title>
<ellipse fill="none" stroke="black" cx="801.146" cy="-306" rx="27" ry="18"/>
<text text-anchor="middle" x="801.146" y="-302.3" font-family="Times,serif" font-size="14.00">IF</text>
</g>
<!-- 43 -->
<g id="node36" class="node"><title>43</title>
<ellipse fill="none" stroke="black" cx="737.146" cy="-234" rx="27" ry="18"/>
<text text-anchor="middle" x="737.146" y="-230.3" font-family="Times,serif" font-size="14.00">==</text>
</g>
<!-- 42&#45;&gt;43 -->
<g id="edge42" class="edge"><title>42&#45;&gt;43</title>
<path fill="none" stroke="black" d="M787.573,-290.155C778.833,-280.596 767.312,-267.994 757.488,-257.249"/>
<polygon fill="black" stroke="black" points="760.03,-254.842 750.699,-249.824 754.864,-259.566 760.03,-254.842"/>
</g>
<!-- 46 -->
<g id="node73" class="node"><title>46</title>
<ellipse fill="none" stroke="black" cx="809.146" cy="-234" rx="27" ry="18"/>
<text text-anchor="middle" x="809.146" y="-230.3" font-family="Times,serif" font-size="14.00">46</text>
</g>
<!-- 42&#45;&gt;46 -->
<g id="edge45" class="edge"><title>42&#45;&gt;46</title>
<path fill="none" stroke="black" d="M803.123,-287.697C804.005,-279.983 805.064,-270.712 806.047,-262.112"/>
<polygon fill="black" stroke="black" points="809.533,-262.437 807.191,-252.104 802.578,-261.642 809.533,-262.437"/>
</g>
<!-- 44 -->
<g id="node37" class="node"><title>44</title>
<ellipse fill="none" stroke="black" cx="585.146" cy="-162" rx="27" ry="18"/>
<text text-anchor="middle" x="585.146" y="-158.3" font-family="Times,serif" font-size="14.00">aux</text>
</g>
<!-- 43&#45;&gt;44 -->
<g id="edge43" class="edge"><title>43&#45;&gt;44</title>
<path fill="none" stroke="black" d="M715.856,-222.867C711.027,-220.591 705.916,-218.199 701.146,-216 665.738,-199.675 656.553,-196.325 621.146,-180 619.357,-179.175 617.52,-178.323 615.668,-177.461"/>
<polygon fill="black" stroke="black" points="616.976,-174.208 606.436,-173.133 614.005,-180.546 616.976,-174.208"/>
</g>
<!-- 45 -->
<g id="node38" class="node"><title>45</title>
<ellipse fill="none" stroke="black" cx="657.146" cy="-162" rx="27" ry="18"/>
<text text-anchor="middle" x="657.146" y="-158.3" font-family="Times,serif" font-size="14.00">num</text>
</g>
<!-- 43&#45;&gt;45 -->
<g id="edge44" class="edge"><title>43&#45;&gt;45</title>
<path fill="none" stroke="black" d="M721.34,-219.17C709.726,-209.008 693.752,-195.03 680.645,-183.561"/>
<polygon fill="black" stroke="black" points="682.749,-180.752 672.918,-176.801 678.14,-186.02 682.749,-180.752"/>
</g>
<!-- 47 -->
<g id="node39" class="node"><title>47</title>
<ellipse fill="none" stroke="black" cx="739.146" cy="-162" rx="37.0935" ry="18"/>
<text text-anchor="middle" x="739.146" y="-158.3" font-family="Times,serif" font-size="14.00">ATRIB</text>
</g>
<!-- 48 -->
<g id="node40" class="node"><title>48</title>
<ellipse fill="none" stroke="black" cx="631.146" cy="-90" rx="27" ry="18"/>
<text text-anchor="middle" x="631.146" y="-86.3" font-family="Times,serif" font-size="14.00">i</text>
</g>
<!-- 47&#45;&gt;48 -->
<g id="edge47" class="edge"><title>47&#45;&gt;48</title>
<path fill="none" stroke="black" d="M717.809,-147.17C700.798,-136.145 676.86,-120.629 658.452,-108.698"/>
<polygon fill="black" stroke="black" points="660.209,-105.666 649.914,-103.164 656.402,-111.54 660.209,-105.666"/>
</g>
<!-- 49 -->
<g id="node41" class="node"><title>49</title>
<ellipse fill="none" stroke="black" cx="703.146" cy="-90" rx="27" ry="18"/>
<text text-anchor="middle" x="703.146" y="-86.3" font-family="Times,serif" font-size="14.00">num</text>
</g>
<!-- 47&#45;&gt;49 -->
<g id="edge48" class="edge"><title>47&#45;&gt;49</title>
<path fill="none" stroke="black" d="M730.614,-144.411C726.31,-136.042 720.997,-125.71 716.193,-116.37"/>
<polygon fill="black" stroke="black" points="719.302,-114.762 711.616,-107.47 713.077,-117.964 719.302,-114.762"/>
</g>
<!-- 50 -->
<g id="node42" class="node"><title>50</title>
<ellipse fill="none" stroke="black" cx="831.146" cy="-162" rx="37.0935" ry="18"/>
<text text-anchor="middle" x="831.146" y="-158.3" font-family="Times,serif" font-size="14.00">ATRIB</text>
</g>
<!-- 51 -->
<g id="node43" class="node"><title>51</title>
<ellipse fill="none" stroke="black" cx="775.146" cy="-90" rx="27" ry="18"/>
<text text-anchor="middle" x="775.146" y="-86.3" font-family="Times,serif" font-size="14.00">f</text>
</g>
<!-- 50&#45;&gt;51 -->
<g id="edge50" class="edge"><title>50&#45;&gt;51</title>
<path fill="none" stroke="black" d="M818.158,-144.765C810.888,-135.677 801.701,-124.194 793.686,-114.175"/>
<polygon fill="black" stroke="black" points="796.277,-111.811 787.297,-106.189 790.811,-116.184 796.277,-111.811"/>
</g>
<!-- 52 -->
<g id="node44" class="node"><title>52</title>
<ellipse fill="none" stroke="black" cx="847.146" cy="-90" rx="27" ry="18"/>
<text text-anchor="middle" x="847.146" y="-86.3" font-family="Times,serif" font-size="14.00">0</text>
</g>
<!-- 50&#45;&gt;52 -->
<g id="edge51" class="edge"><title>50&#45;&gt;52</title>
<path fill="none" stroke="black" d="M835.019,-144.055C836.801,-136.261 838.958,-126.822 840.956,-118.079"/>
<polygon fill="black" stroke="black" points="844.381,-118.804 843.197,-108.275 837.557,-117.244 844.381,-118.804"/>
</g>
<!-- 54 -->
<g id="node45" class="node"><title>54</title>
<ellipse fill="none" stroke="black" cx="956.146" cy="-234" rx="39.7935" ry="18"/>
<text text-anchor="middle" x="956.146" y="-230.3" font-family="Times,serif" font-size="14.00">WHILE</text>
</g>
<!-- 55 -->
<g id="node46" class="node"><title>55</title>
<ellipse fill="none" stroke="black" cx="956.146" cy="-162" rx="27" ry="18"/>
<text text-anchor="middle" x="956.146" y="-158.3" font-family="Times,serif" font-size="14.00">&lt;</text>
</g>
<!-- 54&#45;&gt;55 -->
<g id="edge54" class="edge"><title>54&#45;&gt;55</title>
<path fill="none" stroke="black" d="M956.146,-215.697C956.146,-207.983 956.146,-198.712 956.146,-190.112"/>
<polygon fill="black" stroke="black" points="959.646,-190.104 956.146,-180.104 952.646,-190.104 959.646,-190.104"/>
</g>
<!-- 58 -->
<g id="node49" class="node"><title>58</title>
<ellipse fill="none" stroke="black" cx="1042.15" cy="-162" rx="37.0935" ry="18"/>
<text text-anchor="middle" x="1042.15" y="-158.3" font-family="Times,serif" font-size="14.00">ATRIB</text>
</g>
<!-- 54&#45;&gt;58 -->
<g id="edge57" class="edge"><title>54&#45;&gt;58</title>
<path fill="none" stroke="black" d="M974.807,-217.811C986.834,-208.021 1002.65,-195.148 1015.93,-184.337"/>
<polygon fill="black" stroke="black" points="1018.27,-186.946 1023.82,-177.919 1013.85,-181.517 1018.27,-186.946"/>
</g>
<!-- 56 -->
<g id="node47" class="node"><title>56</title>
<ellipse fill="none" stroke="black" cx="919.146" cy="-90" rx="27" ry="18"/>
<text text-anchor="middle" x="919.146" y="-86.3" font-family="Times,serif" font-size="14.00">aux</text>
</g>
<!-- 55&#45;&gt;56 -->
<g id="edge55" class="edge"><title>55&#45;&gt;56</title>
<path fill="none" stroke="black" d="M947.564,-144.765C943.081,-136.283 937.495,-125.714 932.465,-116.197"/>
<polygon fill="black" stroke="black" points="935.448,-114.353 927.681,-107.147 929.26,-117.624 935.448,-114.353"/>
</g>
<!-- 57 -->
<g id="node48" class="node"><title>57</title>
<ellipse fill="none" stroke="black" cx="991.146" cy="-90" rx="27" ry="18"/>
<text text-anchor="middle" x="991.146" y="-86.3" font-family="Times,serif" font-size="14.00">num</text>
</g>
<!-- 55&#45;&gt;57 -->
<g id="edge56" class="edge"><title>55&#45;&gt;57</title>
<path fill="none" stroke="black" d="M964.264,-144.765C968.444,-136.404 973.638,-126.016 978.343,-116.606"/>
<polygon fill="black" stroke="black" points="981.488,-118.143 982.829,-107.633 975.227,-115.012 981.488,-118.143"/>
</g>
<!-- 59 -->
<g id="node50" class="node"><title>59</title>
<ellipse fill="none" stroke="black" cx="1063.15" cy="-90" rx="27" ry="18"/>
<text text-anchor="middle" x="1063.15" y="-86.3" font-family="Times,serif" font-size="14.00">aux</text>
</g>
<!-- 58&#45;&gt;59 -->
<g id="edge58" class="edge"><title>58&#45;&gt;59</title>
<path fill="none" stroke="black" d="M1047.23,-144.055C1049.63,-136.059 1052.55,-126.331 1055.23,-117.4"/>
<polygon fill="black" stroke="black" points="1058.59,-118.373 1058.11,-107.789 1051.88,-116.362 1058.59,-118.373"/>
</g>
<!-- 60 -->
<g id="node51" class="node"><title>60</title>
<ellipse fill="none" stroke="black" cx="1138.15" cy="-90" rx="29.795" ry="18"/>
<text text-anchor="middle" x="1138.15" y="-86.3" font-family="Times,serif" font-size="14.00">ADD</text>
</g>
<!-- 58&#45;&gt;60 -->
<g id="edge59" class="edge"><title>58&#45;&gt;60</title>
<path fill="none" stroke="black" d="M1062.04,-146.496C1076.4,-136.021 1095.95,-121.766 1111.64,-110.326"/>
<polygon fill="black" stroke="black" points="1113.89,-113.021 1119.9,-104.302 1109.76,-107.365 1113.89,-113.021"/>
</g>
<!-- 61 -->
<g id="node52" class="node"><title>61</title>
<ellipse fill="none" stroke="black" cx="1102.15" cy="-18" rx="27" ry="18"/>
<text text-anchor="middle" x="1102.15" y="-14.3" font-family="Times,serif" font-size="14.00">aux</text>
</g>
<!-- 60&#45;&gt;61 -->
<g id="edge60" class="edge"><title>60&#45;&gt;61</title>
<path fill="none" stroke="black" d="M1129.61,-72.411C1125.31,-64.0421 1120,-53.7098 1115.19,-44.3698"/>
<polygon fill="black" stroke="black" points="1118.3,-42.7621 1110.62,-35.4699 1112.08,-45.9636 1118.3,-42.7621"/>
</g>
<!-- 62 -->
<g id="node53" class="node"><title>62</title>
<ellipse fill="none" stroke="black" cx="1174.15" cy="-18" rx="27" ry="18"/>
<text text-anchor="middle" x="1174.15" y="-14.3" font-family="Times,serif" font-size="14.00">i</text>
</g>
<!-- 60&#45;&gt;62 -->
<g id="edge61" class="edge"><title>60&#45;&gt;62</title>
<path fill="none" stroke="black" d="M1146.68,-72.411C1150.98,-64.0421 1156.3,-53.7098 1161.1,-44.3698"/>
<polygon fill="black" stroke="black" points="1164.21,-45.9636 1165.68,-35.4699 1157.99,-42.7621 1164.21,-45.9636"/>
</g>
<!-- 63 -->
<g id="node54" class="node"><title>63</title>
<ellipse fill="none" stroke="black" cx="1124.15" cy="-234" rx="37.0935" ry="18"/>
<text text-anchor="middle" x="1124.15" y="-230.3" font-family="Times,serif" font-size="14.00">ATRIB</text>
</g>
<!-- 64 -->
<g id="node55" class="node"><title>64</title>
<ellipse fill="none" stroke="black" cx="1124.15" cy="-162" rx="27" ry="18"/>
<text text-anchor="middle" x="1124.15" y="-158.3" font-family="Times,serif" font-size="14.00">aux</text>
</g>
<!-- 63&#45;&gt;64 -->
<g id="edge63" class="edge"><title>63&#45;&gt;64</title>
<path fill="none" stroke="black" d="M1124.15,-215.697C1124.15,-207.983 1124.15,-198.712 1124.15,-190.112"/>
<polygon fill="black" stroke="black" points="1127.65,-190.104 1124.15,-180.104 1120.65,-190.104 1127.65,-190.104"/>
</g>
<!-- 65 -->
<g id="node56" class="node"><title>65</title>
<ellipse fill="none" stroke="black" cx="1196.15" cy="-162" rx="27" ry="18"/>
<text text-anchor="middle" x="1196.15" y="-158.3" font-family="Times,serif" font-size="14.00">0</text>
</g>
<!-- 63&#45;&gt;65 -->
<g id="edge64" class="edge"><title>63&#45;&gt;65</title>
<path fill="none" stroke="black" d="M1140.13,-217.465C1150.09,-207.778 1163.05,-195.174 1174,-184.531"/>
<polygon fill="black" stroke="black" points="1176.46,-187.016 1181.19,-177.536 1171.58,-181.997 1176.46,-187.016"/>
</g>
<!-- 67 -->
<g id="node57" class="node"><title>67</title>
<ellipse fill="none" stroke="black" cx="966.146" cy="-450" rx="37.0935" ry="18"/>
<text text-anchor="middle" x="966.146" y="-446.3" font-family="Times,serif" font-size="14.00">ATRIB</text>
</g>
<!-- 68 -->
<g id="node58" class="node"><title>68</title>
<ellipse fill="none" stroke="black" cx="894.146" cy="-378" rx="27" ry="18"/>
<text text-anchor="middle" x="894.146" y="-374.3" font-family="Times,serif" font-size="14.00">f</text>
</g>
<!-- 67&#45;&gt;68 -->
<g id="edge67" class="edge"><title>67&#45;&gt;68</title>
<path fill="none" stroke="black" d="M950.167,-433.465C940.203,-423.778 927.239,-411.174 916.292,-400.531"/>
<polygon fill="black" stroke="black" points="918.707,-397.997 909.097,-393.536 913.827,-403.016 918.707,-397.997"/>
</g>
<!-- 69 -->
<g id="node59" class="node"><title>69</title>
<ellipse fill="none" stroke="black" cx="966.146" cy="-378" rx="27" ry="18"/>
<text text-anchor="middle" x="966.146" y="-374.3" font-family="Times,serif" font-size="14.00">1</text>
</g>
<!-- 67&#45;&gt;69 -->
<g id="edge68" class="edge"><title>67&#45;&gt;69</title>
<path fill="none" stroke="black" d="M966.146,-431.697C966.146,-423.983 966.146,-414.712 966.146,-406.112"/>
<polygon fill="black" stroke="black" points="969.646,-406.104 966.146,-396.104 962.646,-406.104 969.646,-406.104"/>
</g>
<!-- 71 -->
<g id="node60" class="node"><title>71</title>
<ellipse fill="none" stroke="black" cx="1056.15" cy="-378" rx="37.0935" ry="18"/>
<text text-anchor="middle" x="1056.15" y="-374.3" font-family="Times,serif" font-size="14.00">ATRIB</text>
</g>
<!-- 72 -->
<g id="node61" class="node"><title>72</title>
<ellipse fill="none" stroke="black" cx="1020.15" cy="-306" rx="27" ry="18"/>
<text text-anchor="middle" x="1020.15" y="-302.3" font-family="Times,serif" font-size="14.00">i</text>
</g>
<!-- 71&#45;&gt;72 -->
<g id="edge71" class="edge"><title>71&#45;&gt;72</title>
<path fill="none" stroke="black" d="M1047.61,-360.411C1043.31,-352.042 1038,-341.71 1033.19,-332.37"/>
<polygon fill="black" stroke="black" points="1036.3,-330.762 1028.62,-323.47 1030.08,-333.964 1036.3,-330.762"/>
</g>
<!-- 73 -->
<g id="node62" class="node"><title>73</title>
<ellipse fill="none" stroke="black" cx="1092.15" cy="-306" rx="27" ry="18"/>
<text text-anchor="middle" x="1092.15" y="-302.3" font-family="Times,serif" font-size="14.00">2</text>
</g>
<!-- 71&#45;&gt;73 -->
<g id="edge72" class="edge"><title>71&#45;&gt;73</title>
<path fill="none" stroke="black" d="M1064.68,-360.411C1068.98,-352.042 1074.3,-341.71 1079.1,-332.37"/>
<polygon fill="black" stroke="black" points="1082.21,-333.964 1083.68,-323.47 1075.99,-330.762 1082.21,-333.964"/>
</g>
<!-- 74 -->
<g id="node63" class="node"><title>74</title>
<ellipse fill="none" stroke="black" cx="1164.15" cy="-378" rx="37.0935" ry="18"/>
<text text-anchor="middle" x="1164.15" y="-374.3" font-family="Times,serif" font-size="14.00">ATRIB</text>
</g>
<!-- 75 -->
<g id="node64" class="node"><title>75</title>
<ellipse fill="none" stroke="black" cx="1164.15" cy="-306" rx="27" ry="18"/>
<text text-anchor="middle" x="1164.15" y="-302.3" font-family="Times,serif" font-size="14.00">num</text>
</g>
<!-- 74&#45;&gt;75 -->
<g id="edge74" class="edge"><title>74&#45;&gt;75</title>
<path fill="none" stroke="black" d="M1164.15,-359.697C1164.15,-351.983 1164.15,-342.712 1164.15,-334.112"/>
<polygon fill="black" stroke="black" points="1167.65,-334.104 1164.15,-324.104 1160.65,-334.104 1167.65,-334.104"/>
</g>
<!-- 76 -->
<g id="node65" class="node"><title>76</title>
<ellipse fill="none" stroke="black" cx="1236.15" cy="-306" rx="27" ry="18"/>
<text text-anchor="middle" x="1236.15" y="-302.3" font-family="Times,serif" font-size="14.00">53</text>
</g>
<!-- 74&#45;&gt;76 -->
<g id="edge75" class="edge"><title>74&#45;&gt;76</title>
<path fill="none" stroke="black" d="M1180.13,-361.465C1190.09,-351.778 1203.05,-339.174 1214,-328.531"/>
<polygon fill="black" stroke="black" points="1216.46,-331.016 1221.19,-321.536 1211.58,-325.997 1216.46,-331.016"/>
</g>
<!-- 3&#45;&gt;4 -->
<g id="edge3" class="edge"><title>3&#45;&gt;4</title>
<path fill="none" stroke="black" d="M139.147,-725.125C122.477,-714.707 97.8907,-699.34 78.1835,-687.024"/>
<polygon fill="black" stroke="black" points="79.8533,-683.94 69.5182,-681.608 76.1432,-689.876 79.8533,-683.94"/>
</g>
<!-- 3&#45;&gt;6 -->
<g id="edge5" class="edge"><title>3&#45;&gt;6</title>
<path fill="none" stroke="black" d="M158.146,-719.697C158.146,-711.983 158.146,-702.712 158.146,-694.112"/>
<polygon fill="black" stroke="black" points="161.646,-694.104 158.146,-684.104 154.646,-694.104 161.646,-694.104"/>
</g>
<!-- 15&#45;&gt;16 -->
<g id="edge15" class="edge"><title>15&#45;&gt;16</title>
<path fill="none" stroke="black" d="M289.146,-791.697C289.146,-783.983 289.146,-774.712 289.146,-766.112"/>
<polygon fill="black" stroke="black" points="292.646,-766.104 289.146,-756.104 285.646,-766.104 292.646,-766.104"/>
</g>
<!-- 18 -->
<g id="node68" class="node"><title>18</title>
<ellipse fill="none" stroke="black" cx="420.146" cy="-738" rx="27" ry="18"/>
<text text-anchor="middle" x="420.146" y="-734.3" font-family="Times,serif" font-size="14.00">18</text>
</g>
<!-- 15&#45;&gt;18 -->
<g id="edge17" class="edge"><title>15&#45;&gt;18</title>
<path fill="none" stroke="black" d="M309.615,-798.062C331.437,-786.402 366.185,-767.834 390.892,-754.632"/>
<polygon fill="black" stroke="black" points="392.651,-757.661 399.821,-749.861 389.352,-751.487 392.651,-757.661"/>
</g>
<!-- 18&#45;&gt;19 -->
<g id="edge18" class="edge"><title>18&#45;&gt;19</title>
<path fill="none" stroke="black" d="M420.146,-719.697C420.146,-711.983 420.146,-702.712 420.146,-694.112"/>
<polygon fill="black" stroke="black" points="423.646,-694.104 420.146,-684.104 416.646,-694.104 423.646,-694.104"/>
</g>
<!-- 27 -->
<g id="node69" class="node"><title>27</title>
<ellipse fill="none" stroke="black" cx="667.146" cy="-666" rx="27" ry="18"/>
<text text-anchor="middle" x="667.146" y="-662.3" font-family="Times,serif" font-size="14.00">27</text>
</g>
<!-- 18&#45;&gt;27 -->
<g id="edge26" class="edge"><title>18&#45;&gt;27</title>
<path fill="none" stroke="black" d="M444.732,-730.032C489.026,-717.479 582.307,-691.043 632.851,-676.719"/>
<polygon fill="black" stroke="black" points="633.992,-680.034 642.659,-673.94 632.084,-673.299 633.992,-680.034"/>
</g>
<!-- 27&#45;&gt;28 -->
<g id="edge27" class="edge"><title>27&#45;&gt;28</title>
<path fill="none" stroke="black" d="M667.146,-647.697C667.146,-639.983 667.146,-630.712 667.146,-622.112"/>
<polygon fill="black" stroke="black" points="670.646,-622.104 667.146,-612.104 663.646,-622.104 670.646,-622.104"/>
</g>
<!-- 30 -->
<g id="node70" class="node"><title>30</title>
<ellipse fill="none" stroke="black" cx="752.146" cy="-594" rx="27" ry="18"/>
<text text-anchor="middle" x="752.146" y="-590.3" font-family="Times,serif" font-size="14.00">30</text>
</g>
<!-- 27&#45;&gt;30 -->
<g id="edge29" class="edge"><title>27&#45;&gt;30</title>
<path fill="none" stroke="black" d="M683.535,-651.503C696.117,-641.142 713.684,-626.674 727.893,-614.973"/>
<polygon fill="black" stroke="black" points="730.313,-617.514 735.807,-608.455 725.863,-612.111 730.313,-617.514"/>
</g>
<!-- 30&#45;&gt;31 -->
<g id="edge30" class="edge"><title>30&#45;&gt;31</title>
<path fill="none" stroke="black" d="M752.146,-575.697C752.146,-567.983 752.146,-558.712 752.146,-550.112"/>
<polygon fill="black" stroke="black" points="755.646,-550.104 752.146,-540.104 748.646,-550.104 755.646,-550.104"/>
</g>
<!-- 66 -->
<g id="node75" class="node"><title>66</title>
<ellipse fill="none" stroke="black" cx="966.146" cy="-522" rx="27" ry="18"/>
<text text-anchor="middle" x="966.146" y="-518.3" font-family="Times,serif" font-size="14.00">66</text>
</g>
<!-- 30&#45;&gt;66 -->
<g id="edge65" class="edge"><title>30&#45;&gt;66</title>
<path fill="none" stroke="black" d="M775.865,-585.241C814.028,-572.758 889.179,-548.176 932.747,-533.925"/>
<polygon fill="black" stroke="black" points="933.904,-537.229 942.32,-530.793 931.728,-530.576 933.904,-537.229"/>
</g>
<!-- 35&#45;&gt;36 -->
<g id="edge35" class="edge"><title>35&#45;&gt;36</title>
<path fill="none" stroke="black" d="M742.637,-432.765C737.689,-424.317 731.528,-413.799 725.972,-404.312"/>
<polygon fill="black" stroke="black" points="728.963,-402.493 720.888,-395.633 722.922,-406.031 728.963,-402.493"/>
</g>
<!-- 41 -->
<g id="node72" class="node"><title>41</title>
<ellipse fill="none" stroke="black" cx="801.146" cy="-378" rx="27" ry="18"/>
<text text-anchor="middle" x="801.146" y="-374.3" font-family="Times,serif" font-size="14.00">41</text>
</g>
<!-- 35&#45;&gt;41 -->
<g id="edge40" class="edge"><title>35&#45;&gt;41</title>
<path fill="none" stroke="black" d="M763.021,-433.465C769.301,-424.493 777.333,-413.019 784.404,-402.918"/>
<polygon fill="black" stroke="black" points="787.434,-404.691 790.302,-394.492 781.7,-400.677 787.434,-404.691"/>
</g>
<!-- 41&#45;&gt;42 -->
<g id="edge41" class="edge"><title>41&#45;&gt;42</title>
<path fill="none" stroke="black" d="M801.146,-359.697C801.146,-351.983 801.146,-342.712 801.146,-334.112"/>
<polygon fill="black" stroke="black" points="804.646,-334.104 801.146,-324.104 797.646,-334.104 804.646,-334.104"/>
</g>
<!-- 53 -->
<g id="node74" class="node"><title>53</title>
<ellipse fill="none" stroke="black" cx="948.146" cy="-306" rx="27" ry="18"/>
<text text-anchor="middle" x="948.146" y="-302.3" font-family="Times,serif" font-size="14.00">53</text>
</g>
<!-- 41&#45;&gt;53 -->
<g id="edge52" class="edge"><title>41&#45;&gt;53</title>
<path fill="none" stroke="black" d="M822.521,-366.821C847.561,-354.898 889.229,-335.056 917.656,-321.519"/>
<polygon fill="black" stroke="black" points="919.221,-324.65 926.745,-317.191 916.212,-318.33 919.221,-324.65"/>
</g>
<!-- 46&#45;&gt;47 -->
<g id="edge46" class="edge"><title>46&#45;&gt;47</title>
<path fill="none" stroke="black" d="M794.642,-218.496C785.141,-208.995 772.529,-196.383 761.729,-185.583"/>
<polygon fill="black" stroke="black" points="764.148,-183.053 754.602,-178.457 759.199,-188.003 764.148,-183.053"/>
</g>
<!-- 46&#45;&gt;50 -->
<g id="edge49" class="edge"><title>46&#45;&gt;50</title>
<path fill="none" stroke="black" d="M814.471,-216.055C816.921,-208.261 819.888,-198.822 822.635,-190.079"/>
<polygon fill="black" stroke="black" points="826.057,-190.865 825.717,-180.275 819.379,-188.766 826.057,-190.865"/>
</g>
<!-- 53&#45;&gt;54 -->
<g id="edge53" class="edge"><title>53&#45;&gt;54</title>
<path fill="none" stroke="black" d="M950.123,-287.697C951.005,-279.983 952.064,-270.712 953.047,-262.112"/>
<polygon fill="black" stroke="black" points="956.533,-262.437 954.191,-252.104 949.578,-261.642 956.533,-262.437"/>
</g>
<!-- 53&#45;&gt;63 -->
<g id="edge62" class="edge"><title>53&#45;&gt;63</title>
<path fill="none" stroke="black" d="M969.34,-294.65C974.174,-292.385 979.311,-290.053 984.146,-288 1017.96,-273.644 1057.11,-258.985 1085.39,-248.733"/>
<polygon fill="black" stroke="black" points="1086.7,-251.983 1094.92,-245.299 1084.33,-245.398 1086.7,-251.983"/>
</g>
<!-- 66&#45;&gt;67 -->
<g id="edge66" class="edge"><title>66&#45;&gt;67</title>
<path fill="none" stroke="black" d="M966.146,-503.697C966.146,-495.983 966.146,-486.712 966.146,-478.112"/>
<polygon fill="black" stroke="black" points="969.646,-478.104 966.146,-468.104 962.646,-478.104 969.646,-478.104"/>
</g>
<!-- 70 -->
<g id="node76" class="node"><title>70</title>
<ellipse fill="none" stroke="black" cx="1056.15" cy="-450" rx="27" ry="18"/>
<text text-anchor="middle" x="1056.15" y="-446.3" font-family="Times,serif" font-size="14.00">70</text>
</g>
<!-- 66&#45;&gt;70 -->
<g id="edge69" class="edge"><title>66&#45;&gt;70</title>
<path fill="none" stroke="black" d="M983.074,-507.834C996.651,-497.274 1015.9,-482.3 1031.24,-470.373"/>
<polygon fill="black" stroke="black" points="1033.55,-473.01 1039.29,-464.107 1029.25,-467.484 1033.55,-473.01"/>
</g>
<!-- 70&#45;&gt;71 -->
<g id="edge70" class="edge"><title>70&#45;&gt;71</title>
<path fill="none" stroke="black" d="M1056.15,-431.697C1056.15,-423.983 1056.15,-414.712 1056.15,-406.112"/>
<polygon fill="black" stroke="black" points="1059.65,-406.104 1056.15,-396.104 1052.65,-406.104 1059.65,-406.104"/>
</g>
<!-- 70&#45;&gt;74 -->
<g id="edge73" class="edge"><title>70&#45;&gt;74</title>
<path fill="none" stroke="black" d="M1074.96,-436.807C1091.24,-426.257 1115.07,-410.809 1134,-398.536"/>
<polygon fill="black" stroke="black" points="1136.09,-401.352 1142.58,-392.976 1132.29,-395.478 1136.09,-401.352"/>
</g>
</g>
</svg>
