<?xml version="1.0" encoding="UTF-8" standalone="no"?>
<!DOCTYPE svg PUBLIC "-//W3C//DTD SVG 1.1//EN"
 "http://www.w3.org/Graphics/SVG/1.1/DTD/svg11.dtd">
<!-- Generated by graphviz version 2.38.0 (20140413.2041)
 -->
<!-- Title: G Pages: 1 -->
<svg width="1639pt" height="908pt"
 viewBox="0.00 0.00 1638.64 908.00" xmlns="http://www.w3.org/2000/svg" xmlns:xlink="http://www.w3.org/1999/xlink">
<g id="graph0" class="graph" transform="scale(1 1) rotate(0) translate(4 904)">
<title>G</title>
<polygon fill="white" stroke="none" points="-4,4 -4,-904 1634.64,-904 1634.64,4 -4,4"/>
<!-- 1 -->
<g id="node1" class="node"><title>1</title>
<ellipse fill="none" stroke="black" cx="404.644" cy="-882" rx="31.3957" ry="18"/>
<text text-anchor="middle" x="404.644" y="-878.3" font-family="Times,serif" font-size="14.00">RAIZ</text>
</g>
<!-- 2 -->
<g id="node2" class="node"><title>2</title>
<ellipse fill="none" stroke="black" cx="305.644" cy="-810" rx="34.394" ry="18"/>
<text text-anchor="middle" x="305.644" y="-806.3" font-family="Times,serif" font-size="14.00">FUNC</text>
</g>
<!-- 1&#45;&gt;2 -->
<g id="edge1" class="edge"><title>1&#45;&gt;2</title>
<path fill="none" stroke="black" d="M385.556,-867.503C370.819,-857.083 350.21,-842.511 333.613,-830.776"/>
<polygon fill="black" stroke="black" points="335.537,-827.85 325.351,-824.934 331.496,-833.566 335.537,-827.85"/>
</g>
<!-- 19 -->
<g id="node80" class="node"><title>19</title>
<ellipse fill="none" stroke="black" cx="504.644" cy="-810" rx="27" ry="18"/>
<text text-anchor="middle" x="504.644" y="-806.3" font-family="Times,serif" font-size="14.00">19</text>
</g>
<!-- 1&#45;&gt;19 -->
<g id="edge18" class="edge"><title>1&#45;&gt;19</title>
<path fill="none" stroke="black" d="M423.925,-867.503C439.391,-856.677 461.259,-841.37 478.334,-829.417"/>
<polygon fill="black" stroke="black" points="480.581,-832.117 486.766,-823.515 476.567,-826.382 480.581,-832.117"/>
</g>
<!-- 3 -->
<g id="node79" class="node"><title>3</title>
<ellipse fill="none" stroke="black" cx="184.644" cy="-738" rx="27" ry="18"/>
<text text-anchor="middle" x="184.644" y="-734.3" font-family="Times,serif" font-size="14.00">3</text>
</g>
<!-- 2&#45;&gt;3 -->
<g id="edge2" class="edge"><title>2&#45;&gt;3</title>
<path fill="none" stroke="black" d="M283.451,-796.161C263.631,-784.695 234.494,-767.839 212.993,-755.4"/>
<polygon fill="black" stroke="black" points="214.704,-752.346 204.295,-750.368 211.198,-758.406 214.704,-752.346"/>
</g>
<!-- 4 -->
<g id="node3" class="node"><title>4</title>
<ellipse fill="none" stroke="black" cx="63.6442" cy="-666" rx="46.2923" ry="18"/>
<text text-anchor="middle" x="63.6442" y="-662.3" font-family="Times,serif" font-size="14.00">RETURN</text>
</g>
<!-- 5 -->
<g id="node4" class="node"><title>5</title>
<ellipse fill="none" stroke="black" cx="42.6442" cy="-594" rx="27" ry="18"/>
<text text-anchor="middle" x="42.6442" y="-590.3" font-family="Times,serif" font-size="14.00">3</text>
</g>
<!-- 4&#45;&gt;5 -->
<g id="edge4" class="edge"><title>4&#45;&gt;5</title>
<path fill="none" stroke="black" d="M58.5607,-648.055C56.1618,-640.059 53.2434,-630.331 50.564,-621.4"/>
<polygon fill="black" stroke="black" points="53.9068,-620.362 47.6809,-611.789 47.202,-622.373 53.9068,-620.362"/>
</g>
<!-- 6 -->
<g id="node5" class="node"><title>6</title>
<ellipse fill="none" stroke="black" cx="184.644" cy="-666" rx="37.0935" ry="18"/>
<text text-anchor="middle" x="184.644" y="-662.3" font-family="Times,serif" font-size="14.00">ATRIB</text>
</g>
<!-- 7 -->
<g id="node6" class="node"><title>7</title>
<ellipse fill="none" stroke="black" cx="114.644" cy="-594" rx="27" ry="18"/>
<text text-anchor="middle" x="114.644" y="-590.3" font-family="Times,serif" font-size="14.00">3</text>
</g>
<!-- 6&#45;&gt;7 -->
<g id="edge6" class="edge"><title>6&#45;&gt;7</title>
<path fill="none" stroke="black" d="M169.109,-649.465C159.515,-639.871 147.06,-627.416 136.483,-616.839"/>
<polygon fill="black" stroke="black" points="138.726,-614.132 129.18,-609.536 133.776,-619.082 138.726,-614.132"/>
</g>
<!-- 8 -->
<g id="node7" class="node"><title>8</title>
<ellipse fill="none" stroke="black" cx="225.644" cy="-594" rx="65.7887" ry="18"/>
<text text-anchor="middle" x="225.644" y="-590.3" font-family="Times,serif" font-size="14.00">FLOATTOINT</text>
</g>
<!-- 6&#45;&gt;8 -->
<g id="edge7" class="edge"><title>6&#45;&gt;8</title>
<path fill="none" stroke="black" d="M194.361,-648.411C199.191,-640.163 205.139,-630.009 210.547,-620.777"/>
<polygon fill="black" stroke="black" points="213.679,-622.354 215.713,-611.956 207.639,-618.816 213.679,-622.354"/>
</g>
<!-- 9 -->
<g id="node8" class="node"><title>9</title>
<ellipse fill="none" stroke="black" cx="225.644" cy="-522" rx="27.8951" ry="18"/>
<text text-anchor="middle" x="225.644" y="-518.3" font-family="Times,serif" font-size="14.00">SUB</text>
</g>
<!-- 8&#45;&gt;9 -->
<g id="edge8" class="edge"><title>8&#45;&gt;9</title>
<path fill="none" stroke="black" d="M225.644,-575.697C225.644,-567.983 225.644,-558.712 225.644,-550.112"/>
<polygon fill="black" stroke="black" points="229.144,-550.104 225.644,-540.104 222.144,-550.104 229.144,-550.104"/>
</g>
<!-- 10 -->
<g id="node9" class="node"><title>10</title>
<ellipse fill="none" stroke="black" cx="168.644" cy="-450" rx="29.795" ry="18"/>
<text text-anchor="middle" x="168.644" y="-446.3" font-family="Times,serif" font-size="14.00">ADD</text>
</g>
<!-- 9&#45;&gt;10 -->
<g id="edge9" class="edge"><title>9&#45;&gt;10</title>
<path fill="none" stroke="black" d="M213.276,-505.811C205.835,-496.673 196.207,-484.849 187.799,-474.524"/>
<polygon fill="black" stroke="black" points="190.411,-472.188 181.383,-466.644 184.983,-476.608 190.411,-472.188"/>
</g>
<!-- 17 -->
<g id="node16" class="node"><title>17</title>
<ellipse fill="none" stroke="black" cx="282.644" cy="-450" rx="65.7887" ry="18"/>
<text text-anchor="middle" x="282.644" y="-446.3" font-family="Times,serif" font-size="14.00">INTTOFLOAT</text>
</g>
<!-- 9&#45;&gt;17 -->
<g id="edge16" class="edge"><title>9&#45;&gt;17</title>
<path fill="none" stroke="black" d="M238.012,-505.811C245.246,-496.927 254.548,-485.504 262.786,-475.388"/>
<polygon fill="black" stroke="black" points="265.504,-477.592 269.104,-467.628 260.076,-473.172 265.504,-477.592"/>
</g>
<!-- 11 -->
<g id="node10" class="node"><title>11</title>
<ellipse fill="none" stroke="black" cx="65.6442" cy="-378" rx="65.7887" ry="18"/>
<text text-anchor="middle" x="65.6442" y="-374.3" font-family="Times,serif" font-size="14.00">INTTOFLOAT</text>
</g>
<!-- 10&#45;&gt;11 -->
<g id="edge10" class="edge"><title>10&#45;&gt;11</title>
<path fill="none" stroke="black" d="M149.271,-435.834C134.78,-425.986 114.64,-412.298 97.7559,-400.824"/>
<polygon fill="black" stroke="black" points="99.5085,-397.783 89.2704,-395.057 95.5739,-403.572 99.5085,-397.783"/>
</g>
<!-- 13 -->
<g id="node12" class="node"><title>13</title>
<ellipse fill="none" stroke="black" cx="185.644" cy="-378" rx="36.2938" ry="18"/>
<text text-anchor="middle" x="185.644" y="-374.3" font-family="Times,serif" font-size="14.00">MULT</text>
</g>
<!-- 10&#45;&gt;13 -->
<g id="edge12" class="edge"><title>10&#45;&gt;13</title>
<path fill="none" stroke="black" d="M172.759,-432.055C174.652,-424.261 176.945,-414.822 179.068,-406.079"/>
<polygon fill="black" stroke="black" points="182.49,-406.819 181.449,-396.275 175.688,-405.167 182.49,-406.819"/>
</g>
<!-- 12 -->
<g id="node11" class="node"><title>12</title>
<ellipse fill="none" stroke="black" cx="65.6442" cy="-306" rx="27" ry="18"/>
<text text-anchor="middle" x="65.6442" y="-302.3" font-family="Times,serif" font-size="14.00">1</text>
</g>
<!-- 11&#45;&gt;12 -->
<g id="edge11" class="edge"><title>11&#45;&gt;12</title>
<path fill="none" stroke="black" d="M65.6442,-359.697C65.6442,-351.983 65.6442,-342.712 65.6442,-334.112"/>
<polygon fill="black" stroke="black" points="69.1443,-334.104 65.6442,-324.104 62.1443,-334.104 69.1443,-334.104"/>
</g>
<!-- 14 -->
<g id="node13" class="node"><title>14</title>
<ellipse fill="none" stroke="black" cx="161.644" cy="-306" rx="27" ry="18"/>
<text text-anchor="middle" x="161.644" y="-302.3" font-family="Times,serif" font-size="14.00">1</text>
</g>
<!-- 13&#45;&gt;14 -->
<g id="edge13" class="edge"><title>13&#45;&gt;14</title>
<path fill="none" stroke="black" d="M179.834,-360.055C177.093,-352.059 173.758,-342.331 170.695,-333.4"/>
<polygon fill="black" stroke="black" points="173.955,-332.113 167.4,-323.789 167.333,-334.384 173.955,-332.113"/>
</g>
<!-- 15 -->
<g id="node14" class="node"><title>15</title>
<ellipse fill="none" stroke="black" cx="272.644" cy="-306" rx="65.7887" ry="18"/>
<text text-anchor="middle" x="272.644" y="-302.3" font-family="Times,serif" font-size="14.00">INTTOFLOAT</text>
</g>
<!-- 13&#45;&gt;15 -->
<g id="edge14" class="edge"><title>13&#45;&gt;15</title>
<path fill="none" stroke="black" d="M204.095,-362.155C215.826,-352.716 231.243,-340.311 244.486,-329.656"/>
<polygon fill="black" stroke="black" points="246.8,-332.286 252.397,-323.29 242.412,-326.832 246.8,-332.286"/>
</g>
<!-- 16 -->
<g id="node15" class="node"><title>16</title>
<ellipse fill="none" stroke="black" cx="272.644" cy="-234" rx="27" ry="18"/>
<text text-anchor="middle" x="272.644" y="-230.3" font-family="Times,serif" font-size="14.00">2</text>
</g>
<!-- 15&#45;&gt;16 -->
<g id="edge15" class="edge"><title>15&#45;&gt;16</title>
<path fill="none" stroke="black" d="M272.644,-287.697C272.644,-279.983 272.644,-270.712 272.644,-262.112"/>
<polygon fill="black" stroke="black" points="276.144,-262.104 272.644,-252.104 269.144,-262.104 276.144,-262.104"/>
</g>
<!-- 18 -->
<g id="node17" class="node"><title>18</title>
<ellipse fill="none" stroke="black" cx="282.644" cy="-378" rx="27" ry="18"/>
<text text-anchor="middle" x="282.644" y="-374.3" font-family="Times,serif" font-size="14.00">0</text>
</g>
<!-- 17&#45;&gt;18 -->
<g id="edge17" class="edge"><title>17&#45;&gt;18</title>
<path fill="none" stroke="black" d="M282.644,-431.697C282.644,-423.983 282.644,-414.712 282.644,-406.112"/>
<polygon fill="black" stroke="black" points="286.144,-406.104 282.644,-396.104 279.144,-406.104 286.144,-406.104"/>
</g>
<!-- 20 -->
<g id="node18" class="node"><title>20</title>
<ellipse fill="none" stroke="black" cx="504.644" cy="-738" rx="27" ry="18"/>
<text text-anchor="middle" x="504.644" y="-734.3" font-family="Times,serif" font-size="14.00">IF</text>
</g>
<!-- 21 -->
<g id="node19" class="node"><title>21</title>
<ellipse fill="none" stroke="black" cx="408.644" cy="-666" rx="27" ry="18"/>
<text text-anchor="middle" x="408.644" y="-662.3" font-family="Times,serif" font-size="14.00">==</text>
</g>
<!-- 20&#45;&gt;21 -->
<g id="edge20" class="edge"><title>20&#45;&gt;21</title>
<path fill="none" stroke="black" d="M487.036,-724.161C472.286,-713.405 451.031,-697.907 434.373,-685.761"/>
<polygon fill="black" stroke="black" points="436.283,-682.821 426.14,-679.758 432.158,-688.477 436.283,-682.821"/>
</g>
<!-- 24 -->
<g id="node22" class="node"><title>24</title>
<ellipse fill="none" stroke="black" cx="504.644" cy="-666" rx="36.2938" ry="18"/>
<text text-anchor="middle" x="504.644" y="-662.3" font-family="Times,serif" font-size="14.00">PRINT</text>
</g>
<!-- 20&#45;&gt;24 -->
<g id="edge23" class="edge"><title>20&#45;&gt;24</title>
<path fill="none" stroke="black" d="M504.644,-719.697C504.644,-711.983 504.644,-702.712 504.644,-694.112"/>
<polygon fill="black" stroke="black" points="508.144,-694.104 504.644,-684.104 501.144,-694.104 508.144,-694.104"/>
</g>
<!-- 26 -->
<g id="node24" class="node"><title>26</title>
<ellipse fill="none" stroke="black" cx="618.644" cy="-666" rx="36.2938" ry="18"/>
<text text-anchor="middle" x="618.644" y="-662.3" font-family="Times,serif" font-size="14.00">PRINT</text>
</g>
<!-- 20&#45;&gt;26 -->
<g id="edge25" class="edge"><title>20&#45;&gt;26</title>
<path fill="none" stroke="black" d="M523.983,-725.125C541.469,-714.388 567.514,-698.396 587.861,-685.902"/>
<polygon fill="black" stroke="black" points="589.783,-688.829 596.474,-680.613 586.12,-682.864 589.783,-688.829"/>
</g>
<!-- 22 -->
<g id="node20" class="node"><title>22</title>
<ellipse fill="none" stroke="black" cx="336.644" cy="-594" rx="27" ry="18"/>
<text text-anchor="middle" x="336.644" y="-590.3" font-family="Times,serif" font-size="14.00">f</text>
</g>
<!-- 21&#45;&gt;22 -->
<g id="edge21" class="edge"><title>21&#45;&gt;22</title>
<path fill="none" stroke="black" d="M394.074,-650.834C383.894,-640.938 370.12,-627.546 358.614,-616.359"/>
<polygon fill="black" stroke="black" points="361.05,-613.846 351.44,-609.385 356.17,-618.865 361.05,-613.846"/>
</g>
<!-- 23 -->
<g id="node21" class="node"><title>23</title>
<ellipse fill="none" stroke="black" cx="408.644" cy="-594" rx="27" ry="18"/>
<text text-anchor="middle" x="408.644" y="-590.3" font-family="Times,serif" font-size="14.00">1</text>
</g>
<!-- 21&#45;&gt;23 -->
<g id="edge22" class="edge"><title>21&#45;&gt;23</title>
<path fill="none" stroke="black" d="M408.644,-647.697C408.644,-639.983 408.644,-630.712 408.644,-622.112"/>
<polygon fill="black" stroke="black" points="412.144,-622.104 408.644,-612.104 405.144,-622.104 412.144,-622.104"/>
</g>
<!-- 25 -->
<g id="node23" class="node"><title>25</title>
<ellipse fill="none" stroke="black" cx="504.644" cy="-594" rx="51.1914" ry="18"/>
<text text-anchor="middle" x="504.644" y="-590.3" font-family="Times,serif" font-size="14.00"> eh primo!!</text>
</g>
<!-- 24&#45;&gt;25 -->
<g id="edge24" class="edge"><title>24&#45;&gt;25</title>
<path fill="none" stroke="black" d="M504.644,-647.697C504.644,-639.983 504.644,-630.712 504.644,-622.112"/>
<polygon fill="black" stroke="black" points="508.144,-622.104 504.644,-612.104 501.144,-622.104 508.144,-622.104"/>
</g>
<!-- 27 -->
<g id="node25" class="node"><title>27</title>
<ellipse fill="none" stroke="black" cx="640.644" cy="-594" rx="66.0889" ry="18"/>
<text text-anchor="middle" x="640.644" y="-590.3" font-family="Times,serif" font-size="14.00"> nao eh primo!!</text>
</g>
<!-- 26&#45;&gt;27 -->
<g id="edge26" class="edge"><title>26&#45;&gt;27</title>
<path fill="none" stroke="black" d="M623.97,-648.055C626.419,-640.261 629.386,-630.822 632.134,-622.079"/>
<polygon fill="black" stroke="black" points="635.555,-622.865 635.215,-612.275 628.877,-620.766 635.555,-622.865"/>
</g>
<!-- 29 -->
<g id="node26" class="node"><title>29</title>
<ellipse fill="none" stroke="black" cx="751.644" cy="-666" rx="36.2938" ry="18"/>
<text text-anchor="middle" x="751.644" y="-662.3" font-family="Times,serif" font-size="14.00">PRINT</text>
</g>
<!-- 30 -->
<g id="node27" class="node"><title>30</title>
<ellipse fill="none" stroke="black" cx="751.644" cy="-594" rx="27" ry="18"/>
<text text-anchor="middle" x="751.644" y="-590.3" font-family="Times,serif" font-size="14.00">num</text>
</g>
<!-- 29&#45;&gt;30 -->
<g id="edge29" class="edge"><title>29&#45;&gt;30</title>
<path fill="none" stroke="black" d="M751.644,-647.697C751.644,-639.983 751.644,-630.712 751.644,-622.112"/>
<polygon fill="black" stroke="black" points="755.144,-622.104 751.644,-612.104 748.144,-622.104 755.144,-622.104"/>
</g>
<!-- 32 -->
<g id="node28" class="node"><title>32</title>
<ellipse fill="none" stroke="black" cx="836.644" cy="-594" rx="39.7935" ry="18"/>
<text text-anchor="middle" x="836.644" y="-590.3" font-family="Times,serif" font-size="14.00">WHILE</text>
</g>
<!-- 33 -->
<g id="node29" class="node"><title>33</title>
<ellipse fill="none" stroke="black" cx="662.644" cy="-522" rx="27" ry="18"/>
<text text-anchor="middle" x="662.644" y="-518.3" font-family="Times,serif" font-size="14.00">&lt;</text>
</g>
<!-- 32&#45;&gt;33 -->
<g id="edge32" class="edge"><title>32&#45;&gt;33</title>
<path fill="none" stroke="black" d="M807.912,-581.441C776.77,-568.913 727.195,-548.969 694.782,-535.929"/>
<polygon fill="black" stroke="black" points="695.897,-532.605 685.314,-532.12 693.285,-539.099 695.897,-532.605"/>
</g>
<!-- 36 -->
<g id="node83" class="node"><title>36</title>
<ellipse fill="none" stroke="black" cx="836.644" cy="-522" rx="27" ry="18"/>
<text text-anchor="middle" x="836.644" y="-518.3" font-family="Times,serif" font-size="14.00">36</text>
</g>
<!-- 32&#45;&gt;36 -->
<g id="edge35" class="edge"><title>32&#45;&gt;36</title>
<path fill="none" stroke="black" d="M836.644,-575.697C836.644,-567.983 836.644,-558.712 836.644,-550.112"/>
<polygon fill="black" stroke="black" points="840.144,-550.104 836.644,-540.104 833.144,-550.104 840.144,-550.104"/>
</g>
<!-- 34 -->
<g id="node30" class="node"><title>34</title>
<ellipse fill="none" stroke="black" cx="590.644" cy="-450" rx="27" ry="18"/>
<text text-anchor="middle" x="590.644" y="-446.3" font-family="Times,serif" font-size="14.00">i</text>
</g>
<!-- 33&#45;&gt;34 -->
<g id="edge33" class="edge"><title>33&#45;&gt;34</title>
<path fill="none" stroke="black" d="M648.074,-506.834C637.894,-496.938 624.12,-483.546 612.614,-472.359"/>
<polygon fill="black" stroke="black" points="615.05,-469.846 605.44,-465.385 610.17,-474.865 615.05,-469.846"/>
</g>
<!-- 35 -->
<g id="node31" class="node"><title>35</title>
<ellipse fill="none" stroke="black" cx="662.644" cy="-450" rx="27" ry="18"/>
<text text-anchor="middle" x="662.644" y="-446.3" font-family="Times,serif" font-size="14.00">num</text>
</g>
<!-- 33&#45;&gt;35 -->
<g id="edge34" class="edge"><title>33&#45;&gt;35</title>
<path fill="none" stroke="black" d="M662.644,-503.697C662.644,-495.983 662.644,-486.712 662.644,-478.112"/>
<polygon fill="black" stroke="black" points="666.144,-478.104 662.644,-468.104 659.144,-478.104 666.144,-478.104"/>
</g>
<!-- 37 -->
<g id="node32" class="node"><title>37</title>
<ellipse fill="none" stroke="black" cx="744.644" cy="-450" rx="37.0935" ry="18"/>
<text text-anchor="middle" x="744.644" y="-446.3" font-family="Times,serif" font-size="14.00">ATRIB</text>
</g>
<!-- 38 -->
<g id="node33" class="node"><title>38</title>
<ellipse fill="none" stroke="black" cx="661.644" cy="-378" rx="27" ry="18"/>
<text text-anchor="middle" x="661.644" y="-374.3" font-family="Times,serif" font-size="14.00">i</text>
</g>
<!-- 37&#45;&gt;38 -->
<g id="edge37" class="edge"><title>37&#45;&gt;38</title>
<path fill="none" stroke="black" d="M727.042,-434.155C714.983,-423.985 698.841,-410.371 685.612,-399.214"/>
<polygon fill="black" stroke="black" points="687.714,-396.408 677.814,-392.637 683.201,-401.759 687.714,-396.408"/>
</g>
<!-- 39 -->
<g id="node34" class="node"><title>39</title>
<ellipse fill="none" stroke="black" cx="736.644" cy="-378" rx="29.795" ry="18"/>
<text text-anchor="middle" x="736.644" y="-374.3" font-family="Times,serif" font-size="14.00">ADD</text>
</g>
<!-- 37&#45;&gt;39 -->
<g id="edge38" class="edge"><title>37&#45;&gt;39</title>
<path fill="none" stroke="black" d="M742.667,-431.697C741.785,-423.983 740.726,-414.712 739.743,-406.112"/>
<polygon fill="black" stroke="black" points="743.212,-405.642 738.599,-396.104 736.257,-406.437 743.212,-405.642"/>
</g>
<!-- 40 -->
<g id="node35" class="node"><title>40</title>
<ellipse fill="none" stroke="black" cx="633.644" cy="-306" rx="27" ry="18"/>
<text text-anchor="middle" x="633.644" y="-302.3" font-family="Times,serif" font-size="14.00">i</text>
</g>
<!-- 39&#45;&gt;40 -->
<g id="edge39" class="edge"><title>39&#45;&gt;40</title>
<path fill="none" stroke="black" d="M717.271,-363.834C701.145,-352.874 678.022,-337.16 660.177,-325.032"/>
<polygon fill="black" stroke="black" points="662.132,-322.129 651.894,-319.402 658.197,-327.918 662.132,-322.129"/>
</g>
<!-- 41 -->
<g id="node36" class="node"><title>41</title>
<ellipse fill="none" stroke="black" cx="705.644" cy="-306" rx="27" ry="18"/>
<text text-anchor="middle" x="705.644" y="-302.3" font-family="Times,serif" font-size="14.00">1</text>
</g>
<!-- 39&#45;&gt;41 -->
<g id="edge40" class="edge"><title>39&#45;&gt;41</title>
<path fill="none" stroke="black" d="M729.298,-360.411C725.63,-352.129 721.111,-341.925 717.009,-332.662"/>
<polygon fill="black" stroke="black" points="720.188,-331.196 712.938,-323.47 713.787,-334.031 720.188,-331.196"/>
</g>
<!-- 43 -->
<g id="node37" class="node"><title>43</title>
<ellipse fill="none" stroke="black" cx="841.644" cy="-378" rx="27" ry="18"/>
<text text-anchor="middle" x="841.644" y="-374.3" font-family="Times,serif" font-size="14.00">IF</text>
</g>
<!-- 44 -->
<g id="node38" class="node"><title>44</title>
<ellipse fill="none" stroke="black" cx="777.644" cy="-306" rx="27" ry="18"/>
<text text-anchor="middle" x="777.644" y="-302.3" font-family="Times,serif" font-size="14.00">==</text>
</g>
<!-- 43&#45;&gt;44 -->
<g id="edge43" class="edge"><title>43&#45;&gt;44</title>
<path fill="none" stroke="black" d="M828.071,-362.155C819.332,-352.596 807.81,-339.994 797.986,-329.249"/>
<polygon fill="black" stroke="black" points="800.528,-326.842 791.197,-321.824 795.362,-331.566 800.528,-326.842"/>
</g>
<!-- 47 -->
<g id="node85" class="node"><title>47</title>
<ellipse fill="none" stroke="black" cx="849.644" cy="-306" rx="27" ry="18"/>
<text text-anchor="middle" x="849.644" y="-302.3" font-family="Times,serif" font-size="14.00">47</text>
</g>
<!-- 43&#45;&gt;47 -->
<g id="edge46" class="edge"><title>43&#45;&gt;47</title>
<path fill="none" stroke="black" d="M843.622,-359.697C844.503,-351.983 845.563,-342.712 846.546,-334.112"/>
<polygon fill="black" stroke="black" points="850.031,-334.437 847.689,-324.104 843.076,-333.642 850.031,-334.437"/>
</g>
<!-- 45 -->
<g id="node39" class="node"><title>45</title>
<ellipse fill="none" stroke="black" cx="620.644" cy="-234" rx="27" ry="18"/>
<text text-anchor="middle" x="620.644" y="-230.3" font-family="Times,serif" font-size="14.00">aux</text>
</g>
<!-- 44&#45;&gt;45 -->
<g id="edge44" class="edge"><title>44&#45;&gt;45</title>
<path fill="none" stroke="black" d="M756.39,-294.789C751.559,-292.517 746.439,-290.146 741.644,-288 704.199,-271.237 694.09,-268.763 656.644,-252 654.846,-251.195 653.002,-250.359 651.145,-249.508"/>
<polygon fill="black" stroke="black" points="652.442,-246.251 641.899,-245.211 649.493,-252.599 652.442,-246.251"/>
</g>
<!-- 46 -->
<g id="node40" class="node"><title>46</title>
<ellipse fill="none" stroke="black" cx="692.644" cy="-234" rx="27" ry="18"/>
<text text-anchor="middle" x="692.644" y="-230.3" font-family="Times,serif" font-size="14.00">num</text>
</g>
<!-- 44&#45;&gt;46 -->
<g id="edge45" class="edge"><title>44&#45;&gt;46</title>
<path fill="none" stroke="black" d="M761.255,-291.503C748.673,-281.142 731.106,-266.674 716.897,-254.973"/>
<polygon fill="black" stroke="black" points="718.927,-252.111 708.983,-248.455 714.477,-257.514 718.927,-252.111"/>
</g>
<!-- 48 -->
<g id="node41" class="node"><title>48</title>
<ellipse fill="none" stroke="black" cx="774.644" cy="-234" rx="37.0935" ry="18"/>
<text text-anchor="middle" x="774.644" y="-230.3" font-family="Times,serif" font-size="14.00">ATRIB</text>
</g>
<!-- 49 -->
<g id="node42" class="node"><title>49</title>
<ellipse fill="none" stroke="black" cx="655.644" cy="-162" rx="27" ry="18"/>
<text text-anchor="middle" x="655.644" y="-158.3" font-family="Times,serif" font-size="14.00">i</text>
</g>
<!-- 48&#45;&gt;49 -->
<g id="edge48" class="edge"><title>48&#45;&gt;49</title>
<path fill="none" stroke="black" d="M751.981,-219.669C732.714,-208.335 704.95,-192.003 684.172,-179.781"/>
<polygon fill="black" stroke="black" points="685.851,-176.708 675.457,-174.655 682.302,-182.742 685.851,-176.708"/>
</g>
<!-- 50 -->
<g id="node43" class="node"><title>50</title>
<ellipse fill="none" stroke="black" cx="727.644" cy="-162" rx="27" ry="18"/>
<text text-anchor="middle" x="727.644" y="-158.3" font-family="Times,serif" font-size="14.00">num</text>
</g>
<!-- 48&#45;&gt;50 -->
<g id="edge49" class="edge"><title>48&#45;&gt;50</title>
<path fill="none" stroke="black" d="M763.743,-216.765C757.847,-207.983 750.448,-196.963 743.886,-187.19"/>
<polygon fill="black" stroke="black" points="746.643,-185.017 738.163,-178.666 740.831,-188.919 746.643,-185.017"/>
</g>
<!-- 51 -->
<g id="node44" class="node"><title>51</title>
<ellipse fill="none" stroke="black" cx="866.644" cy="-234" rx="37.0935" ry="18"/>
<text text-anchor="middle" x="866.644" y="-230.3" font-family="Times,serif" font-size="14.00">ATRIB</text>
</g>
<!-- 52 -->
<g id="node45" class="node"><title>52</title>
<ellipse fill="none" stroke="black" cx="799.644" cy="-162" rx="27" ry="18"/>
<text text-anchor="middle" x="799.644" y="-158.3" font-family="Times,serif" font-size="14.00">f</text>
</g>
<!-- 51&#45;&gt;52 -->
<g id="edge51" class="edge"><title>51&#45;&gt;52</title>
<path fill="none" stroke="black" d="M851.775,-217.465C842.592,-207.871 830.671,-195.416 820.547,-184.839"/>
<polygon fill="black" stroke="black" points="823,-182.34 813.557,-177.536 817.943,-187.18 823,-182.34"/>
</g>
<!-- 53 -->
<g id="node46" class="node"><title>53</title>
<ellipse fill="none" stroke="black" cx="871.644" cy="-162" rx="27" ry="18"/>
<text text-anchor="middle" x="871.644" y="-158.3" font-family="Times,serif" font-size="14.00">0</text>
</g>
<!-- 51&#45;&gt;53 -->
<g id="edge52" class="edge"><title>51&#45;&gt;53</title>
<path fill="none" stroke="black" d="M867.88,-215.697C868.431,-207.983 869.093,-198.712 869.708,-190.112"/>
<polygon fill="black" stroke="black" points="873.201,-190.328 870.422,-180.104 866.219,-189.83 873.201,-190.328"/>
</g>
<!-- 55 -->
<g id="node47" class="node"><title>55</title>
<ellipse fill="none" stroke="black" cx="969.644" cy="-306" rx="39.7935" ry="18"/>
<text text-anchor="middle" x="969.644" y="-302.3" font-family="Times,serif" font-size="14.00">WHILE</text>
</g>
<!-- 56 -->
<g id="node48" class="node"><title>56</title>
<ellipse fill="none" stroke="black" cx="960.644" cy="-234" rx="27" ry="18"/>
<text text-anchor="middle" x="960.644" y="-230.3" font-family="Times,serif" font-size="14.00">&lt;</text>
</g>
<!-- 55&#45;&gt;56 -->
<g id="edge55" class="edge"><title>55&#45;&gt;56</title>
<path fill="none" stroke="black" d="M967.419,-287.697C966.428,-279.983 965.236,-270.712 964.13,-262.112"/>
<polygon fill="black" stroke="black" points="967.59,-261.576 962.843,-252.104 960.647,-262.469 967.59,-261.576"/>
</g>
<!-- 59 -->
<g id="node51" class="node"><title>59</title>
<ellipse fill="none" stroke="black" cx="1042.64" cy="-234" rx="37.0935" ry="18"/>
<text text-anchor="middle" x="1042.64" y="-230.3" font-family="Times,serif" font-size="14.00">ATRIB</text>
</g>
<!-- 55&#45;&gt;59 -->
<g id="edge58" class="edge"><title>55&#45;&gt;59</title>
<path fill="none" stroke="black" d="M985.845,-289.465C995.58,-280.13 1008.14,-268.087 1018.97,-257.7"/>
<polygon fill="black" stroke="black" points="1021.69,-259.939 1026.49,-250.492 1016.85,-254.887 1021.69,-259.939"/>
</g>
<!-- 57 -->
<g id="node49" class="node"><title>57</title>
<ellipse fill="none" stroke="black" cx="943.644" cy="-162" rx="27" ry="18"/>
<text text-anchor="middle" x="943.644" y="-158.3" font-family="Times,serif" font-size="14.00">aux</text>
</g>
<!-- 56&#45;&gt;57 -->
<g id="edge56" class="edge"><title>56&#45;&gt;57</title>
<path fill="none" stroke="black" d="M956.529,-216.055C954.636,-208.261 952.344,-198.822 950.22,-190.079"/>
<polygon fill="black" stroke="black" points="953.601,-189.167 947.84,-180.275 946.799,-190.819 953.601,-189.167"/>
</g>
<!-- 58 -->
<g id="node50" class="node"><title>58</title>
<ellipse fill="none" stroke="black" cx="1015.64" cy="-162" rx="27" ry="18"/>
<text text-anchor="middle" x="1015.64" y="-158.3" font-family="Times,serif" font-size="14.00">num</text>
</g>
<!-- 56&#45;&gt;58 -->
<g id="edge57" class="edge"><title>56&#45;&gt;58</title>
<path fill="none" stroke="black" d="M972.578,-217.811C979.858,-208.546 989.307,-196.52 997.499,-186.094"/>
<polygon fill="black" stroke="black" points="1000.31,-188.185 1003.73,-178.159 994.803,-183.86 1000.31,-188.185"/>
</g>
<!-- 60 -->
<g id="node52" class="node"><title>60</title>
<ellipse fill="none" stroke="black" cx="1087.64" cy="-162" rx="27" ry="18"/>
<text text-anchor="middle" x="1087.64" y="-158.3" font-family="Times,serif" font-size="14.00">aux</text>
</g>
<!-- 59&#45;&gt;60 -->
<g id="edge59" class="edge"><title>59&#45;&gt;60</title>
<path fill="none" stroke="black" d="M1053.31,-216.411C1058.82,-207.832 1065.66,-197.191 1071.79,-187.67"/>
<polygon fill="black" stroke="black" points="1074.9,-189.293 1077.37,-178.988 1069.01,-185.507 1074.9,-189.293"/>
</g>
<!-- 61 -->
<g id="node53" class="node"><title>61</title>
<ellipse fill="none" stroke="black" cx="1162.64" cy="-162" rx="29.795" ry="18"/>
<text text-anchor="middle" x="1162.64" y="-158.3" font-family="Times,serif" font-size="14.00">ADD</text>
</g>
<!-- 59&#45;&gt;61 -->
<g id="edge60" class="edge"><title>59&#45;&gt;61</title>
<path fill="none" stroke="black" d="M1065.5,-219.669C1084.69,-208.473 1112.24,-192.401 1133.11,-180.23"/>
<polygon fill="black" stroke="black" points="1135.01,-183.174 1141.88,-175.112 1131.48,-177.127 1135.01,-183.174"/>
</g>
<!-- 62 -->
<g id="node54" class="node"><title>62</title>
<ellipse fill="none" stroke="black" cx="1105.64" cy="-90" rx="27" ry="18"/>
<text text-anchor="middle" x="1105.64" y="-86.3" font-family="Times,serif" font-size="14.00">aux</text>
</g>
<!-- 61&#45;&gt;62 -->
<g id="edge61" class="edge"><title>61&#45;&gt;62</title>
<path fill="none" stroke="black" d="M1149.99,-145.465C1142.54,-136.311 1132.97,-124.554 1124.62,-114.307"/>
<polygon fill="black" stroke="black" points="1127.29,-112.036 1118.26,-106.492 1121.86,-116.456 1127.29,-112.036"/>
</g>
<!-- 63 -->
<g id="node55" class="node"><title>63</title>
<ellipse fill="none" stroke="black" cx="1177.64" cy="-90" rx="27" ry="18"/>
<text text-anchor="middle" x="1177.64" y="-86.3" font-family="Times,serif" font-size="14.00">i</text>
</g>
<!-- 61&#45;&gt;63 -->
<g id="edge62" class="edge"><title>61&#45;&gt;63</title>
<path fill="none" stroke="black" d="M1166.28,-144.055C1167.95,-136.261 1169.97,-126.822 1171.84,-118.079"/>
<polygon fill="black" stroke="black" points="1175.27,-118.787 1173.94,-108.275 1168.42,-117.32 1175.27,-118.787"/>
</g>
<!-- 64 -->
<g id="node56" class="node"><title>64</title>
<ellipse fill="none" stroke="black" cx="1119.64" cy="-306" rx="37.0935" ry="18"/>
<text text-anchor="middle" x="1119.64" y="-302.3" font-family="Times,serif" font-size="14.00">ATRIB</text>
</g>
<!-- 65 -->
<g id="node57" class="node"><title>65</title>
<ellipse fill="none" stroke="black" cx="1124.64" cy="-234" rx="27" ry="18"/>
<text text-anchor="middle" x="1124.64" y="-230.3" font-family="Times,serif" font-size="14.00">aux</text>
</g>
<!-- 64&#45;&gt;65 -->
<g id="edge64" class="edge"><title>64&#45;&gt;65</title>
<path fill="none" stroke="black" d="M1120.88,-287.697C1121.43,-279.983 1122.09,-270.712 1122.71,-262.112"/>
<polygon fill="black" stroke="black" points="1126.2,-262.328 1123.42,-252.104 1119.22,-261.83 1126.2,-262.328"/>
</g>
<!-- 66 -->
<g id="node58" class="node"><title>66</title>
<ellipse fill="none" stroke="black" cx="1196.64" cy="-234" rx="27" ry="18"/>
<text text-anchor="middle" x="1196.64" y="-230.3" font-family="Times,serif" font-size="14.00">0</text>
</g>
<!-- 64&#45;&gt;66 -->
<g id="edge65" class="edge"><title>64&#45;&gt;66</title>
<path fill="none" stroke="black" d="M1136.35,-289.811C1147.31,-279.85 1161.78,-266.696 1173.8,-255.771"/>
<polygon fill="black" stroke="black" points="1176.23,-258.286 1181.28,-248.97 1171.52,-253.107 1176.23,-258.286"/>
</g>
<!-- 68 -->
<g id="node59" class="node"><title>68</title>
<ellipse fill="none" stroke="black" cx="931.644" cy="-522" rx="37.0935" ry="18"/>
<text text-anchor="middle" x="931.644" y="-518.3" font-family="Times,serif" font-size="14.00">ATRIB</text>
</g>
<!-- 69 -->
<g id="node60" class="node"><title>69</title>
<ellipse fill="none" stroke="black" cx="927.644" cy="-450" rx="27" ry="18"/>
<text text-anchor="middle" x="927.644" y="-446.3" font-family="Times,serif" font-size="14.00">f</text>
</g>
<!-- 68&#45;&gt;69 -->
<g id="edge68" class="edge"><title>68&#45;&gt;69</title>
<path fill="none" stroke="black" d="M930.655,-503.697C930.215,-495.983 929.685,-486.712 929.193,-478.112"/>
<polygon fill="black" stroke="black" points="932.686,-477.888 928.622,-468.104 925.698,-478.288 932.686,-477.888"/>
</g>
<!-- 70 -->
<g id="node61" class="node"><title>70</title>
<ellipse fill="none" stroke="black" cx="999.644" cy="-450" rx="27" ry="18"/>
<text text-anchor="middle" x="999.644" y="-446.3" font-family="Times,serif" font-size="14.00">1</text>
</g>
<!-- 68&#45;&gt;70 -->
<g id="edge69" class="edge"><title>68&#45;&gt;70</title>
<path fill="none" stroke="black" d="M946.736,-505.465C956.055,-495.871 968.154,-483.416 978.43,-472.839"/>
<polygon fill="black" stroke="black" points="981.066,-475.147 985.524,-465.536 976.045,-470.27 981.066,-475.147"/>
</g>
<!-- 72 -->
<g id="node62" class="node"><title>72</title>
<ellipse fill="none" stroke="black" cx="1096.64" cy="-450" rx="37.0935" ry="18"/>
<text text-anchor="middle" x="1096.64" y="-446.3" font-family="Times,serif" font-size="14.00">ATRIB</text>
</g>
<!-- 73 -->
<g id="node63" class="node"><title>73</title>
<ellipse fill="none" stroke="black" cx="1043.64" cy="-378" rx="27" ry="18"/>
<text text-anchor="middle" x="1043.64" y="-374.3" font-family="Times,serif" font-size="14.00">i</text>
</g>
<!-- 72&#45;&gt;73 -->
<g id="edge72" class="edge"><title>72&#45;&gt;73</title>
<path fill="none" stroke="black" d="M1084.35,-432.765C1077.63,-423.893 1069.19,-412.738 1061.73,-402.892"/>
<polygon fill="black" stroke="black" points="1064.33,-400.526 1055.51,-394.666 1058.75,-404.751 1064.33,-400.526"/>
</g>
<!-- 74 -->
<g id="node64" class="node"><title>74</title>
<ellipse fill="none" stroke="black" cx="1115.64" cy="-378" rx="27" ry="18"/>
<text text-anchor="middle" x="1115.64" y="-374.3" font-family="Times,serif" font-size="14.00">2</text>
</g>
<!-- 72&#45;&gt;74 -->
<g id="edge73" class="edge"><title>72&#45;&gt;74</title>
<path fill="none" stroke="black" d="M1101.24,-432.055C1103.39,-424.145 1106,-414.54 1108.4,-405.688"/>
<polygon fill="black" stroke="black" points="1111.85,-406.357 1111.09,-395.789 1105.09,-404.523 1111.85,-406.357"/>
</g>
<!-- 76 -->
<g id="node65" class="node"><title>76</title>
<ellipse fill="none" stroke="black" cx="1227.64" cy="-378" rx="37.0935" ry="18"/>
<text text-anchor="middle" x="1227.64" y="-374.3" font-family="Times,serif" font-size="14.00">ATRIB</text>
</g>
<!-- 77 -->
<g id="node66" class="node"><title>77</title>
<ellipse fill="none" stroke="black" cx="1201.64" cy="-306" rx="27" ry="18"/>
<text text-anchor="middle" x="1201.64" y="-302.3" font-family="Times,serif" font-size="14.00">num</text>
</g>
<!-- 76&#45;&gt;77 -->
<g id="edge76" class="edge"><title>76&#45;&gt;77</title>
<path fill="none" stroke="black" d="M1221.35,-360.055C1218.38,-352.059 1214.77,-342.331 1211.45,-333.4"/>
<polygon fill="black" stroke="black" points="1214.64,-331.945 1207.88,-323.789 1208.08,-334.382 1214.64,-331.945"/>
</g>
<!-- 78 -->
<g id="node67" class="node"><title>78</title>
<ellipse fill="none" stroke="black" cx="1273.64" cy="-306" rx="27" ry="18"/>
<text text-anchor="middle" x="1273.64" y="-302.3" font-family="Times,serif" font-size="14.00">53</text>
</g>
<!-- 76&#45;&gt;78 -->
<g id="edge77" class="edge"><title>76&#45;&gt;78</title>
<path fill="none" stroke="black" d="M1238.55,-360.411C1244.24,-351.744 1251.32,-340.971 1257.63,-331.375"/>
<polygon fill="black" stroke="black" points="1260.57,-333.267 1263.14,-322.988 1254.72,-329.423 1260.57,-333.267"/>
</g>
<!-- 79 -->
<g id="node68" class="node"><title>79</title>
<ellipse fill="none" stroke="black" cx="1345.64" cy="-378" rx="37.0935" ry="18"/>
<text text-anchor="middle" x="1345.64" y="-374.3" font-family="Times,serif" font-size="14.00">ATRIB</text>
</g>
<!-- 80 -->
<g id="node69" class="node"><title>80</title>
<ellipse fill="none" stroke="black" cx="1345.64" cy="-306" rx="27" ry="18"/>
<text text-anchor="middle" x="1345.64" y="-302.3" font-family="Times,serif" font-size="14.00">beta</text>
</g>
<!-- 79&#45;&gt;80 -->
<g id="edge79" class="edge"><title>79&#45;&gt;80</title>
<path fill="none" stroke="black" d="M1345.64,-359.697C1345.64,-351.983 1345.64,-342.712 1345.64,-334.112"/>
<polygon fill="black" stroke="black" points="1349.14,-334.104 1345.64,-324.104 1342.14,-334.104 1349.14,-334.104"/>
</g>
<!-- 81 -->
<g id="node70" class="node"><title>81</title>
<ellipse fill="none" stroke="black" cx="1451.64" cy="-306" rx="61.1893" ry="18"/>
<text text-anchor="middle" x="1451.64" y="-302.3" font-family="Times,serif" font-size="14.00">CHAMFUNC</text>
</g>
<!-- 79&#45;&gt;81 -->
<g id="edge80" class="edge"><title>79&#45;&gt;81</title>
<path fill="none" stroke="black" d="M1366.84,-363.003C1381.86,-353.082 1402.3,-339.588 1419.34,-328.332"/>
<polygon fill="black" stroke="black" points="1421.48,-331.112 1427.9,-322.681 1417.63,-325.271 1421.48,-331.112"/>
</g>
<!-- 82 -->
<g id="node71" class="node"><title>82</title>
<ellipse fill="none" stroke="black" cx="1451.64" cy="-234" rx="70.3881" ry="18"/>
<text text-anchor="middle" x="1451.64" y="-230.3" font-family="Times,serif" font-size="14.00">PARAMETROS</text>
</g>
<!-- 81&#45;&gt;82 -->
<g id="edge81" class="edge"><title>81&#45;&gt;82</title>
<path fill="none" stroke="black" d="M1451.64,-287.697C1451.64,-279.983 1451.64,-270.712 1451.64,-262.112"/>
<polygon fill="black" stroke="black" points="1455.14,-262.104 1451.64,-252.104 1448.14,-262.104 1455.14,-262.104"/>
</g>
<!-- 83 -->
<g id="node72" class="node"><title>83</title>
<ellipse fill="none" stroke="black" cx="1425.64" cy="-162" rx="70.3881" ry="18"/>
<text text-anchor="middle" x="1425.64" y="-158.3" font-family="Times,serif" font-size="14.00">PARAMETROS</text>
</g>
<!-- 82&#45;&gt;83 -->
<g id="edge82" class="edge"><title>82&#45;&gt;83</title>
<path fill="none" stroke="black" d="M1445.35,-216.055C1442.42,-208.176 1438.87,-198.617 1435.6,-189.794"/>
<polygon fill="black" stroke="black" points="1438.82,-188.431 1432.06,-180.275 1432.26,-190.868 1438.82,-188.431"/>
</g>
<!-- 87 -->
<g id="node76" class="node"><title>87</title>
<ellipse fill="none" stroke="black" cx="1543.64" cy="-162" rx="29.795" ry="18"/>
<text text-anchor="middle" x="1543.64" y="-158.3" font-family="Times,serif" font-size="14.00">ADD</text>
</g>
<!-- 82&#45;&gt;87 -->
<g id="edge86" class="edge"><title>82&#45;&gt;87</title>
<path fill="none" stroke="black" d="M1472.98,-216.765C1486.26,-206.664 1503.42,-193.603 1517.51,-182.883"/>
<polygon fill="black" stroke="black" points="1519.98,-185.4 1525.82,-176.559 1515.75,-179.829 1519.98,-185.4"/>
</g>
<!-- 84 -->
<g id="node73" class="node"><title>84</title>
<ellipse fill="none" stroke="black" cx="1321.64" cy="-90" rx="70.3881" ry="18"/>
<text text-anchor="middle" x="1321.64" y="-86.3" font-family="Times,serif" font-size="14.00">PARAMETROS</text>
</g>
<!-- 83&#45;&gt;84 -->
<g id="edge83" class="edge"><title>83&#45;&gt;84</title>
<path fill="none" stroke="black" d="M1401.78,-144.941C1387.65,-135.425 1369.54,-123.238 1354.11,-112.855"/>
<polygon fill="black" stroke="black" points="1355.64,-109.665 1345.39,-106.985 1351.73,-115.472 1355.64,-109.665"/>
</g>
<!-- 86 -->
<g id="node75" class="node"><title>86</title>
<ellipse fill="none" stroke="black" cx="1436.64" cy="-90" rx="27" ry="18"/>
<text text-anchor="middle" x="1436.64" y="-86.3" font-family="Times,serif" font-size="14.00">5.00</text>
</g>
<!-- 83&#45;&gt;86 -->
<g id="edge85" class="edge"><title>83&#45;&gt;86</title>
<path fill="none" stroke="black" d="M1428.36,-143.697C1429.58,-135.983 1431.03,-126.712 1432.38,-118.112"/>
<polygon fill="black" stroke="black" points="1435.86,-118.526 1433.96,-108.104 1428.95,-117.44 1435.86,-118.526"/>
</g>
<!-- 85 -->
<g id="node74" class="node"><title>85</title>
<ellipse fill="none" stroke="black" cx="1321.64" cy="-18" rx="27" ry="18"/>
<text text-anchor="middle" x="1321.64" y="-14.3" font-family="Times,serif" font-size="14.00">1</text>
</g>
<!-- 84&#45;&gt;85 -->
<g id="edge84" class="edge"><title>84&#45;&gt;85</title>
<path fill="none" stroke="black" d="M1321.64,-71.6966C1321.64,-63.9827 1321.64,-54.7125 1321.64,-46.1124"/>
<polygon fill="black" stroke="black" points="1325.14,-46.1043 1321.64,-36.1043 1318.14,-46.1044 1325.14,-46.1043"/>
</g>
<!-- 88 -->
<g id="node77" class="node"><title>88</title>
<ellipse fill="none" stroke="black" cx="1531.64" cy="-90" rx="27" ry="18"/>
<text text-anchor="middle" x="1531.64" y="-86.3" font-family="Times,serif" font-size="14.00">4</text>
</g>
<!-- 87&#45;&gt;88 -->
<g id="edge87" class="edge"><title>87&#45;&gt;88</title>
<path fill="none" stroke="black" d="M1540.74,-144.055C1539.42,-136.346 1537.82,-127.027 1536.34,-118.364"/>
<polygon fill="black" stroke="black" points="1539.75,-117.54 1534.61,-108.275 1532.85,-118.723 1539.75,-117.54"/>
</g>
<!-- 89 -->
<g id="node78" class="node"><title>89</title>
<ellipse fill="none" stroke="black" cx="1603.64" cy="-90" rx="27" ry="18"/>
<text text-anchor="middle" x="1603.64" y="-86.3" font-family="Times,serif" font-size="14.00">4</text>
</g>
<!-- 87&#45;&gt;89 -->
<g id="edge88" class="edge"><title>87&#45;&gt;89</title>
<path fill="none" stroke="black" d="M1556.96,-145.465C1564.91,-136.184 1575.16,-124.227 1584.03,-113.881"/>
<polygon fill="black" stroke="black" points="1586.93,-115.882 1590.78,-106.011 1581.61,-111.326 1586.93,-115.882"/>
</g>
<!-- 3&#45;&gt;4 -->
<g id="edge3" class="edge"><title>3&#45;&gt;4</title>
<path fill="none" stroke="black" d="M164.934,-725.597C146.652,-715.021 119.069,-699.064 97.3011,-686.471"/>
<polygon fill="black" stroke="black" points="98.7806,-683.283 88.372,-681.305 95.2753,-689.343 98.7806,-683.283"/>
</g>
<!-- 3&#45;&gt;6 -->
<g id="edge5" class="edge"><title>3&#45;&gt;6</title>
<path fill="none" stroke="black" d="M184.644,-719.697C184.644,-711.983 184.644,-702.712 184.644,-694.112"/>
<polygon fill="black" stroke="black" points="188.144,-694.104 184.644,-684.104 181.144,-694.104 188.144,-694.104"/>
</g>
<!-- 19&#45;&gt;20 -->
<g id="edge19" class="edge"><title>19&#45;&gt;20</title>
<path fill="none" stroke="black" d="M504.644,-791.697C504.644,-783.983 504.644,-774.712 504.644,-766.112"/>
<polygon fill="black" stroke="black" points="508.144,-766.104 504.644,-756.104 501.144,-766.104 508.144,-766.104"/>
</g>
<!-- 28 -->
<g id="node81" class="node"><title>28</title>
<ellipse fill="none" stroke="black" cx="751.644" cy="-738" rx="27" ry="18"/>
<text text-anchor="middle" x="751.644" y="-734.3" font-family="Times,serif" font-size="14.00">28</text>
</g>
<!-- 19&#45;&gt;28 -->
<g id="edge27" class="edge"><title>19&#45;&gt;28</title>
<path fill="none" stroke="black" d="M529.23,-802.032C573.524,-789.479 666.805,-763.043 717.349,-748.719"/>
<polygon fill="black" stroke="black" points="718.491,-752.034 727.157,-745.94 716.582,-745.299 718.491,-752.034"/>
</g>
<!-- 28&#45;&gt;29 -->
<g id="edge28" class="edge"><title>28&#45;&gt;29</title>
<path fill="none" stroke="black" d="M751.644,-719.697C751.644,-711.983 751.644,-702.712 751.644,-694.112"/>
<polygon fill="black" stroke="black" points="755.144,-694.104 751.644,-684.104 748.144,-694.104 755.144,-694.104"/>
</g>
<!-- 31 -->
<g id="node82" class="node"><title>31</title>
<ellipse fill="none" stroke="black" cx="836.644" cy="-666" rx="27" ry="18"/>
<text text-anchor="middle" x="836.644" y="-662.3" font-family="Times,serif" font-size="14.00">31</text>
</g>
<!-- 28&#45;&gt;31 -->
<g id="edge30" class="edge"><title>28&#45;&gt;31</title>
<path fill="none" stroke="black" d="M768.033,-723.503C780.615,-713.142 798.182,-698.674 812.391,-686.973"/>
<polygon fill="black" stroke="black" points="814.811,-689.514 820.306,-680.455 810.361,-684.111 814.811,-689.514"/>
</g>
<!-- 31&#45;&gt;32 -->
<g id="edge31" class="edge"><title>31&#45;&gt;32</title>
<path fill="none" stroke="black" d="M836.644,-647.697C836.644,-639.983 836.644,-630.712 836.644,-622.112"/>
<polygon fill="black" stroke="black" points="840.144,-622.104 836.644,-612.104 833.144,-622.104 840.144,-622.104"/>
</g>
<!-- 67 -->
<g id="node87" class="node"><title>67</title>
<ellipse fill="none" stroke="black" cx="931.644" cy="-594" rx="27" ry="18"/>
<text text-anchor="middle" x="931.644" y="-590.3" font-family="Times,serif" font-size="14.00">67</text>
</g>
<!-- 31&#45;&gt;67 -->
<g id="edge66" class="edge"><title>31&#45;&gt;67</title>
<path fill="none" stroke="black" d="M854.069,-652.161C868.574,-641.473 889.436,-626.101 905.873,-613.989"/>
<polygon fill="black" stroke="black" points="908.034,-616.744 914.008,-607.995 903.882,-611.109 908.034,-616.744"/>
</g>
<!-- 36&#45;&gt;37 -->
<g id="edge36" class="edge"><title>36&#45;&gt;37</title>
<path fill="none" stroke="black" d="M819.34,-507.834C805.989,-497.675 787.268,-483.431 771.908,-471.744"/>
<polygon fill="black" stroke="black" points="773.854,-468.827 763.776,-465.557 769.615,-474.398 773.854,-468.827"/>
</g>
<!-- 42 -->
<g id="node84" class="node"><title>42</title>
<ellipse fill="none" stroke="black" cx="841.644" cy="-450" rx="27" ry="18"/>
<text text-anchor="middle" x="841.644" y="-446.3" font-family="Times,serif" font-size="14.00">42</text>
</g>
<!-- 36&#45;&gt;42 -->
<g id="edge41" class="edge"><title>36&#45;&gt;42</title>
<path fill="none" stroke="black" d="M837.88,-503.697C838.431,-495.983 839.093,-486.712 839.708,-478.112"/>
<polygon fill="black" stroke="black" points="843.201,-478.328 840.422,-468.104 836.219,-477.83 843.201,-478.328"/>
</g>
<!-- 42&#45;&gt;43 -->
<g id="edge42" class="edge"><title>42&#45;&gt;43</title>
<path fill="none" stroke="black" d="M841.644,-431.697C841.644,-423.983 841.644,-414.712 841.644,-406.112"/>
<polygon fill="black" stroke="black" points="845.144,-406.104 841.644,-396.104 838.144,-406.104 845.144,-406.104"/>
</g>
<!-- 54 -->
<g id="node86" class="node"><title>54</title>
<ellipse fill="none" stroke="black" cx="969.644" cy="-378" rx="27" ry="18"/>
<text text-anchor="middle" x="969.644" y="-374.3" font-family="Times,serif" font-size="14.00">54</text>
</g>
<!-- 42&#45;&gt;54 -->
<g id="edge53" class="edge"><title>42&#45;&gt;54</title>
<path fill="none" stroke="black" d="M861.926,-437.908C883.085,-426.337 916.456,-408.087 940.449,-394.966"/>
<polygon fill="black" stroke="black" points="942.363,-397.909 949.457,-390.04 939.004,-391.767 942.363,-397.909"/>
</g>
<!-- 47&#45;&gt;48 -->
<g id="edge47" class="edge"><title>47&#45;&gt;48</title>
<path fill="none" stroke="black" d="M834.467,-290.834C824.144,-281.2 810.273,-268.253 798.486,-257.253"/>
<polygon fill="black" stroke="black" points="800.799,-254.624 791.1,-250.359 796.023,-259.741 800.799,-254.624"/>
</g>
<!-- 47&#45;&gt;51 -->
<g id="edge50" class="edge"><title>47&#45;&gt;51</title>
<path fill="none" stroke="black" d="M853.759,-288.055C855.652,-280.261 857.945,-270.822 860.068,-262.079"/>
<polygon fill="black" stroke="black" points="863.49,-262.819 862.449,-252.275 856.688,-261.167 863.49,-262.819"/>
</g>
<!-- 54&#45;&gt;55 -->
<g id="edge54" class="edge"><title>54&#45;&gt;55</title>
<path fill="none" stroke="black" d="M969.644,-359.697C969.644,-351.983 969.644,-342.712 969.644,-334.112"/>
<polygon fill="black" stroke="black" points="973.144,-334.104 969.644,-324.104 966.144,-334.104 973.144,-334.104"/>
</g>
<!-- 54&#45;&gt;64 -->
<g id="edge63" class="edge"><title>54&#45;&gt;64</title>
<path fill="none" stroke="black" d="M991.136,-366.971C1015.52,-355.593 1055.64,-336.868 1084.57,-323.366"/>
<polygon fill="black" stroke="black" points="1086.34,-326.406 1093.92,-319.005 1083.38,-320.063 1086.34,-326.406"/>
</g>
<!-- 67&#45;&gt;68 -->
<g id="edge67" class="edge"><title>67&#45;&gt;68</title>
<path fill="none" stroke="black" d="M931.644,-575.697C931.644,-567.983 931.644,-558.712 931.644,-550.112"/>
<polygon fill="black" stroke="black" points="935.144,-550.104 931.644,-540.104 928.144,-550.104 935.144,-550.104"/>
</g>
<!-- 71 -->
<g id="node88" class="node"><title>71</title>
<ellipse fill="none" stroke="black" cx="1096.64" cy="-522" rx="27" ry="18"/>
<text text-anchor="middle" x="1096.64" y="-518.3" font-family="Times,serif" font-size="14.00">71</text>
</g>
<!-- 67&#45;&gt;71 -->
<g id="edge70" class="edge"><title>67&#45;&gt;71</title>
<path fill="none" stroke="black" d="M953.897,-583.559C982.516,-571.418 1032.4,-550.254 1064.97,-536.437"/>
<polygon fill="black" stroke="black" points="1066.64,-539.53 1074.48,-532.402 1063.91,-533.086 1066.64,-539.53"/>
</g>
<!-- 71&#45;&gt;72 -->
<g id="edge71" class="edge"><title>71&#45;&gt;72</title>
<path fill="none" stroke="black" d="M1096.64,-503.697C1096.64,-495.983 1096.64,-486.712 1096.64,-478.112"/>
<polygon fill="black" stroke="black" points="1100.14,-478.104 1096.64,-468.104 1093.14,-478.104 1100.14,-478.104"/>
</g>
<!-- 75 -->
<g id="node89" class="node"><title>75</title>
<ellipse fill="none" stroke="black" cx="1227.64" cy="-450" rx="27" ry="18"/>
<text text-anchor="middle" x="1227.64" y="-446.3" font-family="Times,serif" font-size="14.00">75</text>
</g>
<!-- 71&#45;&gt;75 -->
<g id="edge74" class="edge"><title>71&#45;&gt;75</title>
<path fill="none" stroke="black" d="M1117.11,-510.062C1138.94,-498.402 1173.68,-479.834 1198.39,-466.632"/>
<polygon fill="black" stroke="black" points="1200.15,-469.661 1207.32,-461.861 1196.85,-463.487 1200.15,-469.661"/>
</g>
<!-- 75&#45;&gt;76 -->
<g id="edge75" class="edge"><title>75&#45;&gt;76</title>
<path fill="none" stroke="black" d="M1227.64,-431.697C1227.64,-423.983 1227.64,-414.712 1227.64,-406.112"/>
<polygon fill="black" stroke="black" points="1231.14,-406.104 1227.64,-396.104 1224.14,-406.104 1231.14,-406.104"/>
</g>
<!-- 75&#45;&gt;79 -->
<g id="edge78" class="edge"><title>75&#45;&gt;79</title>
<path fill="none" stroke="black" d="M1247.13,-437.441C1265.34,-426.636 1292.86,-410.315 1314.18,-397.664"/>
<polygon fill="black" stroke="black" points="1316.08,-400.606 1322.9,-392.494 1312.51,-394.586 1316.08,-400.606"/>
</g>
</g>
</svg>
