<?xml version="1.0" encoding="UTF-8" standalone="no"?>
<!DOCTYPE svg PUBLIC "-//W3C//DTD SVG 1.1//EN"
 "http://www.w3.org/Graphics/SVG/1.1/DTD/svg11.dtd">
<!-- Generated by graphviz version 2.38.0 (20140413.2041)
 -->
<!-- Title: G Pages: 1 -->
<svg width="490pt" height="548pt"
 viewBox="0.00 0.00 490.15 548.00" xmlns="http://www.w3.org/2000/svg" xmlns:xlink="http://www.w3.org/1999/xlink">
<g id="graph0" class="graph" transform="scale(1 1) rotate(0) translate(4 544)">
<title>G</title>
<polygon fill="white" stroke="none" points="-4,4 -4,-544 486.146,-544 486.146,4 -4,4"/>
<!-- 2 -->
<g id="node1" class="node"><title>2</title>
<ellipse fill="none" stroke="black" cx="46.1459" cy="-450" rx="46.2923" ry="18"/>
<text text-anchor="middle" x="46.1459" y="-446.3" font-family="Times,serif" font-size="14.00">RETURN</text>
</g>
<!-- 3 -->
<g id="node2" class="node"><title>3</title>
<ellipse fill="none" stroke="black" cx="46.1459" cy="-378" rx="27" ry="18"/>
<text text-anchor="middle" x="46.1459" y="-374.3" font-family="Times,serif" font-size="14.00">0</text>
</g>
<!-- 2&#45;&gt;3 -->
<g id="edge2" class="edge"><title>2&#45;&gt;3</title>
<path fill="none" stroke="black" d="M46.1459,-431.697C46.1459,-423.983 46.1459,-414.712 46.1459,-406.112"/>
<polygon fill="black" stroke="black" points="49.646,-406.104 46.1459,-396.104 42.646,-406.104 49.646,-406.104"/>
</g>
<!-- 5 -->
<g id="node3" class="node"><title>5</title>
<ellipse fill="none" stroke="black" cx="132.146" cy="-378" rx="36.2938" ry="18"/>
<text text-anchor="middle" x="132.146" y="-374.3" font-family="Times,serif" font-size="14.00">PRINT</text>
</g>
<!-- 6 -->
<g id="node4" class="node"><title>6</title>
<ellipse fill="none" stroke="black" cx="132.146" cy="-306" rx="27" ry="18"/>
</g>
<!-- 5&#45;&gt;6 -->
<g id="edge5" class="edge"><title>5&#45;&gt;6</title>
<path fill="none" stroke="black" d="M132.146,-359.697C132.146,-351.983 132.146,-342.712 132.146,-334.112"/>
<polygon fill="black" stroke="black" points="135.646,-334.104 132.146,-324.104 128.646,-334.104 135.646,-334.104"/>
</g>
<!-- 8 -->
<g id="node5" class="node"><title>8</title>
<ellipse fill="none" stroke="black" cx="213.146" cy="-306" rx="36.2938" ry="18"/>
<text text-anchor="middle" x="213.146" y="-302.3" font-family="Times,serif" font-size="14.00">PRINT</text>
</g>
<!-- 9 -->
<g id="node6" class="node"><title>9</title>
<ellipse fill="none" stroke="black" cx="212.146" cy="-234" rx="27" ry="18"/>
<text text-anchor="middle" x="212.146" y="-230.3" font-family="Times,serif" font-size="14.00">y</text>
</g>
<!-- 8&#45;&gt;9 -->
<g id="edge8" class="edge"><title>8&#45;&gt;9</title>
<path fill="none" stroke="black" d="M212.899,-287.697C212.789,-279.983 212.656,-270.712 212.533,-262.112"/>
<polygon fill="black" stroke="black" points="216.033,-262.053 212.39,-252.104 209.034,-262.153 216.033,-262.053"/>
</g>
<!-- 11 -->
<g id="node7" class="node"><title>11</title>
<ellipse fill="none" stroke="black" cx="294.146" cy="-234" rx="37.0935" ry="18"/>
<text text-anchor="middle" x="294.146" y="-230.3" font-family="Times,serif" font-size="14.00">ATRIB</text>
</g>
<!-- 12 -->
<g id="node8" class="node"><title>12</title>
<ellipse fill="none" stroke="black" cx="214.146" cy="-162" rx="27" ry="18"/>
<text text-anchor="middle" x="214.146" y="-158.3" font-family="Times,serif" font-size="14.00">y</text>
</g>
<!-- 11&#45;&gt;12 -->
<g id="edge11" class="edge"><title>11&#45;&gt;12</title>
<path fill="none" stroke="black" d="M276.787,-217.811C265.327,-207.784 250.17,-194.521 237.637,-183.554"/>
<polygon fill="black" stroke="black" points="239.675,-180.687 229.844,-176.736 235.065,-185.955 239.675,-180.687"/>
</g>
<!-- 13 -->
<g id="node9" class="node"><title>13</title>
<ellipse fill="none" stroke="black" cx="296.146" cy="-162" rx="37.0935" ry="18"/>
<text text-anchor="middle" x="296.146" y="-158.3" font-family="Times,serif" font-size="14.00">ATRIB</text>
</g>
<!-- 11&#45;&gt;13 -->
<g id="edge12" class="edge"><title>11&#45;&gt;13</title>
<path fill="none" stroke="black" d="M294.64,-215.697C294.861,-207.983 295.126,-198.712 295.371,-190.112"/>
<polygon fill="black" stroke="black" points="298.87,-190.2 295.657,-180.104 291.873,-190 298.87,-190.2"/>
</g>
<!-- 14 -->
<g id="node10" class="node"><title>14</title>
<ellipse fill="none" stroke="black" cx="258.146" cy="-90" rx="27" ry="18"/>
<text text-anchor="middle" x="258.146" y="-86.3" font-family="Times,serif" font-size="14.00">x</text>
</g>
<!-- 13&#45;&gt;14 -->
<g id="edge13" class="edge"><title>13&#45;&gt;14</title>
<path fill="none" stroke="black" d="M287.14,-144.411C282.597,-136.042 276.988,-125.71 271.918,-116.37"/>
<polygon fill="black" stroke="black" points="274.934,-114.589 267.087,-107.47 268.782,-117.928 274.934,-114.589"/>
</g>
<!-- 15 -->
<g id="node11" class="node"><title>15</title>
<ellipse fill="none" stroke="black" cx="333.146" cy="-90" rx="29.795" ry="18"/>
<text text-anchor="middle" x="333.146" y="-86.3" font-family="Times,serif" font-size="14.00">ADD</text>
</g>
<!-- 13&#45;&gt;15 -->
<g id="edge14" class="edge"><title>13&#45;&gt;15</title>
<path fill="none" stroke="black" d="M304.914,-144.411C309.338,-136.042 314.799,-125.71 319.736,-116.37"/>
<polygon fill="black" stroke="black" points="322.862,-117.947 324.44,-107.47 316.673,-114.675 322.862,-117.947"/>
</g>
<!-- 16 -->
<g id="node12" class="node"><title>16</title>
<ellipse fill="none" stroke="black" cx="297.146" cy="-18" rx="27" ry="18"/>
<text text-anchor="middle" x="297.146" y="-14.3" font-family="Times,serif" font-size="14.00">x</text>
</g>
<!-- 15&#45;&gt;16 -->
<g id="edge15" class="edge"><title>15&#45;&gt;16</title>
<path fill="none" stroke="black" d="M324.614,-72.411C320.31,-64.0421 314.997,-53.7098 310.193,-44.3698"/>
<polygon fill="black" stroke="black" points="313.302,-42.7621 305.616,-35.4699 307.077,-45.9636 313.302,-42.7621"/>
</g>
<!-- 17 -->
<g id="node13" class="node"><title>17</title>
<ellipse fill="none" stroke="black" cx="369.146" cy="-18" rx="27" ry="18"/>
<text text-anchor="middle" x="369.146" y="-14.3" font-family="Times,serif" font-size="14.00">1</text>
</g>
<!-- 15&#45;&gt;17 -->
<g id="edge16" class="edge"><title>15&#45;&gt;17</title>
<path fill="none" stroke="black" d="M341.677,-72.411C345.981,-64.0421 351.295,-53.7098 356.099,-44.3698"/>
<polygon fill="black" stroke="black" points="359.215,-45.9636 360.676,-35.4699 352.99,-42.7621 359.215,-45.9636"/>
</g>
<!-- 18 -->
<g id="node14" class="node"><title>18</title>
<ellipse fill="none" stroke="black" cx="386.146" cy="-234" rx="37.0935" ry="18"/>
<text text-anchor="middle" x="386.146" y="-230.3" font-family="Times,serif" font-size="14.00">ATRIB</text>
</g>
<!-- 19 -->
<g id="node15" class="node"><title>19</title>
<ellipse fill="none" stroke="black" cx="383.146" cy="-162" rx="27" ry="18"/>
<text text-anchor="middle" x="383.146" y="-158.3" font-family="Times,serif" font-size="14.00">x</text>
</g>
<!-- 18&#45;&gt;19 -->
<g id="edge18" class="edge"><title>18&#45;&gt;19</title>
<path fill="none" stroke="black" d="M385.404,-215.697C385.074,-207.983 384.676,-198.712 384.308,-190.112"/>
<polygon fill="black" stroke="black" points="387.804,-189.945 383.879,-180.104 380.81,-190.245 387.804,-189.945"/>
</g>
<!-- 20 -->
<g id="node16" class="node"><title>20</title>
<ellipse fill="none" stroke="black" cx="455.146" cy="-162" rx="27" ry="18"/>
<text text-anchor="middle" x="455.146" y="-158.3" font-family="Times,serif" font-size="14.00">1</text>
</g>
<!-- 18&#45;&gt;20 -->
<g id="edge19" class="edge"><title>18&#45;&gt;20</title>
<path fill="none" stroke="black" d="M401.459,-217.465C410.916,-207.871 423.193,-195.416 433.619,-184.839"/>
<polygon fill="black" stroke="black" points="436.29,-187.115 440.818,-177.536 431.305,-182.201 436.29,-187.115"/>
</g>
<!-- 1 -->
<g id="node17" class="node"><title>1</title>
<ellipse fill="none" stroke="black" cx="91.1459" cy="-522" rx="27" ry="18"/>
<text text-anchor="middle" x="91.1459" y="-518.3" font-family="Times,serif" font-size="14.00">1</text>
</g>
<!-- 1&#45;&gt;2 -->
<g id="edge1" class="edge"><title>1&#45;&gt;2</title>
<path fill="none" stroke="black" d="M80.9347,-505.116C75.4551,-496.592 68.5727,-485.886 62.3789,-476.251"/>
<polygon fill="black" stroke="black" points="65.296,-474.316 56.9442,-467.797 59.4077,-478.102 65.296,-474.316"/>
</g>
<!-- 4 -->
<g id="node18" class="node"><title>4</title>
<ellipse fill="none" stroke="black" cx="137.146" cy="-450" rx="27" ry="18"/>
<text text-anchor="middle" x="137.146" y="-446.3" font-family="Times,serif" font-size="14.00">4</text>
</g>
<!-- 1&#45;&gt;4 -->
<g id="edge3" class="edge"><title>1&#45;&gt;4</title>
<path fill="none" stroke="black" d="M101.584,-505.116C107.348,-496.345 114.63,-485.264 121.101,-475.416"/>
<polygon fill="black" stroke="black" points="124.182,-477.1 126.749,-466.821 118.332,-473.256 124.182,-477.1"/>
</g>
<!-- 4&#45;&gt;5 -->
<g id="edge4" class="edge"><title>4&#45;&gt;5</title>
<path fill="none" stroke="black" d="M135.91,-431.697C135.359,-423.983 134.697,-414.712 134.083,-406.112"/>
<polygon fill="black" stroke="black" points="137.571,-405.83 133.368,-396.104 130.589,-406.328 137.571,-405.83"/>
</g>
<!-- 7 -->
<g id="node19" class="node"><title>7</title>
<ellipse fill="none" stroke="black" cx="213.146" cy="-378" rx="27" ry="18"/>
<text text-anchor="middle" x="213.146" y="-374.3" font-family="Times,serif" font-size="14.00">7</text>
</g>
<!-- 4&#45;&gt;7 -->
<g id="edge6" class="edge"><title>4&#45;&gt;7</title>
<path fill="none" stroke="black" d="M152.526,-434.834C163.342,-424.872 178.003,-411.369 190.197,-400.137"/>
<polygon fill="black" stroke="black" points="192.805,-402.494 197.789,-393.144 188.062,-397.345 192.805,-402.494"/>
</g>
<!-- 7&#45;&gt;8 -->
<g id="edge7" class="edge"><title>7&#45;&gt;8</title>
<path fill="none" stroke="black" d="M213.146,-359.697C213.146,-351.983 213.146,-342.712 213.146,-334.112"/>
<polygon fill="black" stroke="black" points="216.646,-334.104 213.146,-324.104 209.646,-334.104 216.646,-334.104"/>
</g>
<!-- 10 -->
<g id="node20" class="node"><title>10</title>
<ellipse fill="none" stroke="black" cx="294.146" cy="-306" rx="27" ry="18"/>
<text text-anchor="middle" x="294.146" y="-302.3" font-family="Times,serif" font-size="14.00">10</text>
</g>
<!-- 7&#45;&gt;10 -->
<g id="edge9" class="edge"><title>7&#45;&gt;10</title>
<path fill="none" stroke="black" d="M229.149,-363.17C240.909,-353.008 257.082,-339.03 270.353,-327.561"/>
<polygon fill="black" stroke="black" points="272.899,-329.988 278.176,-320.801 268.321,-324.692 272.899,-329.988"/>
</g>
<!-- 10&#45;&gt;11 -->
<g id="edge10" class="edge"><title>10&#45;&gt;11</title>
<path fill="none" stroke="black" d="M294.146,-287.697C294.146,-279.983 294.146,-270.712 294.146,-262.112"/>
<polygon fill="black" stroke="black" points="297.646,-262.104 294.146,-252.104 290.646,-262.104 297.646,-262.104"/>
</g>
<!-- 10&#45;&gt;18 -->
<g id="edge17" class="edge"><title>10&#45;&gt;18</title>
<path fill="none" stroke="black" d="M311.45,-291.834C324.802,-281.675 343.522,-267.431 358.882,-255.744"/>
<polygon fill="black" stroke="black" points="361.175,-258.398 367.014,-249.557 356.936,-252.827 361.175,-258.398"/>
</g>
</g>
</svg>
