<?xml version="1.0" encoding="UTF-8" standalone="no"?>
<!DOCTYPE svg PUBLIC "-//W3C//DTD SVG 1.1//EN"
 "http://www.w3.org/Graphics/SVG/1.1/DTD/svg11.dtd">
<!-- Generated by graphviz version 2.38.0 (20140413.2041)
 -->
<!-- Title: G Pages: 1 -->
<svg width="1098pt" height="764pt"
 viewBox="0.00 0.00 1098.00 764.00" xmlns="http://www.w3.org/2000/svg" xmlns:xlink="http://www.w3.org/1999/xlink">
<g id="graph0" class="graph" transform="scale(1 1) rotate(0) translate(4 760)">
<title>G</title>
<polygon fill="white" stroke="none" points="-4,4 -4,-760 1094,-760 1094,4 -4,4"/>
<!-- 1 -->
<g id="node1" class="node"><title>1</title>
<ellipse fill="none" stroke="black" cx="471" cy="-738" rx="31.3957" ry="18"/>
<text text-anchor="middle" x="471" y="-734.3" font-family="Times,serif" font-size="14.00">RAIZ</text>
</g>
<!-- 2 -->
<g id="node2" class="node"><title>2</title>
<ellipse fill="none" stroke="black" cx="362" cy="-666" rx="34.394" ry="18"/>
<text text-anchor="middle" x="362" y="-662.3" font-family="Times,serif" font-size="14.00">FUNC</text>
</g>
<!-- 1&#45;&gt;2 -->
<g id="edge1" class="edge"><title>1&#45;&gt;2</title>
<path fill="none" stroke="black" d="M451.008,-724.161C434.348,-713.462 410.38,-698.069 391.511,-685.952"/>
<polygon fill="black" stroke="black" points="393.286,-682.932 382.98,-680.473 389.503,-688.822 393.286,-682.932"/>
</g>
<!-- 43 -->
<g id="node65" class="node"><title>43</title>
<ellipse fill="none" stroke="black" cx="580" cy="-666" rx="27" ry="18"/>
<text text-anchor="middle" x="580" y="-662.3" font-family="Times,serif" font-size="14.00">43</text>
</g>
<!-- 1&#45;&gt;43 -->
<g id="edge42" class="edge"><title>1&#45;&gt;43</title>
<path fill="none" stroke="black" d="M490.992,-724.161C508.289,-713.053 533.463,-696.886 552.629,-684.578"/>
<polygon fill="black" stroke="black" points="554.704,-687.405 561.227,-679.056 550.922,-681.515 554.704,-687.405"/>
</g>
<!-- 3 -->
<g id="node62" class="node"><title>3</title>
<ellipse fill="none" stroke="black" cx="223" cy="-594" rx="27" ry="18"/>
<text text-anchor="middle" x="223" y="-590.3" font-family="Times,serif" font-size="14.00">3</text>
</g>
<!-- 2&#45;&gt;3 -->
<g id="edge2" class="edge"><title>2&#45;&gt;3</title>
<path fill="none" stroke="black" d="M338.105,-652.967C314.566,-641.112 278.53,-622.965 253.059,-610.138"/>
<polygon fill="black" stroke="black" points="254.368,-606.878 243.863,-605.506 251.22,-613.13 254.368,-606.878"/>
</g>
<!-- 4 -->
<g id="node3" class="node"><title>4</title>
<ellipse fill="none" stroke="black" cx="95" cy="-522" rx="46.2923" ry="18"/>
<text text-anchor="middle" x="95" y="-518.3" font-family="Times,serif" font-size="14.00">RETURN</text>
</g>
<!-- 5 -->
<g id="node4" class="node"><title>5</title>
<ellipse fill="none" stroke="black" cx="58" cy="-450" rx="27" ry="18"/>
<text text-anchor="middle" x="58" y="-446.3" font-family="Times,serif" font-size="14.00">2</text>
</g>
<!-- 4&#45;&gt;5 -->
<g id="edge4" class="edge"><title>4&#45;&gt;5</title>
<path fill="none" stroke="black" d="M86.0433,-504.055C81.6623,-495.767 76.298,-485.618 71.4385,-476.424"/>
<polygon fill="black" stroke="black" points="74.3869,-474.512 66.6194,-467.307 68.1982,-477.784 74.3869,-474.512"/>
</g>
<!-- 6 -->
<g id="node5" class="node"><title>6</title>
<ellipse fill="none" stroke="black" cx="223" cy="-522" rx="27" ry="18"/>
<text text-anchor="middle" x="223" y="-518.3" font-family="Times,serif" font-size="14.00">IF</text>
</g>
<!-- 7 -->
<g id="node6" class="node"><title>7</title>
<ellipse fill="none" stroke="black" cx="130" cy="-450" rx="27" ry="18"/>
<text text-anchor="middle" x="130" y="-446.3" font-family="Times,serif" font-size="14.00">&lt;=</text>
</g>
<!-- 6&#45;&gt;7 -->
<g id="edge6" class="edge"><title>6&#45;&gt;7</title>
<path fill="none" stroke="black" d="M205.507,-507.834C191.478,-497.274 171.584,-482.3 155.738,-470.373"/>
<polygon fill="black" stroke="black" points="157.509,-467.325 147.414,-464.107 153.299,-472.918 157.509,-467.325"/>
</g>
<!-- 10 -->
<g id="node9" class="node"><title>10</title>
<ellipse fill="none" stroke="black" cx="223" cy="-450" rx="37.0935" ry="18"/>
<text text-anchor="middle" x="223" y="-446.3" font-family="Times,serif" font-size="14.00">ATRIB</text>
</g>
<!-- 6&#45;&gt;10 -->
<g id="edge9" class="edge"><title>6&#45;&gt;10</title>
<path fill="none" stroke="black" d="M223,-503.697C223,-495.983 223,-486.712 223,-478.112"/>
<polygon fill="black" stroke="black" points="226.5,-478.104 223,-468.104 219.5,-478.104 226.5,-478.104"/>
</g>
<!-- 13 -->
<g id="node63" class="node"><title>13</title>
<ellipse fill="none" stroke="black" cx="327" cy="-450" rx="27" ry="18"/>
<text text-anchor="middle" x="327" y="-446.3" font-family="Times,serif" font-size="14.00">13</text>
</g>
<!-- 6&#45;&gt;13 -->
<g id="edge12" class="edge"><title>6&#45;&gt;13</title>
<path fill="none" stroke="black" d="M241.593,-508.485C257.861,-497.536 281.694,-481.495 300.052,-469.138"/>
<polygon fill="black" stroke="black" points="302.226,-471.894 308.568,-463.406 298.318,-466.086 302.226,-471.894"/>
</g>
<!-- 8 -->
<g id="node7" class="node"><title>8</title>
<ellipse fill="none" stroke="black" cx="46" cy="-378" rx="27" ry="18"/>
<text text-anchor="middle" x="46" y="-374.3" font-family="Times,serif" font-size="14.00">1</text>
</g>
<!-- 7&#45;&gt;8 -->
<g id="edge7" class="edge"><title>7&#45;&gt;8</title>
<path fill="none" stroke="black" d="M113.804,-435.503C101.37,-425.142 84.0093,-410.674 69.9678,-398.973"/>
<polygon fill="black" stroke="black" points="72.0692,-396.168 62.1463,-392.455 67.5879,-401.546 72.0692,-396.168"/>
</g>
<!-- 9 -->
<g id="node8" class="node"><title>9</title>
<ellipse fill="none" stroke="black" cx="118" cy="-378" rx="27" ry="18"/>
<text text-anchor="middle" x="118" y="-374.3" font-family="Times,serif" font-size="14.00">1</text>
</g>
<!-- 7&#45;&gt;9 -->
<g id="edge8" class="edge"><title>7&#45;&gt;9</title>
<path fill="none" stroke="black" d="M127.095,-432.055C125.774,-424.346 124.176,-415.027 122.691,-406.364"/>
<polygon fill="black" stroke="black" points="126.101,-405.54 120.961,-396.275 119.202,-406.723 126.101,-405.54"/>
</g>
<!-- 11 -->
<g id="node10" class="node"><title>11</title>
<ellipse fill="none" stroke="black" cx="190" cy="-378" rx="27" ry="18"/>
<text text-anchor="middle" x="190" y="-374.3" font-family="Times,serif" font-size="14.00">2</text>
</g>
<!-- 10&#45;&gt;11 -->
<g id="edge10" class="edge"><title>10&#45;&gt;11</title>
<path fill="none" stroke="black" d="M215.012,-432.055C211.104,-423.767 206.32,-413.618 201.986,-404.424"/>
<polygon fill="black" stroke="black" points="205.118,-402.86 197.688,-395.307 198.786,-405.845 205.118,-402.86"/>
</g>
<!-- 12 -->
<g id="node11" class="node"><title>12</title>
<ellipse fill="none" stroke="black" cx="262" cy="-378" rx="27" ry="18"/>
<text text-anchor="middle" x="262" y="-374.3" font-family="Times,serif" font-size="14.00">1</text>
</g>
<!-- 10&#45;&gt;12 -->
<g id="edge11" class="edge"><title>10&#45;&gt;12</title>
<path fill="none" stroke="black" d="M232.242,-432.411C236.905,-424.042 242.662,-413.71 247.865,-404.37"/>
<polygon fill="black" stroke="black" points="251.014,-405.909 252.824,-395.47 244.899,-402.502 251.014,-405.909"/>
</g>
<!-- 14 -->
<g id="node12" class="node"><title>14</title>
<ellipse fill="none" stroke="black" cx="334" cy="-378" rx="27" ry="18"/>
<text text-anchor="middle" x="334" y="-374.3" font-family="Times,serif" font-size="14.00">IF</text>
</g>
<!-- 15 -->
<g id="node13" class="node"><title>15</title>
<ellipse fill="none" stroke="black" cx="99" cy="-306" rx="27" ry="18"/>
<text text-anchor="middle" x="99" y="-302.3" font-family="Times,serif" font-size="14.00">==</text>
</g>
<!-- 14&#45;&gt;15 -->
<g id="edge14" class="edge"><title>14&#45;&gt;15</title>
<path fill="none" stroke="black" d="M312.951,-366.282C308.11,-364.036 302.933,-361.805 298,-360 242.093,-339.546 174.727,-323.278 134.459,-314.404"/>
<polygon fill="black" stroke="black" points="135.1,-310.961 124.584,-312.256 133.612,-317.802 135.1,-310.961"/>
</g>
<!-- 18 -->
<g id="node16" class="node"><title>18</title>
<ellipse fill="none" stroke="black" cx="242" cy="-306" rx="37.0935" ry="18"/>
<text text-anchor="middle" x="242" y="-302.3" font-family="Times,serif" font-size="14.00">ATRIB</text>
</g>
<!-- 14&#45;&gt;18 -->
<g id="edge17" class="edge"><title>14&#45;&gt;18</title>
<path fill="none" stroke="black" d="M316.696,-363.834C303.344,-353.675 284.624,-339.431 269.264,-327.744"/>
<polygon fill="black" stroke="black" points="271.21,-324.827 261.132,-321.557 266.971,-330.398 271.21,-324.827"/>
</g>
<!-- 21 -->
<g id="node19" class="node"><title>21</title>
<ellipse fill="none" stroke="black" cx="334" cy="-306" rx="37.0935" ry="18"/>
<text text-anchor="middle" x="334" y="-302.3" font-family="Times,serif" font-size="14.00">ATRIB</text>
</g>
<!-- 14&#45;&gt;21 -->
<g id="edge20" class="edge"><title>14&#45;&gt;21</title>
<path fill="none" stroke="black" d="M334,-359.697C334,-351.983 334,-342.712 334,-334.112"/>
<polygon fill="black" stroke="black" points="337.5,-334.104 334,-324.104 330.5,-334.104 337.5,-334.104"/>
</g>
<!-- 16 -->
<g id="node14" class="node"><title>16</title>
<ellipse fill="none" stroke="black" cx="27" cy="-234" rx="27" ry="18"/>
<text text-anchor="middle" x="27" y="-230.3" font-family="Times,serif" font-size="14.00">3</text>
</g>
<!-- 15&#45;&gt;16 -->
<g id="edge15" class="edge"><title>15&#45;&gt;16</title>
<path fill="none" stroke="black" d="M84.4297,-290.834C74.2501,-280.938 60.4761,-267.546 48.9694,-256.359"/>
<polygon fill="black" stroke="black" points="51.4055,-253.846 41.7957,-249.385 46.5259,-258.865 51.4055,-253.846"/>
</g>
<!-- 17 -->
<g id="node15" class="node"><title>17</title>
<ellipse fill="none" stroke="black" cx="99" cy="-234" rx="27" ry="18"/>
<text text-anchor="middle" x="99" y="-230.3" font-family="Times,serif" font-size="14.00">0</text>
</g>
<!-- 15&#45;&gt;17 -->
<g id="edge16" class="edge"><title>15&#45;&gt;17</title>
<path fill="none" stroke="black" d="M99,-287.697C99,-279.983 99,-270.712 99,-262.112"/>
<polygon fill="black" stroke="black" points="102.5,-262.104 99,-252.104 95.5001,-262.104 102.5,-262.104"/>
</g>
<!-- 19 -->
<g id="node17" class="node"><title>19</title>
<ellipse fill="none" stroke="black" cx="171" cy="-234" rx="27" ry="18"/>
<text text-anchor="middle" x="171" y="-230.3" font-family="Times,serif" font-size="14.00">2</text>
</g>
<!-- 18&#45;&gt;19 -->
<g id="edge18" class="edge"><title>18&#45;&gt;19</title>
<path fill="none" stroke="black" d="M226.243,-289.465C216.512,-279.871 203.879,-267.416 193.15,-256.839"/>
<polygon fill="black" stroke="black" points="195.322,-254.064 185.744,-249.536 190.407,-259.049 195.322,-254.064"/>
</g>
<!-- 20 -->
<g id="node18" class="node"><title>20</title>
<ellipse fill="none" stroke="black" cx="243" cy="-234" rx="27" ry="18"/>
<text text-anchor="middle" x="243" y="-230.3" font-family="Times,serif" font-size="14.00">0</text>
</g>
<!-- 18&#45;&gt;20 -->
<g id="edge19" class="edge"><title>18&#45;&gt;20</title>
<path fill="none" stroke="black" d="M242.247,-287.697C242.357,-279.983 242.49,-270.712 242.613,-262.112"/>
<polygon fill="black" stroke="black" points="246.112,-262.153 242.756,-252.104 239.113,-262.053 246.112,-262.153"/>
</g>
<!-- 22 -->
<g id="node20" class="node"><title>22</title>
<ellipse fill="none" stroke="black" cx="315" cy="-234" rx="27" ry="18"/>
<text text-anchor="middle" x="315" y="-230.3" font-family="Times,serif" font-size="14.00">2</text>
</g>
<!-- 21&#45;&gt;22 -->
<g id="edge21" class="edge"><title>21&#45;&gt;22</title>
<path fill="none" stroke="black" d="M329.401,-288.055C327.254,-280.145 324.647,-270.54 322.244,-261.688"/>
<polygon fill="black" stroke="black" points="325.554,-260.523 319.557,-251.789 318.799,-262.357 325.554,-260.523"/>
</g>
<!-- 23 -->
<g id="node21" class="node"><title>23</title>
<ellipse fill="none" stroke="black" cx="421" cy="-234" rx="61.1893" ry="18"/>
<text text-anchor="middle" x="421" y="-230.3" font-family="Times,serif" font-size="14.00">CHAMFUNC</text>
</g>
<!-- 21&#45;&gt;23 -->
<g id="edge22" class="edge"><title>21&#45;&gt;23</title>
<path fill="none" stroke="black" d="M352.45,-290.155C364.264,-280.65 379.817,-268.136 393.121,-257.431"/>
<polygon fill="black" stroke="black" points="395.464,-260.039 401.061,-251.043 391.076,-254.585 395.464,-260.039"/>
</g>
<!-- 24 -->
<g id="node22" class="node"><title>24</title>
<ellipse fill="none" stroke="black" cx="352" cy="-162" rx="70.3881" ry="18"/>
<text text-anchor="middle" x="352" y="-158.3" font-family="Times,serif" font-size="14.00">PARAMETROS</text>
</g>
<!-- 23&#45;&gt;24 -->
<g id="edge23" class="edge"><title>23&#45;&gt;24</title>
<path fill="none" stroke="black" d="M404.648,-216.411C396.095,-207.734 385.461,-196.946 375.994,-187.342"/>
<polygon fill="black" stroke="black" points="378.227,-184.621 368.714,-179.956 373.241,-189.535 378.227,-184.621"/>
</g>
<!-- 25 -->
<g id="node23" class="node"><title>25</title>
<ellipse fill="none" stroke="black" cx="294" cy="-90" rx="70.3881" ry="18"/>
<text text-anchor="middle" x="294" y="-86.3" font-family="Times,serif" font-size="14.00">PARAMETROS</text>
</g>
<!-- 24&#45;&gt;25 -->
<g id="edge24" class="edge"><title>24&#45;&gt;25</title>
<path fill="none" stroke="black" d="M337.96,-144.055C330.907,-135.543 322.228,-125.068 314.45,-115.681"/>
<polygon fill="black" stroke="black" points="316.986,-113.256 307.911,-107.789 311.596,-117.722 316.986,-113.256"/>
</g>
<!-- 27 -->
<g id="node25" class="node"><title>27</title>
<ellipse fill="none" stroke="black" cx="410" cy="-90" rx="27.8951" ry="18"/>
<text text-anchor="middle" x="410" y="-86.3" font-family="Times,serif" font-size="14.00">SUB</text>
</g>
<!-- 24&#45;&gt;27 -->
<g id="edge26" class="edge"><title>24&#45;&gt;27</title>
<path fill="none" stroke="black" d="M366.04,-144.055C373.479,-135.077 382.726,-123.917 390.817,-114.152"/>
<polygon fill="black" stroke="black" points="393.591,-116.29 397.276,-106.356 388.201,-111.824 393.591,-116.29"/>
</g>
<!-- 26 -->
<g id="node24" class="node"><title>26</title>
<ellipse fill="none" stroke="black" cx="294" cy="-18" rx="27" ry="18"/>
<text text-anchor="middle" x="294" y="-14.3" font-family="Times,serif" font-size="14.00">0</text>
</g>
<!-- 25&#45;&gt;26 -->
<g id="edge25" class="edge"><title>25&#45;&gt;26</title>
<path fill="none" stroke="black" d="M294,-71.6966C294,-63.9827 294,-54.7125 294,-46.1124"/>
<polygon fill="black" stroke="black" points="297.5,-46.1043 294,-36.1043 290.5,-46.1044 297.5,-46.1043"/>
</g>
<!-- 28 -->
<g id="node26" class="node"><title>28</title>
<ellipse fill="none" stroke="black" cx="388" cy="-18" rx="27" ry="18"/>
<text text-anchor="middle" x="388" y="-14.3" font-family="Times,serif" font-size="14.00">1</text>
</g>
<!-- 27&#45;&gt;28 -->
<g id="edge27" class="edge"><title>27&#45;&gt;28</title>
<path fill="none" stroke="black" d="M404.674,-72.055C402.161,-64.0586 399.104,-54.3308 396.297,-45.3995"/>
<polygon fill="black" stroke="black" points="399.614,-44.2795 393.277,-35.789 392.936,-46.3784 399.614,-44.2795"/>
</g>
<!-- 29 -->
<g id="node27" class="node"><title>29</title>
<ellipse fill="none" stroke="black" cx="460" cy="-18" rx="27" ry="18"/>
<text text-anchor="middle" x="460" y="-14.3" font-family="Times,serif" font-size="14.00">1</text>
</g>
<!-- 27&#45;&gt;29 -->
<g id="edge28" class="edge"><title>27&#45;&gt;29</title>
<path fill="none" stroke="black" d="M421.097,-73.4647C427.505,-64.4927 435.701,-53.0185 442.916,-42.9176"/>
<polygon fill="black" stroke="black" points="445.97,-44.6635 448.934,-34.4918 440.274,-40.5948 445.97,-44.6635"/>
</g>
<!-- 31 -->
<g id="node28" class="node"><title>31</title>
<ellipse fill="none" stroke="black" cx="564" cy="-306" rx="39.7935" ry="18"/>
<text text-anchor="middle" x="564" y="-302.3" font-family="Times,serif" font-size="14.00">WHILE</text>
</g>
<!-- 32 -->
<g id="node29" class="node"><title>32</title>
<ellipse fill="none" stroke="black" cx="529" cy="-234" rx="27" ry="18"/>
<text text-anchor="middle" x="529" y="-230.3" font-family="Times,serif" font-size="14.00">&gt;</text>
</g>
<!-- 31&#45;&gt;32 -->
<g id="edge31" class="edge"><title>31&#45;&gt;32</title>
<path fill="none" stroke="black" d="M555.527,-288.055C551.383,-279.767 546.309,-269.618 541.712,-260.424"/>
<polygon fill="black" stroke="black" points="544.756,-258.686 537.153,-251.307 538.495,-261.817 544.756,-258.686"/>
</g>
<!-- 35 -->
<g id="node32" class="node"><title>35</title>
<ellipse fill="none" stroke="black" cx="611" cy="-234" rx="37.0935" ry="18"/>
<text text-anchor="middle" x="611" y="-230.3" font-family="Times,serif" font-size="14.00">ATRIB</text>
</g>
<!-- 31&#45;&gt;35 -->
<g id="edge34" class="edge"><title>31&#45;&gt;35</title>
<path fill="none" stroke="black" d="M575.138,-288.411C580.875,-279.868 587.984,-269.278 594.357,-259.787"/>
<polygon fill="black" stroke="black" points="597.273,-261.723 599.942,-251.47 591.461,-257.821 597.273,-261.723"/>
</g>
<!-- 33 -->
<g id="node30" class="node"><title>33</title>
<ellipse fill="none" stroke="black" cx="467" cy="-162" rx="27" ry="18"/>
<text text-anchor="middle" x="467" y="-158.3" font-family="Times,serif" font-size="14.00">3</text>
</g>
<!-- 32&#45;&gt;33 -->
<g id="edge32" class="edge"><title>32&#45;&gt;33</title>
<path fill="none" stroke="black" d="M515.851,-218.155C507.467,-208.689 496.44,-196.238 486.984,-185.563"/>
<polygon fill="black" stroke="black" points="489.38,-182.989 480.13,-177.824 484.14,-187.63 489.38,-182.989"/>
</g>
<!-- 34 -->
<g id="node31" class="node"><title>34</title>
<ellipse fill="none" stroke="black" cx="539" cy="-162" rx="27" ry="18"/>
<text text-anchor="middle" x="539" y="-158.3" font-family="Times,serif" font-size="14.00">0</text>
</g>
<!-- 32&#45;&gt;34 -->
<g id="edge33" class="edge"><title>32&#45;&gt;34</title>
<path fill="none" stroke="black" d="M531.421,-216.055C532.522,-208.346 533.853,-199.027 535.091,-190.364"/>
<polygon fill="black" stroke="black" points="538.583,-190.67 536.532,-180.275 531.653,-189.68 538.583,-190.67"/>
</g>
<!-- 36 -->
<g id="node33" class="node"><title>36</title>
<ellipse fill="none" stroke="black" cx="611" cy="-162" rx="27" ry="18"/>
<text text-anchor="middle" x="611" y="-158.3" font-family="Times,serif" font-size="14.00">3</text>
</g>
<!-- 35&#45;&gt;36 -->
<g id="edge35" class="edge"><title>35&#45;&gt;36</title>
<path fill="none" stroke="black" d="M611,-215.697C611,-207.983 611,-198.712 611,-190.112"/>
<polygon fill="black" stroke="black" points="614.5,-190.104 611,-180.104 607.5,-190.104 614.5,-190.104"/>
</g>
<!-- 37 -->
<g id="node34" class="node"><title>37</title>
<ellipse fill="none" stroke="black" cx="684" cy="-162" rx="27.8951" ry="18"/>
<text text-anchor="middle" x="684" y="-158.3" font-family="Times,serif" font-size="14.00">SUB</text>
</g>
<!-- 35&#45;&gt;37 -->
<g id="edge36" class="edge"><title>35&#45;&gt;37</title>
<path fill="none" stroke="black" d="M627.201,-217.465C637.303,-207.778 650.447,-195.174 661.546,-184.531"/>
<polygon fill="black" stroke="black" points="664.046,-186.983 668.841,-177.536 659.201,-181.931 664.046,-186.983"/>
</g>
<!-- 38 -->
<g id="node35" class="node"><title>38</title>
<ellipse fill="none" stroke="black" cx="648" cy="-90" rx="27" ry="18"/>
<text text-anchor="middle" x="648" y="-86.3" font-family="Times,serif" font-size="14.00">3</text>
</g>
<!-- 37&#45;&gt;38 -->
<g id="edge37" class="edge"><title>37&#45;&gt;38</title>
<path fill="none" stroke="black" d="M675.65,-144.765C671.288,-136.283 665.853,-125.714 660.959,-116.197"/>
<polygon fill="black" stroke="black" points="663.99,-114.439 656.304,-107.147 657.765,-117.641 663.99,-114.439"/>
</g>
<!-- 39 -->
<g id="node36" class="node"><title>39</title>
<ellipse fill="none" stroke="black" cx="720" cy="-90" rx="27" ry="18"/>
<text text-anchor="middle" x="720" y="-86.3" font-family="Times,serif" font-size="14.00">1</text>
</g>
<!-- 37&#45;&gt;39 -->
<g id="edge38" class="edge"><title>37&#45;&gt;39</title>
<path fill="none" stroke="black" d="M692.35,-144.765C696.712,-136.283 702.147,-125.714 707.041,-116.197"/>
<polygon fill="black" stroke="black" points="710.235,-117.641 711.696,-107.147 704.01,-114.439 710.235,-117.641"/>
</g>
<!-- 40 -->
<g id="node37" class="node"><title>40</title>
<ellipse fill="none" stroke="black" cx="693" cy="-306" rx="37.0935" ry="18"/>
<text text-anchor="middle" x="693" y="-302.3" font-family="Times,serif" font-size="14.00">ATRIB</text>
</g>
<!-- 41 -->
<g id="node38" class="node"><title>41</title>
<ellipse fill="none" stroke="black" cx="693" cy="-234" rx="27" ry="18"/>
<text text-anchor="middle" x="693" y="-230.3" font-family="Times,serif" font-size="14.00">3</text>
</g>
<!-- 40&#45;&gt;41 -->
<g id="edge40" class="edge"><title>40&#45;&gt;41</title>
<path fill="none" stroke="black" d="M693,-287.697C693,-279.983 693,-270.712 693,-262.112"/>
<polygon fill="black" stroke="black" points="696.5,-262.104 693,-252.104 689.5,-262.104 696.5,-262.104"/>
</g>
<!-- 42 -->
<g id="node39" class="node"><title>42</title>
<ellipse fill="none" stroke="black" cx="765" cy="-234" rx="27" ry="18"/>
<text text-anchor="middle" x="765" y="-230.3" font-family="Times,serif" font-size="14.00">0</text>
</g>
<!-- 40&#45;&gt;42 -->
<g id="edge41" class="edge"><title>40&#45;&gt;42</title>
<path fill="none" stroke="black" d="M708.979,-289.465C718.943,-279.778 731.907,-267.174 742.854,-256.531"/>
<polygon fill="black" stroke="black" points="745.319,-259.016 750.049,-249.536 740.439,-253.997 745.319,-259.016"/>
</g>
<!-- 44 -->
<g id="node40" class="node"><title>44</title>
<ellipse fill="none" stroke="black" cx="580" cy="-594" rx="27" ry="18"/>
<text text-anchor="middle" x="580" y="-590.3" font-family="Times,serif" font-size="14.00">IF</text>
</g>
<!-- 45 -->
<g id="node41" class="node"><title>45</title>
<ellipse fill="none" stroke="black" cx="471" cy="-522" rx="27" ry="18"/>
<text text-anchor="middle" x="471" y="-518.3" font-family="Times,serif" font-size="14.00">==</text>
</g>
<!-- 44&#45;&gt;45 -->
<g id="edge44" class="edge"><title>44&#45;&gt;45</title>
<path fill="none" stroke="black" d="M561.014,-580.807C543.665,-569.665 517.811,-553.062 498.257,-540.504"/>
<polygon fill="black" stroke="black" points="500.074,-537.512 489.769,-535.053 496.292,-543.402 500.074,-537.512"/>
</g>
<!-- 48 -->
<g id="node44" class="node"><title>48</title>
<ellipse fill="none" stroke="black" cx="580" cy="-522" rx="36.2938" ry="18"/>
<text text-anchor="middle" x="580" y="-518.3" font-family="Times,serif" font-size="14.00">PRINT</text>
</g>
<!-- 44&#45;&gt;48 -->
<g id="edge47" class="edge"><title>44&#45;&gt;48</title>
<path fill="none" stroke="black" d="M580,-575.697C580,-567.983 580,-558.712 580,-550.112"/>
<polygon fill="black" stroke="black" points="583.5,-550.104 580,-540.104 576.5,-550.104 583.5,-550.104"/>
</g>
<!-- 50 -->
<g id="node46" class="node"><title>50</title>
<ellipse fill="none" stroke="black" cx="691" cy="-522" rx="36.2938" ry="18"/>
<text text-anchor="middle" x="691" y="-518.3" font-family="Times,serif" font-size="14.00">PRINT</text>
</g>
<!-- 44&#45;&gt;50 -->
<g id="edge49" class="edge"><title>44&#45;&gt;50</title>
<path fill="none" stroke="black" d="M599.082,-580.967C616.068,-570.255 641.202,-554.404 660.896,-541.984"/>
<polygon fill="black" stroke="black" points="662.922,-544.845 669.514,-536.55 659.188,-538.924 662.922,-544.845"/>
</g>
<!-- 46 -->
<g id="node42" class="node"><title>46</title>
<ellipse fill="none" stroke="black" cx="399" cy="-450" rx="27" ry="18"/>
<text text-anchor="middle" x="399" y="-446.3" font-family="Times,serif" font-size="14.00">ret</text>
</g>
<!-- 45&#45;&gt;46 -->
<g id="edge45" class="edge"><title>45&#45;&gt;46</title>
<path fill="none" stroke="black" d="M456.43,-506.834C446.25,-496.938 432.476,-483.546 420.969,-472.359"/>
<polygon fill="black" stroke="black" points="423.405,-469.846 413.796,-465.385 418.526,-474.865 423.405,-469.846"/>
</g>
<!-- 47 -->
<g id="node43" class="node"><title>47</title>
<ellipse fill="none" stroke="black" cx="471" cy="-450" rx="27" ry="18"/>
<text text-anchor="middle" x="471" y="-446.3" font-family="Times,serif" font-size="14.00">0</text>
</g>
<!-- 45&#45;&gt;47 -->
<g id="edge46" class="edge"><title>45&#45;&gt;47</title>
<path fill="none" stroke="black" d="M471,-503.697C471,-495.983 471,-486.712 471,-478.112"/>
<polygon fill="black" stroke="black" points="474.5,-478.104 471,-468.104 467.5,-478.104 474.5,-478.104"/>
</g>
<!-- 49 -->
<g id="node45" class="node"><title>49</title>
<ellipse fill="none" stroke="black" cx="580" cy="-450" rx="63.8893" ry="18"/>
<text text-anchor="middle" x="580" y="-446.3" font-family="Times,serif" font-size="14.00"> nao eh primo!</text>
</g>
<!-- 48&#45;&gt;49 -->
<g id="edge48" class="edge"><title>48&#45;&gt;49</title>
<path fill="none" stroke="black" d="M580,-503.697C580,-495.983 580,-486.712 580,-478.112"/>
<polygon fill="black" stroke="black" points="583.5,-478.104 580,-468.104 576.5,-478.104 583.5,-478.104"/>
</g>
<!-- 51 -->
<g id="node47" class="node"><title>51</title>
<ellipse fill="none" stroke="black" cx="710" cy="-450" rx="48.1917" ry="18"/>
<text text-anchor="middle" x="710" y="-446.3" font-family="Times,serif" font-size="14.00"> eh primo!</text>
</g>
<!-- 50&#45;&gt;51 -->
<g id="edge50" class="edge"><title>50&#45;&gt;51</title>
<path fill="none" stroke="black" d="M695.599,-504.055C697.715,-496.261 700.277,-486.822 702.65,-478.079"/>
<polygon fill="black" stroke="black" points="706.069,-478.843 705.311,-468.275 699.314,-477.009 706.069,-478.843"/>
</g>
<!-- 53 -->
<g id="node48" class="node"><title>53</title>
<ellipse fill="none" stroke="black" cx="803" cy="-522" rx="36.2938" ry="18"/>
<text text-anchor="middle" x="803" y="-518.3" font-family="Times,serif" font-size="14.00">PRINT</text>
</g>
<!-- 54 -->
<g id="node49" class="node"><title>54</title>
<ellipse fill="none" stroke="black" cx="803" cy="-450" rx="27" ry="18"/>
<text text-anchor="middle" x="803" y="-446.3" font-family="Times,serif" font-size="14.00">n</text>
</g>
<!-- 53&#45;&gt;54 -->
<g id="edge53" class="edge"><title>53&#45;&gt;54</title>
<path fill="none" stroke="black" d="M803,-503.697C803,-495.983 803,-486.712 803,-478.112"/>
<polygon fill="black" stroke="black" points="806.5,-478.104 803,-468.104 799.5,-478.104 806.5,-478.104"/>
</g>
<!-- 56 -->
<g id="node50" class="node"><title>56</title>
<ellipse fill="none" stroke="black" cx="885" cy="-450" rx="37.0935" ry="18"/>
<text text-anchor="middle" x="885" y="-446.3" font-family="Times,serif" font-size="14.00">ATRIB</text>
</g>
<!-- 57 -->
<g id="node51" class="node"><title>57</title>
<ellipse fill="none" stroke="black" cx="779" cy="-378" rx="27" ry="18"/>
<text text-anchor="middle" x="779" y="-374.3" font-family="Times,serif" font-size="14.00">ret</text>
</g>
<!-- 56&#45;&gt;57 -->
<g id="edge56" class="edge"><title>56&#45;&gt;57</title>
<path fill="none" stroke="black" d="M863.804,-435.003C847.34,-424.13 824.38,-408.968 806.501,-397.161"/>
<polygon fill="black" stroke="black" points="807.95,-393.923 797.676,-391.333 804.092,-399.765 807.95,-393.923"/>
</g>
<!-- 58 -->
<g id="node52" class="node"><title>58</title>
<ellipse fill="none" stroke="black" cx="885" cy="-378" rx="61.1893" ry="18"/>
<text text-anchor="middle" x="885" y="-374.3" font-family="Times,serif" font-size="14.00">CHAMFUNC</text>
</g>
<!-- 56&#45;&gt;58 -->
<g id="edge57" class="edge"><title>56&#45;&gt;58</title>
<path fill="none" stroke="black" d="M885,-431.697C885,-423.983 885,-414.712 885,-406.112"/>
<polygon fill="black" stroke="black" points="888.5,-406.104 885,-396.104 881.5,-406.104 888.5,-406.104"/>
</g>
<!-- 59 -->
<g id="node53" class="node"><title>59</title>
<ellipse fill="none" stroke="black" cx="885" cy="-306" rx="70.3881" ry="18"/>
<text text-anchor="middle" x="885" y="-302.3" font-family="Times,serif" font-size="14.00">PARAMETROS</text>
</g>
<!-- 58&#45;&gt;59 -->
<g id="edge58" class="edge"><title>58&#45;&gt;59</title>
<path fill="none" stroke="black" d="M885,-359.697C885,-351.983 885,-342.712 885,-334.112"/>
<polygon fill="black" stroke="black" points="888.5,-334.104 885,-324.104 881.5,-334.104 888.5,-334.104"/>
</g>
<!-- 60 -->
<g id="node54" class="node"><title>60</title>
<ellipse fill="none" stroke="black" cx="881" cy="-234" rx="70.3881" ry="18"/>
<text text-anchor="middle" x="881" y="-230.3" font-family="Times,serif" font-size="14.00">PARAMETROS</text>
</g>
<!-- 59&#45;&gt;60 -->
<g id="edge59" class="edge"><title>59&#45;&gt;60</title>
<path fill="none" stroke="black" d="M884.011,-287.697C883.57,-279.983 883.041,-270.712 882.549,-262.112"/>
<polygon fill="black" stroke="black" points="886.042,-261.888 881.977,-252.104 879.054,-262.288 886.042,-261.888"/>
</g>
<!-- 62 -->
<g id="node56" class="node"><title>62</title>
<ellipse fill="none" stroke="black" cx="997" cy="-234" rx="27.8951" ry="18"/>
<text text-anchor="middle" x="997" y="-230.3" font-family="Times,serif" font-size="14.00">SUB</text>
</g>
<!-- 59&#45;&gt;62 -->
<g id="edge61" class="edge"><title>59&#45;&gt;62</title>
<path fill="none" stroke="black" d="M910.415,-289.116C927.782,-278.261 950.811,-263.868 968.753,-252.654"/>
<polygon fill="black" stroke="black" points="970.99,-255.384 977.615,-247.116 967.28,-249.448 970.99,-255.384"/>
</g>
<!-- 61 -->
<g id="node55" class="node"><title>61</title>
<ellipse fill="none" stroke="black" cx="881" cy="-162" rx="27" ry="18"/>
<text text-anchor="middle" x="881" y="-158.3" font-family="Times,serif" font-size="14.00">n</text>
</g>
<!-- 60&#45;&gt;61 -->
<g id="edge60" class="edge"><title>60&#45;&gt;61</title>
<path fill="none" stroke="black" d="M881,-215.697C881,-207.983 881,-198.712 881,-190.112"/>
<polygon fill="black" stroke="black" points="884.5,-190.104 881,-180.104 877.5,-190.104 884.5,-190.104"/>
</g>
<!-- 63 -->
<g id="node57" class="node"><title>63</title>
<ellipse fill="none" stroke="black" cx="975" cy="-162" rx="27" ry="18"/>
<text text-anchor="middle" x="975" y="-158.3" font-family="Times,serif" font-size="14.00">n</text>
</g>
<!-- 62&#45;&gt;63 -->
<g id="edge62" class="edge"><title>62&#45;&gt;63</title>
<path fill="none" stroke="black" d="M991.674,-216.055C989.161,-208.059 986.104,-198.331 983.297,-189.4"/>
<polygon fill="black" stroke="black" points="986.614,-188.28 980.277,-179.789 979.936,-190.378 986.614,-188.28"/>
</g>
<!-- 64 -->
<g id="node58" class="node"><title>64</title>
<ellipse fill="none" stroke="black" cx="1047" cy="-162" rx="27" ry="18"/>
<text text-anchor="middle" x="1047" y="-158.3" font-family="Times,serif" font-size="14.00">1</text>
</g>
<!-- 62&#45;&gt;64 -->
<g id="edge63" class="edge"><title>62&#45;&gt;64</title>
<path fill="none" stroke="black" d="M1008.1,-217.465C1014.51,-208.493 1022.7,-197.019 1029.92,-186.918"/>
<polygon fill="black" stroke="black" points="1032.97,-188.664 1035.93,-178.492 1027.27,-184.595 1032.97,-188.664"/>
</g>
<!-- 65 -->
<g id="node59" class="node"><title>65</title>
<ellipse fill="none" stroke="black" cx="991" cy="-450" rx="37.0935" ry="18"/>
<text text-anchor="middle" x="991" y="-446.3" font-family="Times,serif" font-size="14.00">ATRIB</text>
</g>
<!-- 66 -->
<g id="node60" class="node"><title>66</title>
<ellipse fill="none" stroke="black" cx="991" cy="-378" rx="27" ry="18"/>
<text text-anchor="middle" x="991" y="-374.3" font-family="Times,serif" font-size="14.00">n</text>
</g>
<!-- 65&#45;&gt;66 -->
<g id="edge65" class="edge"><title>65&#45;&gt;66</title>
<path fill="none" stroke="black" d="M991,-431.697C991,-423.983 991,-414.712 991,-406.112"/>
<polygon fill="black" stroke="black" points="994.5,-406.104 991,-396.104 987.5,-406.104 994.5,-406.104"/>
</g>
<!-- 67 -->
<g id="node61" class="node"><title>67</title>
<ellipse fill="none" stroke="black" cx="1063" cy="-378" rx="27" ry="18"/>
<text text-anchor="middle" x="1063" y="-374.3" font-family="Times,serif" font-size="14.00">7</text>
</g>
<!-- 65&#45;&gt;67 -->
<g id="edge66" class="edge"><title>65&#45;&gt;67</title>
<path fill="none" stroke="black" d="M1006.98,-433.465C1016.94,-423.778 1029.91,-411.174 1040.85,-400.531"/>
<polygon fill="black" stroke="black" points="1043.32,-403.016 1048.05,-393.536 1038.44,-397.997 1043.32,-403.016"/>
</g>
<!-- 3&#45;&gt;4 -->
<g id="edge3" class="edge"><title>3&#45;&gt;4</title>
<path fill="none" stroke="black" d="M202.718,-581.908C183.177,-571.222 153.22,-554.839 129.854,-542.061"/>
<polygon fill="black" stroke="black" points="131.391,-538.912 120.938,-537.185 128.032,-545.054 131.391,-538.912"/>
</g>
<!-- 3&#45;&gt;6 -->
<g id="edge5" class="edge"><title>3&#45;&gt;6</title>
<path fill="none" stroke="black" d="M223,-575.697C223,-567.983 223,-558.712 223,-550.112"/>
<polygon fill="black" stroke="black" points="226.5,-550.104 223,-540.104 219.5,-550.104 226.5,-550.104"/>
</g>
<!-- 13&#45;&gt;14 -->
<g id="edge13" class="edge"><title>13&#45;&gt;14</title>
<path fill="none" stroke="black" d="M328.73,-431.697C329.502,-423.983 330.429,-414.712 331.289,-406.112"/>
<polygon fill="black" stroke="black" points="334.777,-406.403 332.29,-396.104 327.812,-405.706 334.777,-406.403"/>
</g>
<!-- 30 -->
<g id="node64" class="node"><title>30</title>
<ellipse fill="none" stroke="black" cx="564" cy="-378" rx="27" ry="18"/>
<text text-anchor="middle" x="564" y="-374.3" font-family="Times,serif" font-size="14.00">30</text>
</g>
<!-- 13&#45;&gt;30 -->
<g id="edge29" class="edge"><title>13&#45;&gt;30</title>
<path fill="none" stroke="black" d="M348.045,-438.273C352.887,-436.028 358.065,-433.799 363,-432 419.613,-411.367 487.88,-395.103 528.517,-386.286"/>
<polygon fill="black" stroke="black" points="529.429,-389.67 538.475,-384.155 527.964,-382.825 529.429,-389.67"/>
</g>
<!-- 30&#45;&gt;31 -->
<g id="edge30" class="edge"><title>30&#45;&gt;31</title>
<path fill="none" stroke="black" d="M564,-359.697C564,-351.983 564,-342.712 564,-334.112"/>
<polygon fill="black" stroke="black" points="567.5,-334.104 564,-324.104 560.5,-334.104 567.5,-334.104"/>
</g>
<!-- 30&#45;&gt;40 -->
<g id="edge39" class="edge"><title>30&#45;&gt;40</title>
<path fill="none" stroke="black" d="M584.44,-365.908C604.761,-354.882 636.258,-337.79 660.102,-324.851"/>
<polygon fill="black" stroke="black" points="662.029,-327.788 669.149,-319.942 658.69,-321.636 662.029,-327.788"/>
</g>
<!-- 43&#45;&gt;44 -->
<g id="edge43" class="edge"><title>43&#45;&gt;44</title>
<path fill="none" stroke="black" d="M580,-647.697C580,-639.983 580,-630.712 580,-622.112"/>
<polygon fill="black" stroke="black" points="583.5,-622.104 580,-612.104 576.5,-622.104 583.5,-622.104"/>
</g>
<!-- 52 -->
<g id="node66" class="node"><title>52</title>
<ellipse fill="none" stroke="black" cx="803" cy="-594" rx="27" ry="18"/>
<text text-anchor="middle" x="803" y="-590.3" font-family="Times,serif" font-size="14.00">52</text>
</g>
<!-- 43&#45;&gt;52 -->
<g id="edge51" class="edge"><title>43&#45;&gt;52</title>
<path fill="none" stroke="black" d="M603.865,-657.509C643.664,-645.016 723.704,-619.891 769.258,-605.592"/>
<polygon fill="black" stroke="black" points="770.477,-608.878 778.97,-602.543 768.38,-602.199 770.477,-608.878"/>
</g>
<!-- 52&#45;&gt;53 -->
<g id="edge52" class="edge"><title>52&#45;&gt;53</title>
<path fill="none" stroke="black" d="M803,-575.697C803,-567.983 803,-558.712 803,-550.112"/>
<polygon fill="black" stroke="black" points="806.5,-550.104 803,-540.104 799.5,-550.104 806.5,-550.104"/>
</g>
<!-- 55 -->
<g id="node67" class="node"><title>55</title>
<ellipse fill="none" stroke="black" cx="885" cy="-522" rx="27" ry="18"/>
<text text-anchor="middle" x="885" y="-518.3" font-family="Times,serif" font-size="14.00">55</text>
</g>
<!-- 52&#45;&gt;55 -->
<g id="edge54" class="edge"><title>52&#45;&gt;55</title>
<path fill="none" stroke="black" d="M819.201,-579.17C831.183,-568.942 847.691,-554.849 861.175,-543.338"/>
<polygon fill="black" stroke="black" points="863.779,-545.717 869.112,-536.563 859.234,-540.394 863.779,-545.717"/>
</g>
<!-- 55&#45;&gt;56 -->
<g id="edge55" class="edge"><title>55&#45;&gt;56</title>
<path fill="none" stroke="black" d="M885,-503.697C885,-495.983 885,-486.712 885,-478.112"/>
<polygon fill="black" stroke="black" points="888.5,-478.104 885,-468.104 881.5,-478.104 888.5,-478.104"/>
</g>
<!-- 55&#45;&gt;65 -->
<g id="edge64" class="edge"><title>55&#45;&gt;65</title>
<path fill="none" stroke="black" d="M903.464,-508.807C919.44,-498.257 942.832,-482.809 961.417,-470.536"/>
<polygon fill="black" stroke="black" points="963.42,-473.408 969.836,-464.976 959.562,-467.566 963.42,-473.408"/>
</g>
</g>
</svg>
