<?xml version="1.0" encoding="UTF-8" standalone="no"?>
<!DOCTYPE svg PUBLIC "-//W3C//DTD SVG 1.1//EN"
 "http://www.w3.org/Graphics/SVG/1.1/DTD/svg11.dtd">
<!-- Generated by graphviz version 2.38.0 (20140413.2041)
 -->
<!-- Title: G Pages: 1 -->
<svg width="364pt" height="404pt"
 viewBox="0.00 0.00 364.40 404.00" xmlns="http://www.w3.org/2000/svg" xmlns:xlink="http://www.w3.org/1999/xlink">
<g id="graph0" class="graph" transform="scale(1 1) rotate(0) translate(4 400)">
<title>G</title>
<polygon fill="white" stroke="none" points="-4,4 -4,-400 360.397,-400 360.397,4 -4,4"/>
<!-- 2 -->
<g id="node1" class="node"><title>2</title>
<ellipse fill="none" stroke="black" cx="163" cy="-306" rx="36.2938" ry="18"/>
<text text-anchor="middle" x="163" y="-302.3" font-family="Times,serif" font-size="14.00">PRINT</text>
</g>
<!-- 3 -->
<g id="node2" class="node"><title>3</title>
<ellipse fill="none" stroke="black" cx="163" cy="-234" rx="27" ry="18"/>
<text text-anchor="middle" x="163" y="-230.3" font-family="Times,serif" font-size="14.00">y</text>
</g>
<!-- 2&#45;&gt;3 -->
<g id="edge2" class="edge"><title>2&#45;&gt;3</title>
<path fill="none" stroke="black" d="M163,-287.697C163,-279.983 163,-270.712 163,-262.112"/>
<polygon fill="black" stroke="black" points="166.5,-262.104 163,-252.104 159.5,-262.104 166.5,-262.104"/>
</g>
<!-- 4 -->
<g id="node3" class="node"><title>4</title>
<ellipse fill="none" stroke="black" cx="244" cy="-306" rx="27" ry="18"/>
<text text-anchor="middle" x="244" y="-302.3" font-family="Times,serif" font-size="14.00">IF</text>
</g>
<!-- 5 -->
<g id="node4" class="node"><title>5</title>
<ellipse fill="none" stroke="black" cx="239" cy="-234" rx="27" ry="18"/>
<text text-anchor="middle" x="239" y="-230.3" font-family="Times,serif" font-size="14.00">||</text>
</g>
<!-- 4&#45;&gt;5 -->
<g id="edge4" class="edge"><title>4&#45;&gt;5</title>
<path fill="none" stroke="black" d="M242.764,-287.697C242.213,-279.983 241.551,-270.712 240.937,-262.112"/>
<polygon fill="black" stroke="black" points="244.425,-261.83 240.222,-252.104 237.443,-262.328 244.425,-261.83"/>
</g>
<!-- 15 -->
<g id="node14" class="node"><title>15</title>
<ellipse fill="none" stroke="black" cx="320" cy="-234" rx="36.2938" ry="18"/>
<text text-anchor="middle" x="320" y="-230.3" font-family="Times,serif" font-size="14.00">PRINT</text>
</g>
<!-- 4&#45;&gt;15 -->
<g id="edge14" class="edge"><title>4&#45;&gt;15</title>
<path fill="none" stroke="black" d="M259.38,-290.834C269.911,-281.134 284.088,-268.077 296.083,-257.028"/>
<polygon fill="black" stroke="black" points="298.607,-259.463 303.591,-250.114 293.864,-254.314 298.607,-259.463"/>
</g>
<!-- 6 -->
<g id="node5" class="node"><title>6</title>
<ellipse fill="none" stroke="black" cx="171" cy="-162" rx="27" ry="18"/>
<text text-anchor="middle" x="171" y="-158.3" font-family="Times,serif" font-size="14.00">&amp;&amp;</text>
</g>
<!-- 5&#45;&gt;6 -->
<g id="edge5" class="edge"><title>5&#45;&gt;6</title>
<path fill="none" stroke="black" d="M224.91,-218.496C215.428,-208.735 202.756,-195.69 192.08,-184.7"/>
<polygon fill="black" stroke="black" points="194.55,-182.22 185.072,-177.485 189.529,-187.097 194.55,-182.22"/>
</g>
<!-- 13 -->
<g id="node12" class="node"><title>13</title>
<ellipse fill="none" stroke="black" cx="243" cy="-162" rx="27" ry="18"/>
<text text-anchor="middle" x="243" y="-158.3" font-family="Times,serif" font-size="14.00">!</text>
</g>
<!-- 5&#45;&gt;13 -->
<g id="edge12" class="edge"><title>5&#45;&gt;13</title>
<path fill="none" stroke="black" d="M239.989,-215.697C240.43,-207.983 240.959,-198.712 241.451,-190.112"/>
<polygon fill="black" stroke="black" points="244.946,-190.288 242.023,-180.104 237.958,-189.888 244.946,-190.288"/>
</g>
<!-- 7 -->
<g id="node6" class="node"><title>7</title>
<ellipse fill="none" stroke="black" cx="99" cy="-90" rx="27" ry="18"/>
<text text-anchor="middle" x="99" y="-86.3" font-family="Times,serif" font-size="14.00">&gt;</text>
</g>
<!-- 6&#45;&gt;7 -->
<g id="edge6" class="edge"><title>6&#45;&gt;7</title>
<path fill="none" stroke="black" d="M156.43,-146.834C146.25,-136.938 132.476,-123.546 120.969,-112.359"/>
<polygon fill="black" stroke="black" points="123.405,-109.846 113.796,-105.385 118.526,-114.865 123.405,-109.846"/>
</g>
<!-- 10 -->
<g id="node9" class="node"><title>10</title>
<ellipse fill="none" stroke="black" cx="171" cy="-90" rx="27" ry="18"/>
<text text-anchor="middle" x="171" y="-86.3" font-family="Times,serif" font-size="14.00">!=</text>
</g>
<!-- 6&#45;&gt;10 -->
<g id="edge9" class="edge"><title>6&#45;&gt;10</title>
<path fill="none" stroke="black" d="M171,-143.697C171,-135.983 171,-126.712 171,-118.112"/>
<polygon fill="black" stroke="black" points="174.5,-118.104 171,-108.104 167.5,-118.104 174.5,-118.104"/>
</g>
<!-- 8 -->
<g id="node7" class="node"><title>8</title>
<ellipse fill="none" stroke="black" cx="27" cy="-18" rx="27" ry="18"/>
<text text-anchor="middle" x="27" y="-14.3" font-family="Times,serif" font-size="14.00">x</text>
</g>
<!-- 7&#45;&gt;8 -->
<g id="edge7" class="edge"><title>7&#45;&gt;8</title>
<path fill="none" stroke="black" d="M84.4297,-74.8345C74.2501,-64.9376 60.4761,-51.5462 48.9694,-40.3591"/>
<polygon fill="black" stroke="black" points="51.4055,-37.8461 41.7957,-33.3847 46.5259,-42.865 51.4055,-37.8461"/>
</g>
<!-- 9 -->
<g id="node8" class="node"><title>9</title>
<ellipse fill="none" stroke="black" cx="99" cy="-18" rx="27" ry="18"/>
<text text-anchor="middle" x="99" y="-14.3" font-family="Times,serif" font-size="14.00">10</text>
</g>
<!-- 7&#45;&gt;9 -->
<g id="edge8" class="edge"><title>7&#45;&gt;9</title>
<path fill="none" stroke="black" d="M99,-71.6966C99,-63.9827 99,-54.7125 99,-46.1124"/>
<polygon fill="black" stroke="black" points="102.5,-46.1043 99,-36.1043 95.5001,-46.1044 102.5,-46.1043"/>
</g>
<!-- 11 -->
<g id="node10" class="node"><title>11</title>
<ellipse fill="none" stroke="black" cx="171" cy="-18" rx="27" ry="18"/>
<text text-anchor="middle" x="171" y="-14.3" font-family="Times,serif" font-size="14.00">y</text>
</g>
<!-- 10&#45;&gt;11 -->
<g id="edge10" class="edge"><title>10&#45;&gt;11</title>
<path fill="none" stroke="black" d="M171,-71.6966C171,-63.9827 171,-54.7125 171,-46.1124"/>
<polygon fill="black" stroke="black" points="174.5,-46.1043 171,-36.1043 167.5,-46.1044 174.5,-46.1043"/>
</g>
<!-- 12 -->
<g id="node11" class="node"><title>12</title>
<ellipse fill="none" stroke="black" cx="243" cy="-18" rx="27" ry="18"/>
<text text-anchor="middle" x="243" y="-14.3" font-family="Times,serif" font-size="14.00">0</text>
</g>
<!-- 10&#45;&gt;12 -->
<g id="edge11" class="edge"><title>10&#45;&gt;12</title>
<path fill="none" stroke="black" d="M185.57,-74.8345C195.75,-64.9376 209.524,-51.5462 221.031,-40.3591"/>
<polygon fill="black" stroke="black" points="223.474,-42.865 228.204,-33.3847 218.595,-37.8461 223.474,-42.865"/>
</g>
<!-- 14 -->
<g id="node13" class="node"><title>14</title>
<ellipse fill="none" stroke="black" cx="243" cy="-90" rx="27" ry="18"/>
<text text-anchor="middle" x="243" y="-86.3" font-family="Times,serif" font-size="14.00">x</text>
</g>
<!-- 13&#45;&gt;14 -->
<g id="edge13" class="edge"><title>13&#45;&gt;14</title>
<path fill="none" stroke="black" d="M243,-143.697C243,-135.983 243,-126.712 243,-118.112"/>
<polygon fill="black" stroke="black" points="246.5,-118.104 243,-108.104 239.5,-118.104 246.5,-118.104"/>
</g>
<!-- 16 -->
<g id="node15" class="node"><title>16</title>
<ellipse fill="none" stroke="black" cx="320" cy="-162" rx="27" ry="18"/>
<text text-anchor="middle" x="320" y="-158.3" font-family="Times,serif" font-size="14.00">x</text>
</g>
<!-- 15&#45;&gt;16 -->
<g id="edge15" class="edge"><title>15&#45;&gt;16</title>
<path fill="none" stroke="black" d="M320,-215.697C320,-207.983 320,-198.712 320,-190.112"/>
<polygon fill="black" stroke="black" points="323.5,-190.104 320,-180.104 316.5,-190.104 323.5,-190.104"/>
</g>
<!-- 1 -->
<g id="node16" class="node"><title>1</title>
<ellipse fill="none" stroke="black" cx="203" cy="-378" rx="27" ry="18"/>
<text text-anchor="middle" x="203" y="-374.3" font-family="Times,serif" font-size="14.00">1</text>
</g>
<!-- 1&#45;&gt;2 -->
<g id="edge1" class="edge"><title>1&#45;&gt;2</title>
<path fill="none" stroke="black" d="M193.723,-360.765C188.945,-352.404 183.009,-342.016 177.632,-332.606"/>
<polygon fill="black" stroke="black" points="180.505,-330.579 172.505,-323.633 174.427,-334.052 180.505,-330.579"/>
</g>
<!-- 1&#45;&gt;4 -->
<g id="edge3" class="edge"><title>1&#45;&gt;4</title>
<path fill="none" stroke="black" d="M212.509,-360.765C217.529,-352.195 223.796,-341.494 229.415,-331.9"/>
<polygon fill="black" stroke="black" points="232.508,-333.545 234.542,-323.147 226.468,-330.007 232.508,-333.545"/>
</g>
</g>
</svg>
