<?xml version="1.0" encoding="UTF-8" standalone="no"?>
<!DOCTYPE svg PUBLIC "-//W3C//DTD SVG 1.1//EN"
 "http://www.w3.org/Graphics/SVG/1.1/DTD/svg11.dtd">
<!-- Generated by graphviz version 2.38.0 (20140413.2041)
 -->
<!-- Title: G Pages: 1 -->
<svg width="690pt" height="476pt"
 viewBox="0.00 0.00 690.40 476.00" xmlns="http://www.w3.org/2000/svg" xmlns:xlink="http://www.w3.org/1999/xlink">
<g id="graph0" class="graph" transform="scale(1 1) rotate(0) translate(4 472)">
<title>G</title>
<polygon fill="white" stroke="none" points="-4,4 -4,-472 686.397,-472 686.397,4 -4,4"/>
<!-- 2 -->
<g id="node1" class="node"><title>2</title>
<ellipse fill="none" stroke="black" cx="275" cy="-378" rx="46.2923" ry="18"/>
<text text-anchor="middle" x="275" y="-374.3" font-family="Times,serif" font-size="14.00">RETURN</text>
</g>
<!-- 3 -->
<g id="node2" class="node"><title>3</title>
<ellipse fill="none" stroke="black" cx="275" cy="-306" rx="27" ry="18"/>
<text text-anchor="middle" x="275" y="-302.3" font-family="Times,serif" font-size="14.00">0</text>
</g>
<!-- 2&#45;&gt;3 -->
<g id="edge2" class="edge"><title>2&#45;&gt;3</title>
<path fill="none" stroke="black" d="M275,-359.697C275,-351.983 275,-342.712 275,-334.112"/>
<polygon fill="black" stroke="black" points="278.5,-334.104 275,-324.104 271.5,-334.104 278.5,-334.104"/>
</g>
<!-- 5 -->
<g id="node3" class="node"><title>5</title>
<ellipse fill="none" stroke="black" cx="357" cy="-306" rx="27.8951" ry="18"/>
<text text-anchor="middle" x="357" y="-302.3" font-family="Times,serif" font-size="14.00">FOR</text>
</g>
<!-- 6 -->
<g id="node4" class="node"><title>6</title>
<ellipse fill="none" stroke="black" cx="99" cy="-234" rx="37.0935" ry="18"/>
<text text-anchor="middle" x="99" y="-230.3" font-family="Times,serif" font-size="14.00">ATRIB</text>
</g>
<!-- 5&#45;&gt;6 -->
<g id="edge5" class="edge"><title>5&#45;&gt;6</title>
<path fill="none" stroke="black" d="M333.767,-295.854C326.53,-293.156 318.484,-290.311 311,-288 253.278,-270.177 185.342,-254.021 142.23,-244.353"/>
<polygon fill="black" stroke="black" points="142.879,-240.912 132.358,-242.156 141.358,-247.745 142.879,-240.912"/>
</g>
<!-- 9 -->
<g id="node7" class="node"><title>9</title>
<ellipse fill="none" stroke="black" cx="243" cy="-234" rx="27" ry="18"/>
<text text-anchor="middle" x="243" y="-230.3" font-family="Times,serif" font-size="14.00">&lt;=</text>
</g>
<!-- 5&#45;&gt;9 -->
<g id="edge8" class="edge"><title>5&#45;&gt;9</title>
<path fill="none" stroke="black" d="M337.403,-292.967C319.103,-281.73 291.594,-264.838 270.985,-252.184"/>
<polygon fill="black" stroke="black" points="272.695,-249.126 262.342,-246.876 269.032,-255.092 272.695,-249.126"/>
</g>
<!-- 12 -->
<g id="node10" class="node"><title>12</title>
<ellipse fill="none" stroke="black" cx="357" cy="-234" rx="37.0935" ry="18"/>
<text text-anchor="middle" x="357" y="-230.3" font-family="Times,serif" font-size="14.00">ATRIB</text>
</g>
<!-- 5&#45;&gt;12 -->
<g id="edge11" class="edge"><title>5&#45;&gt;12</title>
<path fill="none" stroke="black" d="M357,-287.697C357,-279.983 357,-270.712 357,-262.112"/>
<polygon fill="black" stroke="black" points="360.5,-262.104 357,-252.104 353.5,-262.104 360.5,-262.104"/>
</g>
<!-- 17 -->
<g id="node26" class="node"><title>17</title>
<ellipse fill="none" stroke="black" cx="456" cy="-234" rx="27" ry="18"/>
<text text-anchor="middle" x="456" y="-230.3" font-family="Times,serif" font-size="14.00">17</text>
</g>
<!-- 5&#45;&gt;17 -->
<g id="edge16" class="edge"><title>5&#45;&gt;17</title>
<path fill="none" stroke="black" d="M375.158,-292.161C390.369,-281.405 412.289,-265.907 429.467,-253.761"/>
<polygon fill="black" stroke="black" points="431.813,-256.389 437.957,-247.758 427.771,-250.673 431.813,-256.389"/>
</g>
<!-- 7 -->
<g id="node5" class="node"><title>7</title>
<ellipse fill="none" stroke="black" cx="27" cy="-162" rx="27" ry="18"/>
<text text-anchor="middle" x="27" y="-158.3" font-family="Times,serif" font-size="14.00">x</text>
</g>
<!-- 6&#45;&gt;7 -->
<g id="edge6" class="edge"><title>6&#45;&gt;7</title>
<path fill="none" stroke="black" d="M83.0209,-217.465C73.0571,-207.778 60.0932,-195.174 49.1461,-184.531"/>
<polygon fill="black" stroke="black" points="51.561,-181.997 41.9512,-177.536 46.6814,-187.016 51.561,-181.997"/>
</g>
<!-- 8 -->
<g id="node6" class="node"><title>8</title>
<ellipse fill="none" stroke="black" cx="99" cy="-162" rx="27" ry="18"/>
<text text-anchor="middle" x="99" y="-158.3" font-family="Times,serif" font-size="14.00">1</text>
</g>
<!-- 6&#45;&gt;8 -->
<g id="edge7" class="edge"><title>6&#45;&gt;8</title>
<path fill="none" stroke="black" d="M99,-215.697C99,-207.983 99,-198.712 99,-190.112"/>
<polygon fill="black" stroke="black" points="102.5,-190.104 99,-180.104 95.5001,-190.104 102.5,-190.104"/>
</g>
<!-- 10 -->
<g id="node8" class="node"><title>10</title>
<ellipse fill="none" stroke="black" cx="171" cy="-162" rx="27" ry="18"/>
<text text-anchor="middle" x="171" y="-158.3" font-family="Times,serif" font-size="14.00">x</text>
</g>
<!-- 9&#45;&gt;10 -->
<g id="edge9" class="edge"><title>9&#45;&gt;10</title>
<path fill="none" stroke="black" d="M228.43,-218.834C218.25,-208.938 204.476,-195.546 192.969,-184.359"/>
<polygon fill="black" stroke="black" points="195.405,-181.846 185.796,-177.385 190.526,-186.865 195.405,-181.846"/>
</g>
<!-- 11 -->
<g id="node9" class="node"><title>11</title>
<ellipse fill="none" stroke="black" cx="243" cy="-162" rx="27" ry="18"/>
<text text-anchor="middle" x="243" y="-158.3" font-family="Times,serif" font-size="14.00">5</text>
</g>
<!-- 9&#45;&gt;11 -->
<g id="edge10" class="edge"><title>9&#45;&gt;11</title>
<path fill="none" stroke="black" d="M243,-215.697C243,-207.983 243,-198.712 243,-190.112"/>
<polygon fill="black" stroke="black" points="246.5,-190.104 243,-180.104 239.5,-190.104 246.5,-190.104"/>
</g>
<!-- 13 -->
<g id="node11" class="node"><title>13</title>
<ellipse fill="none" stroke="black" cx="315" cy="-162" rx="27" ry="18"/>
<text text-anchor="middle" x="315" y="-158.3" font-family="Times,serif" font-size="14.00">x</text>
</g>
<!-- 12&#45;&gt;13 -->
<g id="edge12" class="edge"><title>12&#45;&gt;13</title>
<path fill="none" stroke="black" d="M347.047,-216.411C341.899,-207.832 335.514,-197.191 329.802,-187.67"/>
<polygon fill="black" stroke="black" points="332.739,-185.762 324.593,-178.988 326.737,-189.364 332.739,-185.762"/>
</g>
<!-- 14 -->
<g id="node12" class="node"><title>14</title>
<ellipse fill="none" stroke="black" cx="390" cy="-162" rx="29.795" ry="18"/>
<text text-anchor="middle" x="390" y="-158.3" font-family="Times,serif" font-size="14.00">ADD</text>
</g>
<!-- 12&#45;&gt;14 -->
<g id="edge13" class="edge"><title>12&#45;&gt;14</title>
<path fill="none" stroke="black" d="M364.988,-216.055C368.799,-207.973 373.443,-198.121 377.69,-189.112"/>
<polygon fill="black" stroke="black" points="380.987,-190.327 382.085,-179.789 374.655,-187.342 380.987,-190.327"/>
</g>
<!-- 15 -->
<g id="node13" class="node"><title>15</title>
<ellipse fill="none" stroke="black" cx="324" cy="-90" rx="27" ry="18"/>
<text text-anchor="middle" x="324" y="-86.3" font-family="Times,serif" font-size="14.00">x</text>
</g>
<!-- 14&#45;&gt;15 -->
<g id="edge14" class="edge"><title>14&#45;&gt;15</title>
<path fill="none" stroke="black" d="M375.679,-145.811C366.649,-136.234 354.836,-123.705 344.784,-113.044"/>
<polygon fill="black" stroke="black" points="347.248,-110.554 337.841,-105.68 342.154,-115.357 347.248,-110.554"/>
</g>
<!-- 16 -->
<g id="node14" class="node"><title>16</title>
<ellipse fill="none" stroke="black" cx="396" cy="-90" rx="27" ry="18"/>
<text text-anchor="middle" x="396" y="-86.3" font-family="Times,serif" font-size="14.00">1</text>
</g>
<!-- 14&#45;&gt;16 -->
<g id="edge15" class="edge"><title>14&#45;&gt;16</title>
<path fill="none" stroke="black" d="M391.483,-143.697C392.144,-135.983 392.939,-126.712 393.676,-118.112"/>
<polygon fill="black" stroke="black" points="397.167,-118.367 394.534,-108.104 390.193,-117.769 397.167,-118.367"/>
</g>
<!-- 18 -->
<g id="node15" class="node"><title>18</title>
<ellipse fill="none" stroke="black" cx="474" cy="-162" rx="36.2938" ry="18"/>
<text text-anchor="middle" x="474" y="-158.3" font-family="Times,serif" font-size="14.00">PRINT</text>
</g>
<!-- 19 -->
<g id="node16" class="node"><title>19</title>
<ellipse fill="none" stroke="black" cx="474" cy="-90" rx="27" ry="18"/>
</g>
<!-- 18&#45;&gt;19 -->
<g id="edge18" class="edge"><title>18&#45;&gt;19</title>
<path fill="none" stroke="black" d="M474,-143.697C474,-135.983 474,-126.712 474,-118.112"/>
<polygon fill="black" stroke="black" points="477.5,-118.104 474,-108.104 470.5,-118.104 477.5,-118.104"/>
</g>
<!-- 21 -->
<g id="node17" class="node"><title>21</title>
<ellipse fill="none" stroke="black" cx="555" cy="-90" rx="36.2938" ry="18"/>
<text text-anchor="middle" x="555" y="-86.3" font-family="Times,serif" font-size="14.00">PRINT</text>
</g>
<!-- 22 -->
<g id="node18" class="node"><title>22</title>
<ellipse fill="none" stroke="black" cx="555" cy="-18" rx="27" ry="18"/>
<text text-anchor="middle" x="555" y="-14.3" font-family="Times,serif" font-size="14.00">x</text>
</g>
<!-- 21&#45;&gt;22 -->
<g id="edge21" class="edge"><title>21&#45;&gt;22</title>
<path fill="none" stroke="black" d="M555,-71.6966C555,-63.9827 555,-54.7125 555,-46.1124"/>
<polygon fill="black" stroke="black" points="558.5,-46.1043 555,-36.1043 551.5,-46.1044 558.5,-46.1043"/>
</g>
<!-- 23 -->
<g id="node19" class="node"><title>23</title>
<ellipse fill="none" stroke="black" cx="646" cy="-90" rx="36.2938" ry="18"/>
<text text-anchor="middle" x="646" y="-86.3" font-family="Times,serif" font-size="14.00">PRINT</text>
</g>
<!-- 24 -->
<g id="node20" class="node"><title>24</title>
<ellipse fill="none" stroke="black" cx="646" cy="-18" rx="34.394" ry="18"/>
<text text-anchor="middle" x="646" y="-14.3" font-family="Times,serif" font-size="14.00">Teste: </text>
</g>
<!-- 23&#45;&gt;24 -->
<g id="edge23" class="edge"><title>23&#45;&gt;24</title>
<path fill="none" stroke="black" d="M646,-71.6966C646,-63.9827 646,-54.7125 646,-46.1124"/>
<polygon fill="black" stroke="black" points="649.5,-46.1043 646,-36.1043 642.5,-46.1044 649.5,-46.1043"/>
</g>
<!-- 25 -->
<g id="node21" class="node"><title>25</title>
<ellipse fill="none" stroke="black" cx="528" cy="-306" rx="37.0935" ry="18"/>
<text text-anchor="middle" x="528" y="-302.3" font-family="Times,serif" font-size="14.00">ATRIB</text>
</g>
<!-- 26 -->
<g id="node22" class="node"><title>26</title>
<ellipse fill="none" stroke="black" cx="528" cy="-234" rx="27" ry="18"/>
<text text-anchor="middle" x="528" y="-230.3" font-family="Times,serif" font-size="14.00">x</text>
</g>
<!-- 25&#45;&gt;26 -->
<g id="edge25" class="edge"><title>25&#45;&gt;26</title>
<path fill="none" stroke="black" d="M528,-287.697C528,-279.983 528,-270.712 528,-262.112"/>
<polygon fill="black" stroke="black" points="531.5,-262.104 528,-252.104 524.5,-262.104 531.5,-262.104"/>
</g>
<!-- 27 -->
<g id="node23" class="node"><title>27</title>
<ellipse fill="none" stroke="black" cx="600" cy="-234" rx="27" ry="18"/>
<text text-anchor="middle" x="600" y="-230.3" font-family="Times,serif" font-size="14.00">5</text>
</g>
<!-- 25&#45;&gt;27 -->
<g id="edge26" class="edge"><title>25&#45;&gt;27</title>
<path fill="none" stroke="black" d="M543.979,-289.465C553.943,-279.778 566.907,-267.174 577.854,-256.531"/>
<polygon fill="black" stroke="black" points="580.319,-259.016 585.049,-249.536 575.439,-253.997 580.319,-259.016"/>
</g>
<!-- 1 -->
<g id="node24" class="node"><title>1</title>
<ellipse fill="none" stroke="black" cx="320" cy="-450" rx="27" ry="18"/>
<text text-anchor="middle" x="320" y="-446.3" font-family="Times,serif" font-size="14.00">1</text>
</g>
<!-- 1&#45;&gt;2 -->
<g id="edge1" class="edge"><title>1&#45;&gt;2</title>
<path fill="none" stroke="black" d="M309.789,-433.116C304.309,-424.592 297.427,-413.886 291.233,-404.251"/>
<polygon fill="black" stroke="black" points="294.15,-402.316 285.798,-395.797 288.262,-406.102 294.15,-402.316"/>
</g>
<!-- 4 -->
<g id="node25" class="node"><title>4</title>
<ellipse fill="none" stroke="black" cx="366" cy="-378" rx="27" ry="18"/>
<text text-anchor="middle" x="366" y="-374.3" font-family="Times,serif" font-size="14.00">4</text>
</g>
<!-- 1&#45;&gt;4 -->
<g id="edge3" class="edge"><title>1&#45;&gt;4</title>
<path fill="none" stroke="black" d="M330.438,-433.116C336.202,-424.345 343.484,-413.264 349.955,-403.416"/>
<polygon fill="black" stroke="black" points="353.036,-405.1 355.603,-394.821 347.186,-401.256 353.036,-405.1"/>
</g>
<!-- 4&#45;&gt;5 -->
<g id="edge4" class="edge"><title>4&#45;&gt;5</title>
<path fill="none" stroke="black" d="M363.821,-360.055C362.83,-352.346 361.632,-343.027 360.518,-334.364"/>
<polygon fill="black" stroke="black" points="363.968,-333.747 359.221,-324.275 357.025,-334.64 363.968,-333.747"/>
</g>
<!-- 4&#45;&gt;25 -->
<g id="edge24" class="edge"><title>4&#45;&gt;25</title>
<path fill="none" stroke="black" d="M388.186,-367.414C414.887,-355.876 460.087,-336.345 491.85,-322.62"/>
<polygon fill="black" stroke="black" points="493.449,-325.742 501.24,-318.563 490.672,-319.316 493.449,-325.742"/>
</g>
<!-- 17&#45;&gt;18 -->
<g id="edge17" class="edge"><title>17&#45;&gt;18</title>
<path fill="none" stroke="black" d="M460.357,-216.055C462.361,-208.261 464.789,-198.822 467.037,-190.079"/>
<polygon fill="black" stroke="black" points="470.457,-190.832 469.558,-180.275 463.678,-189.089 470.457,-190.832"/>
</g>
<!-- 20 -->
<g id="node27" class="node"><title>20</title>
<ellipse fill="none" stroke="black" cx="555" cy="-162" rx="27" ry="18"/>
<text text-anchor="middle" x="555" y="-158.3" font-family="Times,serif" font-size="14.00">20</text>
</g>
<!-- 17&#45;&gt;20 -->
<g id="edge19" class="edge"><title>17&#45;&gt;20</title>
<path fill="none" stroke="black" d="M474.158,-220.161C489.369,-209.405 511.289,-193.907 528.467,-181.761"/>
<polygon fill="black" stroke="black" points="530.813,-184.389 536.957,-175.758 526.771,-178.673 530.813,-184.389"/>
</g>
<!-- 20&#45;&gt;21 -->
<g id="edge20" class="edge"><title>20&#45;&gt;21</title>
<path fill="none" stroke="black" d="M555,-143.697C555,-135.983 555,-126.712 555,-118.112"/>
<polygon fill="black" stroke="black" points="558.5,-118.104 555,-108.104 551.5,-118.104 558.5,-118.104"/>
</g>
<!-- 20&#45;&gt;23 -->
<g id="edge22" class="edge"><title>20&#45;&gt;23</title>
<path fill="none" stroke="black" d="M572.116,-147.834C585.322,-137.675 603.84,-123.431 619.032,-111.744"/>
<polygon fill="black" stroke="black" points="621.283,-114.429 627.076,-105.557 617.015,-108.88 621.283,-114.429"/>
</g>
</g>
</svg>
