<?xml version="1.0" encoding="UTF-8" standalone="no"?>
<!DOCTYPE svg PUBLIC "-//W3C//DTD SVG 1.1//EN"
 "http://www.w3.org/Graphics/SVG/1.1/DTD/svg11.dtd">
<!-- Generated by graphviz version 2.38.0 (20140413.2041)
 -->
<!-- Title: G Pages: 1 -->
<svg width="300pt" height="404pt"
 viewBox="0.00 0.00 300.40 404.00" xmlns="http://www.w3.org/2000/svg" xmlns:xlink="http://www.w3.org/1999/xlink">
<g id="graph0" class="graph" transform="scale(1 1) rotate(0) translate(4 400)">
<title>G</title>
<polygon fill="white" stroke="none" points="-4,4 -4,-400 296.397,-400 296.397,4 -4,4"/>
<!-- 2 -->
<g id="node1" class="node"><title>2</title>
<ellipse fill="none" stroke="black" cx="36.3968" cy="-306" rx="36.2938" ry="18"/>
<text text-anchor="middle" x="36.3968" y="-302.3" font-family="Times,serif" font-size="14.00">PRINT</text>
</g>
<!-- 3 -->
<g id="node2" class="node"><title>3</title>
<ellipse fill="none" stroke="black" cx="36.3968" cy="-234" rx="27" ry="18"/>
<text text-anchor="middle" x="36.3968" y="-230.3" font-family="Times,serif" font-size="14.00">y</text>
</g>
<!-- 2&#45;&gt;3 -->
<g id="edge2" class="edge"><title>2&#45;&gt;3</title>
<path fill="none" stroke="black" d="M36.3968,-287.697C36.3968,-279.983 36.3968,-270.712 36.3968,-262.112"/>
<polygon fill="black" stroke="black" points="39.8969,-262.104 36.3968,-252.104 32.8969,-262.104 39.8969,-262.104"/>
</g>
<!-- 4 -->
<g id="node3" class="node"><title>4</title>
<ellipse fill="none" stroke="black" cx="117.397" cy="-306" rx="27" ry="18"/>
<text text-anchor="middle" x="117.397" y="-302.3" font-family="Times,serif" font-size="14.00">IF</text>
</g>
<!-- 5 -->
<g id="node4" class="node"><title>5</title>
<ellipse fill="none" stroke="black" cx="117.397" cy="-234" rx="36.2938" ry="18"/>
<text text-anchor="middle" x="117.397" y="-230.3" font-family="Times,serif" font-size="14.00">PRINT</text>
</g>
<!-- 4&#45;&gt;5 -->
<g id="edge4" class="edge"><title>4&#45;&gt;5</title>
<path fill="none" stroke="black" d="M117.397,-287.697C117.397,-279.983 117.397,-270.712 117.397,-262.112"/>
<polygon fill="black" stroke="black" points="120.897,-262.104 117.397,-252.104 113.897,-262.104 120.897,-262.104"/>
</g>
<!-- 7 -->
<g id="node6" class="node"><title>7</title>
<ellipse fill="none" stroke="black" cx="198.397" cy="-234" rx="27" ry="18"/>
<text text-anchor="middle" x="198.397" y="-230.3" font-family="Times,serif" font-size="14.00">||</text>
</g>
<!-- 4&#45;&gt;7 -->
<g id="edge6" class="edge"><title>4&#45;&gt;7</title>
<path fill="none" stroke="black" d="M133.4,-291.17C145.159,-281.008 161.333,-267.03 174.604,-255.561"/>
<polygon fill="black" stroke="black" points="177.149,-257.988 182.427,-248.801 172.572,-252.692 177.149,-257.988"/>
</g>
<!-- 6 -->
<g id="node5" class="node"><title>6</title>
<ellipse fill="none" stroke="black" cx="117.397" cy="-162" rx="27" ry="18"/>
<text text-anchor="middle" x="117.397" y="-158.3" font-family="Times,serif" font-size="14.00">x</text>
</g>
<!-- 5&#45;&gt;6 -->
<g id="edge5" class="edge"><title>5&#45;&gt;6</title>
<path fill="none" stroke="black" d="M117.397,-215.697C117.397,-207.983 117.397,-198.712 117.397,-190.112"/>
<polygon fill="black" stroke="black" points="120.897,-190.104 117.397,-180.104 113.897,-190.104 120.897,-190.104"/>
</g>
<!-- 8 -->
<g id="node7" class="node"><title>8</title>
<ellipse fill="none" stroke="black" cx="193.397" cy="-162" rx="27" ry="18"/>
<text text-anchor="middle" x="193.397" y="-158.3" font-family="Times,serif" font-size="14.00">&amp;&amp;</text>
</g>
<!-- 7&#45;&gt;8 -->
<g id="edge7" class="edge"><title>7&#45;&gt;8</title>
<path fill="none" stroke="black" d="M197.161,-215.697C196.61,-207.983 195.948,-198.712 195.333,-190.112"/>
<polygon fill="black" stroke="black" points="198.822,-189.83 194.619,-180.104 191.84,-190.328 198.822,-189.83"/>
</g>
<!-- 15 -->
<g id="node14" class="node"><title>15</title>
<ellipse fill="none" stroke="black" cx="265.397" cy="-162" rx="27" ry="18"/>
<text text-anchor="middle" x="265.397" y="-158.3" font-family="Times,serif" font-size="14.00">!</text>
</g>
<!-- 7&#45;&gt;15 -->
<g id="edge14" class="edge"><title>7&#45;&gt;15</title>
<path fill="none" stroke="black" d="M212.279,-218.496C221.532,-208.829 233.868,-195.94 244.323,-185.017"/>
<polygon fill="black" stroke="black" points="247.146,-187.13 251.532,-177.485 242.089,-182.29 247.146,-187.13"/>
</g>
<!-- 9 -->
<g id="node8" class="node"><title>9</title>
<ellipse fill="none" stroke="black" cx="121.397" cy="-90" rx="27" ry="18"/>
<text text-anchor="middle" x="121.397" y="-86.3" font-family="Times,serif" font-size="14.00">&gt;</text>
</g>
<!-- 8&#45;&gt;9 -->
<g id="edge8" class="edge"><title>8&#45;&gt;9</title>
<path fill="none" stroke="black" d="M178.826,-146.834C168.647,-136.938 154.873,-123.546 143.366,-112.359"/>
<polygon fill="black" stroke="black" points="145.802,-109.846 136.192,-105.385 140.923,-114.865 145.802,-109.846"/>
</g>
<!-- 12 -->
<g id="node11" class="node"><title>12</title>
<ellipse fill="none" stroke="black" cx="193.397" cy="-90" rx="27" ry="18"/>
<text text-anchor="middle" x="193.397" y="-86.3" font-family="Times,serif" font-size="14.00">!=</text>
</g>
<!-- 8&#45;&gt;12 -->
<g id="edge11" class="edge"><title>8&#45;&gt;12</title>
<path fill="none" stroke="black" d="M193.397,-143.697C193.397,-135.983 193.397,-126.712 193.397,-118.112"/>
<polygon fill="black" stroke="black" points="196.897,-118.104 193.397,-108.104 189.897,-118.104 196.897,-118.104"/>
</g>
<!-- 10 -->
<g id="node9" class="node"><title>10</title>
<ellipse fill="none" stroke="black" cx="49.3968" cy="-18" rx="27" ry="18"/>
<text text-anchor="middle" x="49.3968" y="-14.3" font-family="Times,serif" font-size="14.00">x</text>
</g>
<!-- 9&#45;&gt;10 -->
<g id="edge9" class="edge"><title>9&#45;&gt;10</title>
<path fill="none" stroke="black" d="M106.826,-74.8345C96.6468,-64.9376 82.8729,-51.5462 71.3661,-40.3591"/>
<polygon fill="black" stroke="black" points="73.8023,-37.8461 64.1925,-33.3847 68.9227,-42.865 73.8023,-37.8461"/>
</g>
<!-- 11 -->
<g id="node10" class="node"><title>11</title>
<ellipse fill="none" stroke="black" cx="121.397" cy="-18" rx="27" ry="18"/>
<text text-anchor="middle" x="121.397" y="-14.3" font-family="Times,serif" font-size="14.00">10</text>
</g>
<!-- 9&#45;&gt;11 -->
<g id="edge10" class="edge"><title>9&#45;&gt;11</title>
<path fill="none" stroke="black" d="M121.397,-71.6966C121.397,-63.9827 121.397,-54.7125 121.397,-46.1124"/>
<polygon fill="black" stroke="black" points="124.897,-46.1043 121.397,-36.1043 117.897,-46.1044 124.897,-46.1043"/>
</g>
<!-- 13 -->
<g id="node12" class="node"><title>13</title>
<ellipse fill="none" stroke="black" cx="193.397" cy="-18" rx="27" ry="18"/>
<text text-anchor="middle" x="193.397" y="-14.3" font-family="Times,serif" font-size="14.00">y</text>
</g>
<!-- 12&#45;&gt;13 -->
<g id="edge12" class="edge"><title>12&#45;&gt;13</title>
<path fill="none" stroke="black" d="M193.397,-71.6966C193.397,-63.9827 193.397,-54.7125 193.397,-46.1124"/>
<polygon fill="black" stroke="black" points="196.897,-46.1043 193.397,-36.1043 189.897,-46.1044 196.897,-46.1043"/>
</g>
<!-- 14 -->
<g id="node13" class="node"><title>14</title>
<ellipse fill="none" stroke="black" cx="265.397" cy="-18" rx="27" ry="18"/>
<text text-anchor="middle" x="265.397" y="-14.3" font-family="Times,serif" font-size="14.00">0</text>
</g>
<!-- 12&#45;&gt;14 -->
<g id="edge13" class="edge"><title>12&#45;&gt;14</title>
<path fill="none" stroke="black" d="M207.967,-74.8345C218.147,-64.9376 231.921,-51.5462 243.427,-40.3591"/>
<polygon fill="black" stroke="black" points="245.871,-42.865 250.601,-33.3847 240.991,-37.8461 245.871,-42.865"/>
</g>
<!-- 16 -->
<g id="node15" class="node"><title>16</title>
<ellipse fill="none" stroke="black" cx="265.397" cy="-90" rx="27" ry="18"/>
<text text-anchor="middle" x="265.397" y="-86.3" font-family="Times,serif" font-size="14.00">x</text>
</g>
<!-- 15&#45;&gt;16 -->
<g id="edge15" class="edge"><title>15&#45;&gt;16</title>
<path fill="none" stroke="black" d="M265.397,-143.697C265.397,-135.983 265.397,-126.712 265.397,-118.112"/>
<polygon fill="black" stroke="black" points="268.897,-118.104 265.397,-108.104 261.897,-118.104 268.897,-118.104"/>
</g>
<!-- 1 -->
<g id="node16" class="node"><title>1</title>
<ellipse fill="none" stroke="black" cx="76.3968" cy="-378" rx="27" ry="18"/>
<text text-anchor="middle" x="76.3968" y="-374.3" font-family="Times,serif" font-size="14.00">1</text>
</g>
<!-- 1&#45;&gt;2 -->
<g id="edge1" class="edge"><title>1&#45;&gt;2</title>
<path fill="none" stroke="black" d="M67.1194,-360.765C62.3421,-352.404 56.4059,-342.016 51.0287,-332.606"/>
<polygon fill="black" stroke="black" points="53.9019,-330.579 45.9016,-323.633 47.8242,-334.052 53.9019,-330.579"/>
</g>
<!-- 1&#45;&gt;4 -->
<g id="edge3" class="edge"><title>1&#45;&gt;4</title>
<path fill="none" stroke="black" d="M85.906,-360.765C90.9255,-352.195 97.1931,-341.494 102.812,-331.9"/>
<polygon fill="black" stroke="black" points="105.905,-333.545 107.939,-323.147 99.8649,-330.007 105.905,-333.545"/>
</g>
</g>
</svg>
