<?xml version="1.0" encoding="UTF-8" standalone="no"?>
<!DOCTYPE svg PUBLIC "-//W3C//DTD SVG 1.1//EN"
 "http://www.w3.org/Graphics/SVG/1.1/DTD/svg11.dtd">
<!-- Generated by graphviz version 2.38.0 (20140413.2041)
 -->
<!-- Title: G Pages: 1 -->
<svg width="656pt" height="548pt"
 viewBox="0.00 0.00 655.64 548.00" xmlns="http://www.w3.org/2000/svg" xmlns:xlink="http://www.w3.org/1999/xlink">
<g id="graph0" class="graph" transform="scale(1 1) rotate(0) translate(4 544)">
<title>G</title>
<polygon fill="white" stroke="none" points="-4,4 -4,-544 651.644,-544 651.644,4 -4,4"/>
<!-- 2 -->
<g id="node1" class="node"><title>2</title>
<ellipse fill="none" stroke="black" cx="90.6442" cy="-450" rx="46.2923" ry="18"/>
<text text-anchor="middle" x="90.6442" y="-446.3" font-family="Times,serif" font-size="14.00">RETURN</text>
</g>
<!-- 3 -->
<g id="node2" class="node"><title>3</title>
<ellipse fill="none" stroke="black" cx="90.6442" cy="-378" rx="27" ry="18"/>
<text text-anchor="middle" x="90.6442" y="-374.3" font-family="Times,serif" font-size="14.00">0</text>
</g>
<!-- 2&#45;&gt;3 -->
<g id="edge2" class="edge"><title>2&#45;&gt;3</title>
<path fill="none" stroke="black" d="M90.6442,-431.697C90.6442,-423.983 90.6442,-414.712 90.6442,-406.112"/>
<polygon fill="black" stroke="black" points="94.1443,-406.104 90.6442,-396.104 87.1443,-406.104 94.1443,-406.104"/>
</g>
<!-- 5 -->
<g id="node3" class="node"><title>5</title>
<ellipse fill="none" stroke="black" cx="176.644" cy="-378" rx="37.0935" ry="18"/>
<text text-anchor="middle" x="176.644" y="-374.3" font-family="Times,serif" font-size="14.00">ATRIB</text>
</g>
<!-- 6 -->
<g id="node4" class="node"><title>6</title>
<ellipse fill="none" stroke="black" cx="103.644" cy="-306" rx="27" ry="18"/>
<text text-anchor="middle" x="103.644" y="-302.3" font-family="Times,serif" font-size="14.00">a</text>
</g>
<!-- 5&#45;&gt;6 -->
<g id="edge5" class="edge"><title>5&#45;&gt;6</title>
<path fill="none" stroke="black" d="M160.443,-361.465C150.341,-351.778 137.197,-339.174 126.098,-328.531"/>
<polygon fill="black" stroke="black" points="128.443,-325.931 118.803,-321.536 123.598,-330.983 128.443,-325.931"/>
</g>
<!-- 7 -->
<g id="node5" class="node"><title>7</title>
<ellipse fill="none" stroke="black" cx="176.644" cy="-306" rx="27.8951" ry="18"/>
<text text-anchor="middle" x="176.644" y="-302.3" font-family="Times,serif" font-size="14.00">SUB</text>
</g>
<!-- 5&#45;&gt;7 -->
<g id="edge6" class="edge"><title>5&#45;&gt;7</title>
<path fill="none" stroke="black" d="M176.644,-359.697C176.644,-351.983 176.644,-342.712 176.644,-334.112"/>
<polygon fill="black" stroke="black" points="180.144,-334.104 176.644,-324.104 173.144,-334.104 180.144,-334.104"/>
</g>
<!-- 8 -->
<g id="node6" class="node"><title>8</title>
<ellipse fill="none" stroke="black" cx="65.6442" cy="-234" rx="65.7887" ry="18"/>
<text text-anchor="middle" x="65.6442" y="-230.3" font-family="Times,serif" font-size="14.00">INTTOFLOAT</text>
</g>
<!-- 7&#45;&gt;8 -->
<g id="edge7" class="edge"><title>7&#45;&gt;8</title>
<path fill="none" stroke="black" d="M157.309,-292.807C141.33,-282.73 118.267,-268.185 99.2721,-256.207"/>
<polygon fill="black" stroke="black" points="100.923,-253.11 90.598,-250.737 97.1895,-259.031 100.923,-253.11"/>
</g>
<!-- 14 -->
<g id="node12" class="node"><title>14</title>
<ellipse fill="none" stroke="black" cx="176.644" cy="-234" rx="27" ry="18"/>
<text text-anchor="middle" x="176.644" y="-230.3" font-family="Times,serif" font-size="14.00">c</text>
</g>
<!-- 7&#45;&gt;14 -->
<g id="edge13" class="edge"><title>7&#45;&gt;14</title>
<path fill="none" stroke="black" d="M176.644,-287.697C176.644,-279.983 176.644,-270.712 176.644,-262.112"/>
<polygon fill="black" stroke="black" points="180.144,-262.104 176.644,-252.104 173.144,-262.104 180.144,-262.104"/>
</g>
<!-- 9 -->
<g id="node7" class="node"><title>9</title>
<ellipse fill="none" stroke="black" cx="65.6442" cy="-162" rx="36.2938" ry="18"/>
<text text-anchor="middle" x="65.6442" y="-158.3" font-family="Times,serif" font-size="14.00">MULT</text>
</g>
<!-- 8&#45;&gt;9 -->
<g id="edge8" class="edge"><title>8&#45;&gt;9</title>
<path fill="none" stroke="black" d="M65.6442,-215.697C65.6442,-207.983 65.6442,-198.712 65.6442,-190.112"/>
<polygon fill="black" stroke="black" points="69.1443,-190.104 65.6442,-180.104 62.1443,-190.104 69.1443,-190.104"/>
</g>
<!-- 10 -->
<g id="node8" class="node"><title>10</title>
<ellipse fill="none" stroke="black" cx="28.6442" cy="-90" rx="27" ry="18"/>
<text text-anchor="middle" x="28.6442" y="-86.3" font-family="Times,serif" font-size="14.00">b</text>
</g>
<!-- 9&#45;&gt;10 -->
<g id="edge9" class="edge"><title>9&#45;&gt;10</title>
<path fill="none" stroke="black" d="M56.8757,-144.411C52.4521,-136.042 46.9908,-125.71 42.0539,-116.37"/>
<polygon fill="black" stroke="black" points="45.1172,-114.675 37.3497,-107.47 38.9285,-117.947 45.1172,-114.675"/>
</g>
<!-- 11 -->
<g id="node9" class="node"><title>11</title>
<ellipse fill="none" stroke="black" cx="103.644" cy="-90" rx="29.795" ry="18"/>
<text text-anchor="middle" x="103.644" y="-86.3" font-family="Times,serif" font-size="14.00">ADD</text>
</g>
<!-- 9&#45;&gt;11 -->
<g id="edge10" class="edge"><title>9&#45;&gt;11</title>
<path fill="none" stroke="black" d="M74.6496,-144.411C79.1928,-136.042 84.8017,-125.71 89.872,-116.37"/>
<polygon fill="black" stroke="black" points="93.0084,-117.928 94.7033,-107.47 86.8564,-114.589 93.0084,-117.928"/>
</g>
<!-- 12 -->
<g id="node10" class="node"><title>12</title>
<ellipse fill="none" stroke="black" cx="67.6442" cy="-18" rx="27" ry="18"/>
<text text-anchor="middle" x="67.6442" y="-14.3" font-family="Times,serif" font-size="14.00">4</text>
</g>
<!-- 11&#45;&gt;12 -->
<g id="edge11" class="edge"><title>11&#45;&gt;12</title>
<path fill="none" stroke="black" d="M95.1127,-72.411C90.8087,-64.0421 85.495,-53.7098 80.6915,-44.3698"/>
<polygon fill="black" stroke="black" points="83.8005,-42.7621 76.1144,-35.4699 77.5755,-45.9636 83.8005,-42.7621"/>
</g>
<!-- 13 -->
<g id="node11" class="node"><title>13</title>
<ellipse fill="none" stroke="black" cx="139.644" cy="-18" rx="27" ry="18"/>
<text text-anchor="middle" x="139.644" y="-14.3" font-family="Times,serif" font-size="14.00">6</text>
</g>
<!-- 11&#45;&gt;13 -->
<g id="edge12" class="edge"><title>11&#45;&gt;13</title>
<path fill="none" stroke="black" d="M112.176,-72.411C116.48,-64.0421 121.793,-53.7098 126.597,-44.3698"/>
<polygon fill="black" stroke="black" points="129.713,-45.9636 131.174,-35.4699 123.488,-42.7621 129.713,-45.9636"/>
</g>
<!-- 16 -->
<g id="node13" class="node"><title>16</title>
<ellipse fill="none" stroke="black" cx="291.644" cy="-306" rx="37.0935" ry="18"/>
<text text-anchor="middle" x="291.644" y="-302.3" font-family="Times,serif" font-size="14.00">ATRIB</text>
</g>
<!-- 17 -->
<g id="node14" class="node"><title>17</title>
<ellipse fill="none" stroke="black" cx="248.644" cy="-234" rx="27" ry="18"/>
<text text-anchor="middle" x="248.644" y="-230.3" font-family="Times,serif" font-size="14.00">c</text>
</g>
<!-- 16&#45;&gt;17 -->
<g id="edge16" class="edge"><title>16&#45;&gt;17</title>
<path fill="none" stroke="black" d="M281.454,-288.411C276.184,-279.832 269.647,-269.191 263.798,-259.67"/>
<polygon fill="black" stroke="black" points="266.682,-257.677 258.465,-250.988 260.717,-261.341 266.682,-257.677"/>
</g>
<!-- 18 -->
<g id="node15" class="node"><title>18</title>
<ellipse fill="none" stroke="black" cx="323.644" cy="-234" rx="29.795" ry="18"/>
<text text-anchor="middle" x="323.644" y="-230.3" font-family="Times,serif" font-size="14.00">ADD</text>
</g>
<!-- 16&#45;&gt;18 -->
<g id="edge17" class="edge"><title>16&#45;&gt;18</title>
<path fill="none" stroke="black" d="M299.39,-288.055C303.085,-279.973 307.589,-270.121 311.707,-261.112"/>
<polygon fill="black" stroke="black" points="314.995,-262.339 315.969,-251.789 308.628,-259.429 314.995,-262.339"/>
</g>
<!-- 19 -->
<g id="node16" class="node"><title>19</title>
<ellipse fill="none" stroke="black" cx="242.644" cy="-162" rx="27" ry="18"/>
<text text-anchor="middle" x="242.644" y="-158.3" font-family="Times,serif" font-size="14.00">b</text>
</g>
<!-- 18&#45;&gt;19 -->
<g id="edge18" class="edge"><title>18&#45;&gt;19</title>
<path fill="none" stroke="black" d="M307.253,-218.834C295.462,-208.645 279.385,-194.751 266.218,-183.372"/>
<polygon fill="black" stroke="black" points="268.315,-180.559 258.46,-176.668 263.738,-185.855 268.315,-180.559"/>
</g>
<!-- 20 -->
<g id="node17" class="node"><title>20</title>
<ellipse fill="none" stroke="black" cx="323.644" cy="-162" rx="36.2938" ry="18"/>
<text text-anchor="middle" x="323.644" y="-158.3" font-family="Times,serif" font-size="14.00">MULT</text>
</g>
<!-- 18&#45;&gt;20 -->
<g id="edge19" class="edge"><title>18&#45;&gt;20</title>
<path fill="none" stroke="black" d="M323.644,-215.697C323.644,-207.983 323.644,-198.712 323.644,-190.112"/>
<polygon fill="black" stroke="black" points="327.144,-190.104 323.644,-180.104 320.144,-190.104 327.144,-190.104"/>
</g>
<!-- 21 -->
<g id="node18" class="node"><title>21</title>
<ellipse fill="none" stroke="black" cx="287.644" cy="-90" rx="27" ry="18"/>
<text text-anchor="middle" x="287.644" y="-86.3" font-family="Times,serif" font-size="14.00">a</text>
</g>
<!-- 20&#45;&gt;21 -->
<g id="edge20" class="edge"><title>20&#45;&gt;21</title>
<path fill="none" stroke="black" d="M315.113,-144.411C310.809,-136.042 305.495,-125.71 300.692,-116.37"/>
<polygon fill="black" stroke="black" points="303.8,-114.762 296.114,-107.47 297.575,-117.964 303.8,-114.762"/>
</g>
<!-- 22 -->
<g id="node19" class="node"><title>22</title>
<ellipse fill="none" stroke="black" cx="359.644" cy="-90" rx="27" ry="18"/>
<text text-anchor="middle" x="359.644" y="-86.3" font-family="Times,serif" font-size="14.00">2</text>
</g>
<!-- 20&#45;&gt;22 -->
<g id="edge21" class="edge"><title>20&#45;&gt;22</title>
<path fill="none" stroke="black" d="M332.176,-144.411C336.48,-136.042 341.793,-125.71 346.597,-116.37"/>
<polygon fill="black" stroke="black" points="349.713,-117.964 351.174,-107.47 343.488,-114.762 349.713,-117.964"/>
</g>
<!-- 24 -->
<g id="node20" class="node"><title>24</title>
<ellipse fill="none" stroke="black" cx="432.644" cy="-234" rx="37.0935" ry="18"/>
<text text-anchor="middle" x="432.644" y="-230.3" font-family="Times,serif" font-size="14.00">ATRIB</text>
</g>
<!-- 25 -->
<g id="node21" class="node"><title>25</title>
<ellipse fill="none" stroke="black" cx="404.644" cy="-162" rx="27" ry="18"/>
<text text-anchor="middle" x="404.644" y="-158.3" font-family="Times,serif" font-size="14.00">b</text>
</g>
<!-- 24&#45;&gt;25 -->
<g id="edge24" class="edge"><title>24&#45;&gt;25</title>
<path fill="none" stroke="black" d="M425.866,-216.055C422.633,-207.973 418.693,-198.121 415.089,-189.112"/>
<polygon fill="black" stroke="black" points="418.323,-187.774 411.36,-179.789 411.824,-190.374 418.323,-187.774"/>
</g>
<!-- 26 -->
<g id="node22" class="node"><title>26</title>
<ellipse fill="none" stroke="black" cx="476.644" cy="-162" rx="27" ry="18"/>
<text text-anchor="middle" x="476.644" y="-158.3" font-family="Times,serif" font-size="14.00">20</text>
</g>
<!-- 24&#45;&gt;26 -->
<g id="edge25" class="edge"><title>24&#45;&gt;26</title>
<path fill="none" stroke="black" d="M443.072,-216.411C448.464,-207.832 455.153,-197.191 461.138,-187.67"/>
<polygon fill="black" stroke="black" points="464.236,-189.317 466.595,-178.988 458.31,-185.592 464.236,-189.317"/>
</g>
<!-- 27 -->
<g id="node23" class="node"><title>27</title>
<ellipse fill="none" stroke="black" cx="548.644" cy="-234" rx="37.0935" ry="18"/>
<text text-anchor="middle" x="548.644" y="-230.3" font-family="Times,serif" font-size="14.00">ATRIB</text>
</g>
<!-- 28 -->
<g id="node24" class="node"><title>28</title>
<ellipse fill="none" stroke="black" cx="548.644" cy="-162" rx="27" ry="18"/>
<text text-anchor="middle" x="548.644" y="-158.3" font-family="Times,serif" font-size="14.00">a</text>
</g>
<!-- 27&#45;&gt;28 -->
<g id="edge27" class="edge"><title>27&#45;&gt;28</title>
<path fill="none" stroke="black" d="M548.644,-215.697C548.644,-207.983 548.644,-198.712 548.644,-190.112"/>
<polygon fill="black" stroke="black" points="552.144,-190.104 548.644,-180.104 545.144,-190.104 552.144,-190.104"/>
</g>
<!-- 29 -->
<g id="node25" class="node"><title>29</title>
<ellipse fill="none" stroke="black" cx="620.644" cy="-162" rx="27" ry="18"/>
<text text-anchor="middle" x="620.644" y="-158.3" font-family="Times,serif" font-size="14.00">1</text>
</g>
<!-- 27&#45;&gt;29 -->
<g id="edge28" class="edge"><title>27&#45;&gt;29</title>
<path fill="none" stroke="black" d="M564.623,-217.465C574.587,-207.778 587.551,-195.174 598.498,-184.531"/>
<polygon fill="black" stroke="black" points="600.963,-187.016 605.693,-177.536 596.083,-181.997 600.963,-187.016"/>
</g>
<!-- 1 -->
<g id="node26" class="node"><title>1</title>
<ellipse fill="none" stroke="black" cx="135.644" cy="-522" rx="27" ry="18"/>
<text text-anchor="middle" x="135.644" y="-518.3" font-family="Times,serif" font-size="14.00">1</text>
</g>
<!-- 1&#45;&gt;2 -->
<g id="edge1" class="edge"><title>1&#45;&gt;2</title>
<path fill="none" stroke="black" d="M125.433,-505.116C119.953,-496.592 113.071,-485.886 106.877,-476.251"/>
<polygon fill="black" stroke="black" points="109.794,-474.316 101.442,-467.797 103.906,-478.102 109.794,-474.316"/>
</g>
<!-- 4 -->
<g id="node27" class="node"><title>4</title>
<ellipse fill="none" stroke="black" cx="181.644" cy="-450" rx="27" ry="18"/>
<text text-anchor="middle" x="181.644" y="-446.3" font-family="Times,serif" font-size="14.00">4</text>
</g>
<!-- 1&#45;&gt;4 -->
<g id="edge3" class="edge"><title>1&#45;&gt;4</title>
<path fill="none" stroke="black" d="M146.082,-505.116C151.846,-496.345 159.128,-485.264 165.599,-475.416"/>
<polygon fill="black" stroke="black" points="168.681,-477.1 171.247,-466.821 162.831,-473.256 168.681,-477.1"/>
</g>
<!-- 4&#45;&gt;5 -->
<g id="edge4" class="edge"><title>4&#45;&gt;5</title>
<path fill="none" stroke="black" d="M180.408,-431.697C179.857,-423.983 179.195,-414.712 178.581,-406.112"/>
<polygon fill="black" stroke="black" points="182.07,-405.83 177.866,-396.104 175.087,-406.328 182.07,-405.83"/>
</g>
<!-- 15 -->
<g id="node28" class="node"><title>15</title>
<ellipse fill="none" stroke="black" cx="291.644" cy="-378" rx="27" ry="18"/>
<text text-anchor="middle" x="291.644" y="-374.3" font-family="Times,serif" font-size="14.00">15</text>
</g>
<!-- 4&#45;&gt;15 -->
<g id="edge14" class="edge"><title>4&#45;&gt;15</title>
<path fill="none" stroke="black" d="M200.805,-436.807C218.313,-425.665 244.404,-409.062 264.137,-396.504"/>
<polygon fill="black" stroke="black" points="266.146,-399.375 272.703,-391.053 262.387,-393.469 266.146,-399.375"/>
</g>
<!-- 15&#45;&gt;16 -->
<g id="edge15" class="edge"><title>15&#45;&gt;16</title>
<path fill="none" stroke="black" d="M291.644,-359.697C291.644,-351.983 291.644,-342.712 291.644,-334.112"/>
<polygon fill="black" stroke="black" points="295.144,-334.104 291.644,-324.104 288.144,-334.104 295.144,-334.104"/>
</g>
<!-- 23 -->
<g id="node29" class="node"><title>23</title>
<ellipse fill="none" stroke="black" cx="432.644" cy="-306" rx="27" ry="18"/>
<text text-anchor="middle" x="432.644" y="-302.3" font-family="Times,serif" font-size="14.00">23</text>
</g>
<!-- 15&#45;&gt;23 -->
<g id="edge22" class="edge"><title>15&#45;&gt;23</title>
<path fill="none" stroke="black" d="M312.753,-366.52C336.531,-354.716 375.373,-335.433 402.377,-322.026"/>
<polygon fill="black" stroke="black" points="403.99,-325.133 411.391,-317.551 400.877,-318.863 403.99,-325.133"/>
</g>
<!-- 23&#45;&gt;24 -->
<g id="edge23" class="edge"><title>23&#45;&gt;24</title>
<path fill="none" stroke="black" d="M432.644,-287.697C432.644,-279.983 432.644,-270.712 432.644,-262.112"/>
<polygon fill="black" stroke="black" points="436.144,-262.104 432.644,-252.104 429.144,-262.104 436.144,-262.104"/>
</g>
<!-- 23&#45;&gt;27 -->
<g id="edge26" class="edge"><title>23&#45;&gt;27</title>
<path fill="none" stroke="black" d="M452.06,-293.284C469.926,-282.502 496.732,-266.327 517.574,-253.749"/>
<polygon fill="black" stroke="black" points="519.633,-256.595 526.387,-248.431 516.016,-250.601 519.633,-256.595"/>
</g>
</g>
</svg>
