<?xml version="1.0" encoding="UTF-8" standalone="no"?>
<!DOCTYPE svg PUBLIC "-//W3C//DTD SVG 1.1//EN"
 "http://www.w3.org/Graphics/SVG/1.1/DTD/svg11.dtd">
<!-- Generated by graphviz version 2.38.0 (20140413.2041)
 -->
<!-- Title: G Pages: 1 -->
<svg width="400pt" height="620pt"
 viewBox="0.00 0.00 400.40 620.00" xmlns="http://www.w3.org/2000/svg" xmlns:xlink="http://www.w3.org/1999/xlink">
<g id="graph0" class="graph" transform="scale(1 1) rotate(0) translate(4 616)">
<title>G</title>
<polygon fill="white" stroke="none" points="-4,4 -4,-616 396.397,-616 396.397,4 -4,4"/>
<!-- 1 -->
<g id="node1" class="node"><title>1</title>
<ellipse fill="none" stroke="black" cx="133" cy="-594" rx="31.3957" ry="18"/>
<text text-anchor="middle" x="133" y="-590.3" font-family="Times,serif" font-size="14.00">RAIZ</text>
</g>
<!-- 2 -->
<g id="node21" class="node"><title>2</title>
<ellipse fill="none" stroke="black" cx="133" cy="-522" rx="27" ry="18"/>
<text text-anchor="middle" x="133" y="-518.3" font-family="Times,serif" font-size="14.00">2</text>
</g>
<!-- 1&#45;&gt;2 -->
<g id="edge1" class="edge"><title>1&#45;&gt;2</title>
<path fill="none" stroke="black" d="M133,-575.697C133,-567.983 133,-558.712 133,-550.112"/>
<polygon fill="black" stroke="black" points="136.5,-550.104 133,-540.104 129.5,-550.104 136.5,-550.104"/>
</g>
<!-- 3 -->
<g id="node2" class="node"><title>3</title>
<ellipse fill="none" stroke="black" cx="91" cy="-450" rx="36.2938" ry="18"/>
<text text-anchor="middle" x="91" y="-446.3" font-family="Times,serif" font-size="14.00">PRINT</text>
</g>
<!-- 4 -->
<g id="node3" class="node"><title>4</title>
<ellipse fill="none" stroke="black" cx="87" cy="-378" rx="29.795" ry="18"/>
<text text-anchor="middle" x="87" y="-374.3" font-family="Times,serif" font-size="14.00">FIM!</text>
</g>
<!-- 3&#45;&gt;4 -->
<g id="edge3" class="edge"><title>3&#45;&gt;4</title>
<path fill="none" stroke="black" d="M90.0112,-431.697C89.5704,-423.983 89.0407,-414.712 88.5493,-406.112"/>
<polygon fill="black" stroke="black" points="92.0423,-405.888 87.9774,-396.104 85.0537,-406.288 92.0423,-405.888"/>
</g>
<!-- 6 -->
<g id="node4" class="node"><title>6</title>
<ellipse fill="none" stroke="black" cx="175" cy="-378" rx="39.7935" ry="18"/>
<text text-anchor="middle" x="175" y="-374.3" font-family="Times,serif" font-size="14.00">WHILE</text>
</g>
<!-- 7 -->
<g id="node5" class="node"><title>7</title>
<ellipse fill="none" stroke="black" cx="99" cy="-306" rx="27" ry="18"/>
<text text-anchor="middle" x="99" y="-302.3" font-family="Times,serif" font-size="14.00">&lt;=</text>
</g>
<!-- 6&#45;&gt;7 -->
<g id="edge6" class="edge"><title>6&#45;&gt;7</title>
<path fill="none" stroke="black" d="M158.133,-361.465C147.474,-351.647 133.561,-338.833 121.909,-328.101"/>
<polygon fill="black" stroke="black" points="123.998,-325.266 114.271,-321.066 119.255,-330.415 123.998,-325.266"/>
</g>
<!-- 10 -->
<g id="node23" class="node"><title>10</title>
<ellipse fill="none" stroke="black" cx="181" cy="-306" rx="27" ry="18"/>
<text text-anchor="middle" x="181" y="-302.3" font-family="Times,serif" font-size="14.00">10</text>
</g>
<!-- 6&#45;&gt;10 -->
<g id="edge9" class="edge"><title>6&#45;&gt;10</title>
<path fill="none" stroke="black" d="M176.483,-359.697C177.144,-351.983 177.939,-342.712 178.676,-334.112"/>
<polygon fill="black" stroke="black" points="182.167,-334.367 179.534,-324.104 175.193,-333.769 182.167,-334.367"/>
</g>
<!-- 8 -->
<g id="node6" class="node"><title>8</title>
<ellipse fill="none" stroke="black" cx="27" cy="-234" rx="27" ry="18"/>
<text text-anchor="middle" x="27" y="-230.3" font-family="Times,serif" font-size="14.00">i</text>
</g>
<!-- 7&#45;&gt;8 -->
<g id="edge7" class="edge"><title>7&#45;&gt;8</title>
<path fill="none" stroke="black" d="M84.4297,-290.834C74.2501,-280.938 60.4761,-267.546 48.9694,-256.359"/>
<polygon fill="black" stroke="black" points="51.4055,-253.846 41.7957,-249.385 46.5259,-258.865 51.4055,-253.846"/>
</g>
<!-- 9 -->
<g id="node7" class="node"><title>9</title>
<ellipse fill="none" stroke="black" cx="99" cy="-234" rx="27" ry="18"/>
<text text-anchor="middle" x="99" y="-230.3" font-family="Times,serif" font-size="14.00">100</text>
</g>
<!-- 7&#45;&gt;9 -->
<g id="edge8" class="edge"><title>7&#45;&gt;9</title>
<path fill="none" stroke="black" d="M99,-287.697C99,-279.983 99,-270.712 99,-262.112"/>
<polygon fill="black" stroke="black" points="102.5,-262.104 99,-252.104 95.5001,-262.104 102.5,-262.104"/>
</g>
<!-- 11 -->
<g id="node8" class="node"><title>11</title>
<ellipse fill="none" stroke="black" cx="181" cy="-234" rx="37.0935" ry="18"/>
<text text-anchor="middle" x="181" y="-230.3" font-family="Times,serif" font-size="14.00">ATRIB</text>
</g>
<!-- 12 -->
<g id="node9" class="node"><title>12</title>
<ellipse fill="none" stroke="black" cx="106" cy="-162" rx="27" ry="18"/>
<text text-anchor="middle" x="106" y="-158.3" font-family="Times,serif" font-size="14.00">i</text>
</g>
<!-- 11&#45;&gt;12 -->
<g id="edge11" class="edge"><title>11&#45;&gt;12</title>
<path fill="none" stroke="black" d="M164.726,-217.811C154.225,-208.01 140.412,-195.118 128.821,-184.3"/>
<polygon fill="black" stroke="black" points="130.918,-181.47 121.22,-177.205 126.142,-186.587 130.918,-181.47"/>
</g>
<!-- 13 -->
<g id="node10" class="node"><title>13</title>
<ellipse fill="none" stroke="black" cx="181" cy="-162" rx="29.795" ry="18"/>
<text text-anchor="middle" x="181" y="-158.3" font-family="Times,serif" font-size="14.00">ADD</text>
</g>
<!-- 11&#45;&gt;13 -->
<g id="edge12" class="edge"><title>11&#45;&gt;13</title>
<path fill="none" stroke="black" d="M181,-215.697C181,-207.983 181,-198.712 181,-190.112"/>
<polygon fill="black" stroke="black" points="184.5,-190.104 181,-180.104 177.5,-190.104 184.5,-190.104"/>
</g>
<!-- 14 -->
<g id="node11" class="node"><title>14</title>
<ellipse fill="none" stroke="black" cx="115" cy="-90" rx="27" ry="18"/>
<text text-anchor="middle" x="115" y="-86.3" font-family="Times,serif" font-size="14.00">i</text>
</g>
<!-- 13&#45;&gt;14 -->
<g id="edge13" class="edge"><title>13&#45;&gt;14</title>
<path fill="none" stroke="black" d="M166.679,-145.811C157.649,-136.234 145.836,-123.705 135.784,-113.044"/>
<polygon fill="black" stroke="black" points="138.248,-110.554 128.841,-105.68 133.154,-115.357 138.248,-110.554"/>
</g>
<!-- 15 -->
<g id="node12" class="node"><title>15</title>
<ellipse fill="none" stroke="black" cx="187" cy="-90" rx="27" ry="18"/>
<text text-anchor="middle" x="187" y="-86.3" font-family="Times,serif" font-size="14.00">1</text>
</g>
<!-- 13&#45;&gt;15 -->
<g id="edge14" class="edge"><title>13&#45;&gt;15</title>
<path fill="none" stroke="black" d="M182.483,-143.697C183.144,-135.983 183.939,-126.712 184.676,-118.112"/>
<polygon fill="black" stroke="black" points="188.167,-118.367 185.534,-108.104 181.193,-117.769 188.167,-118.367"/>
</g>
<!-- 17 -->
<g id="node13" class="node"><title>17</title>
<ellipse fill="none" stroke="black" cx="265" cy="-162" rx="36.2938" ry="18"/>
<text text-anchor="middle" x="265" y="-158.3" font-family="Times,serif" font-size="14.00">PRINT</text>
</g>
<!-- 18 -->
<g id="node14" class="node"><title>18</title>
<ellipse fill="none" stroke="black" cx="265" cy="-90" rx="27" ry="18"/>
</g>
<!-- 17&#45;&gt;18 -->
<g id="edge17" class="edge"><title>17&#45;&gt;18</title>
<path fill="none" stroke="black" d="M265,-143.697C265,-135.983 265,-126.712 265,-118.112"/>
<polygon fill="black" stroke="black" points="268.5,-118.104 265,-108.104 261.5,-118.104 268.5,-118.104"/>
</g>
<!-- 19 -->
<g id="node15" class="node"><title>19</title>
<ellipse fill="none" stroke="black" cx="356" cy="-162" rx="36.2938" ry="18"/>
<text text-anchor="middle" x="356" y="-158.3" font-family="Times,serif" font-size="14.00">PRINT</text>
</g>
<!-- 20 -->
<g id="node16" class="node"><title>20</title>
<ellipse fill="none" stroke="black" cx="356" cy="-90" rx="33.2948" ry="18"/>
<text text-anchor="middle" x="356" y="-86.3" font-family="Times,serif" font-size="14.00">SQRT</text>
</g>
<!-- 19&#45;&gt;20 -->
<g id="edge19" class="edge"><title>19&#45;&gt;20</title>
<path fill="none" stroke="black" d="M356,-143.697C356,-135.983 356,-126.712 356,-118.112"/>
<polygon fill="black" stroke="black" points="359.5,-118.104 356,-108.104 352.5,-118.104 359.5,-118.104"/>
</g>
<!-- 21 -->
<g id="node17" class="node"><title>21</title>
<ellipse fill="none" stroke="black" cx="356" cy="-18" rx="27" ry="18"/>
<text text-anchor="middle" x="356" y="-14.3" font-family="Times,serif" font-size="14.00">i</text>
</g>
<!-- 20&#45;&gt;21 -->
<g id="edge20" class="edge"><title>20&#45;&gt;21</title>
<path fill="none" stroke="black" d="M356,-71.6966C356,-63.9827 356,-54.7125 356,-46.1124"/>
<polygon fill="black" stroke="black" points="359.5,-46.1043 356,-36.1043 352.5,-46.1044 359.5,-46.1043"/>
</g>
<!-- 22 -->
<g id="node18" class="node"><title>22</title>
<ellipse fill="none" stroke="black" cx="270" cy="-378" rx="37.0935" ry="18"/>
<text text-anchor="middle" x="270" y="-374.3" font-family="Times,serif" font-size="14.00">ATRIB</text>
</g>
<!-- 23 -->
<g id="node19" class="node"><title>23</title>
<ellipse fill="none" stroke="black" cx="264" cy="-306" rx="27" ry="18"/>
<text text-anchor="middle" x="264" y="-302.3" font-family="Times,serif" font-size="14.00">i</text>
</g>
<!-- 22&#45;&gt;23 -->
<g id="edge22" class="edge"><title>22&#45;&gt;23</title>
<path fill="none" stroke="black" d="M268.517,-359.697C267.856,-351.983 267.061,-342.712 266.324,-334.112"/>
<polygon fill="black" stroke="black" points="269.807,-333.769 265.466,-324.104 262.833,-334.367 269.807,-333.769"/>
</g>
<!-- 24 -->
<g id="node20" class="node"><title>24</title>
<ellipse fill="none" stroke="black" cx="336" cy="-306" rx="27" ry="18"/>
<text text-anchor="middle" x="336" y="-302.3" font-family="Times,serif" font-size="14.00">0</text>
</g>
<!-- 22&#45;&gt;24 -->
<g id="edge23" class="edge"><title>22&#45;&gt;24</title>
<path fill="none" stroke="black" d="M284.648,-361.465C293.693,-351.871 305.436,-339.416 315.409,-328.839"/>
<polygon fill="black" stroke="black" points="317.981,-331.213 322.295,-321.536 312.888,-326.411 317.981,-331.213"/>
</g>
<!-- 2&#45;&gt;3 -->
<g id="edge2" class="edge"><title>2&#45;&gt;3</title>
<path fill="none" stroke="black" d="M123.47,-505.116C118.407,-496.679 112.063,-486.104 106.328,-476.547"/>
<polygon fill="black" stroke="black" points="109.225,-474.572 101.078,-467.797 103.222,-478.173 109.225,-474.572"/>
</g>
<!-- 5 -->
<g id="node22" class="node"><title>5</title>
<ellipse fill="none" stroke="black" cx="175" cy="-450" rx="27" ry="18"/>
<text text-anchor="middle" x="175" y="-446.3" font-family="Times,serif" font-size="14.00">5</text>
</g>
<!-- 2&#45;&gt;5 -->
<g id="edge4" class="edge"><title>2&#45;&gt;5</title>
<path fill="none" stroke="black" d="M142.53,-505.116C147.666,-496.557 154.122,-485.797 159.921,-476.132"/>
<polygon fill="black" stroke="black" points="163.072,-477.683 165.216,-467.307 157.07,-474.081 163.072,-477.683"/>
</g>
<!-- 5&#45;&gt;6 -->
<g id="edge5" class="edge"><title>5&#45;&gt;6</title>
<path fill="none" stroke="black" d="M175,-431.697C175,-423.983 175,-414.712 175,-406.112"/>
<polygon fill="black" stroke="black" points="178.5,-406.104 175,-396.104 171.5,-406.104 178.5,-406.104"/>
</g>
<!-- 5&#45;&gt;22 -->
<g id="edge21" class="edge"><title>5&#45;&gt;22</title>
<path fill="none" stroke="black" d="M192.424,-436.161C206.254,-425.97 225.863,-411.522 241.905,-399.701"/>
<polygon fill="black" stroke="black" points="244.417,-402.198 250.392,-393.448 240.265,-396.563 244.417,-402.198"/>
</g>
<!-- 10&#45;&gt;11 -->
<g id="edge10" class="edge"><title>10&#45;&gt;11</title>
<path fill="none" stroke="black" d="M181,-287.697C181,-279.983 181,-270.712 181,-262.112"/>
<polygon fill="black" stroke="black" points="184.5,-262.104 181,-252.104 177.5,-262.104 184.5,-262.104"/>
</g>
<!-- 16 -->
<g id="node24" class="node"><title>16</title>
<ellipse fill="none" stroke="black" cx="265" cy="-234" rx="27" ry="18"/>
<text text-anchor="middle" x="265" y="-230.3" font-family="Times,serif" font-size="14.00">16</text>
</g>
<!-- 10&#45;&gt;16 -->
<g id="edge15" class="edge"><title>10&#45;&gt;16</title>
<path fill="none" stroke="black" d="M197.196,-291.503C209.63,-281.142 226.991,-266.674 241.032,-254.973"/>
<polygon fill="black" stroke="black" points="243.412,-257.546 248.854,-248.455 238.931,-252.168 243.412,-257.546"/>
</g>
<!-- 16&#45;&gt;17 -->
<g id="edge16" class="edge"><title>16&#45;&gt;17</title>
<path fill="none" stroke="black" d="M265,-215.697C265,-207.983 265,-198.712 265,-190.112"/>
<polygon fill="black" stroke="black" points="268.5,-190.104 265,-180.104 261.5,-190.104 268.5,-190.104"/>
</g>
<!-- 16&#45;&gt;19 -->
<g id="edge18" class="edge"><title>16&#45;&gt;19</title>
<path fill="none" stroke="black" d="M282.116,-219.834C295.322,-209.675 313.84,-195.431 329.032,-183.744"/>
<polygon fill="black" stroke="black" points="331.283,-186.429 337.076,-177.557 327.015,-180.88 331.283,-186.429"/>
</g>
</g>
</svg>
