<?xml version="1.0" encoding="UTF-8" standalone="no"?>
<!DOCTYPE svg PUBLIC "-//W3C//DTD SVG 1.1//EN"
 "http://www.w3.org/Graphics/SVG/1.1/DTD/svg11.dtd">
<!-- Generated by graphviz version 2.38.0 (20140413.2041)
 -->
<!-- Title: G Pages: 1 -->
<svg width="462pt" height="476pt"
 viewBox="0.00 0.00 462.00 476.00" xmlns="http://www.w3.org/2000/svg" xmlns:xlink="http://www.w3.org/1999/xlink">
<g id="graph0" class="graph" transform="scale(1 1) rotate(0) translate(4 472)">
<title>G</title>
<polygon fill="white" stroke="none" points="-4,4 -4,-472 458,-472 458,4 -4,4"/>
<!-- 2 -->
<g id="node1" class="node"><title>2</title>
<ellipse fill="none" stroke="black" cx="52" cy="-378" rx="46.2923" ry="18"/>
<text text-anchor="middle" x="52" y="-374.3" font-family="Times,serif" font-size="14.00">RETURN</text>
</g>
<!-- 3 -->
<g id="node2" class="node"><title>3</title>
<ellipse fill="none" stroke="black" cx="52" cy="-306" rx="27" ry="18"/>
<text text-anchor="middle" x="52" y="-302.3" font-family="Times,serif" font-size="14.00">0</text>
</g>
<!-- 2&#45;&gt;3 -->
<g id="edge2" class="edge"><title>2&#45;&gt;3</title>
<path fill="none" stroke="black" d="M52,-359.697C52,-351.983 52,-342.712 52,-334.112"/>
<polygon fill="black" stroke="black" points="55.5001,-334.104 52,-324.104 48.5001,-334.104 55.5001,-334.104"/>
</g>
<!-- 5 -->
<g id="node3" class="node"><title>5</title>
<ellipse fill="none" stroke="black" cx="138" cy="-306" rx="37.0935" ry="18"/>
<text text-anchor="middle" x="138" y="-302.3" font-family="Times,serif" font-size="14.00">ATRIB</text>
</g>
<!-- 6 -->
<g id="node4" class="node"><title>6</title>
<ellipse fill="none" stroke="black" cx="27" cy="-234" rx="27" ry="18"/>
<text text-anchor="middle" x="27" y="-230.3" font-family="Times,serif" font-size="14.00">c</text>
</g>
<!-- 5&#45;&gt;6 -->
<g id="edge5" class="edge"><title>5&#45;&gt;6</title>
<path fill="none" stroke="black" d="M116.335,-291.337C98.6876,-280.208 73.6607,-264.426 54.5836,-252.395"/>
<polygon fill="black" stroke="black" points="56.346,-249.369 46.0205,-246.995 52.612,-255.29 56.346,-249.369"/>
</g>
<!-- 7 -->
<g id="node5" class="node"><title>7</title>
<ellipse fill="none" stroke="black" cx="138" cy="-234" rx="65.7887" ry="18"/>
<text text-anchor="middle" x="138" y="-230.3" font-family="Times,serif" font-size="14.00">INTTOFLOAT</text>
</g>
<!-- 5&#45;&gt;7 -->
<g id="edge6" class="edge"><title>5&#45;&gt;7</title>
<path fill="none" stroke="black" d="M138,-287.697C138,-279.983 138,-270.712 138,-262.112"/>
<polygon fill="black" stroke="black" points="141.5,-262.104 138,-252.104 134.5,-262.104 141.5,-262.104"/>
</g>
<!-- 8 -->
<g id="node6" class="node"><title>8</title>
<ellipse fill="none" stroke="black" cx="136" cy="-162" rx="29.795" ry="18"/>
<text text-anchor="middle" x="136" y="-158.3" font-family="Times,serif" font-size="14.00">ADD</text>
</g>
<!-- 7&#45;&gt;8 -->
<g id="edge7" class="edge"><title>7&#45;&gt;8</title>
<path fill="none" stroke="black" d="M137.506,-215.697C137.285,-207.983 137.02,-198.712 136.775,-190.112"/>
<polygon fill="black" stroke="black" points="140.273,-190 136.489,-180.104 133.276,-190.2 140.273,-190"/>
</g>
<!-- 9 -->
<g id="node7" class="node"><title>9</title>
<ellipse fill="none" stroke="black" cx="96" cy="-90" rx="27" ry="18"/>
<text text-anchor="middle" x="96" y="-86.3" font-family="Times,serif" font-size="14.00">b</text>
</g>
<!-- 8&#45;&gt;9 -->
<g id="edge8" class="edge"><title>8&#45;&gt;9</title>
<path fill="none" stroke="black" d="M126.723,-144.765C121.826,-136.195 115.711,-125.494 110.229,-115.9"/>
<polygon fill="black" stroke="black" points="113.227,-114.093 105.227,-107.147 107.15,-117.566 113.227,-114.093"/>
</g>
<!-- 10 -->
<g id="node8" class="node"><title>10</title>
<ellipse fill="none" stroke="black" cx="177" cy="-90" rx="36.2938" ry="18"/>
<text text-anchor="middle" x="177" y="-86.3" font-family="Times,serif" font-size="14.00">MULT</text>
</g>
<!-- 8&#45;&gt;10 -->
<g id="edge9" class="edge"><title>8&#45;&gt;10</title>
<path fill="none" stroke="black" d="M145.509,-144.765C150.457,-136.317 156.618,-125.799 162.174,-116.312"/>
<polygon fill="black" stroke="black" points="165.224,-118.031 167.258,-107.633 159.183,-114.493 165.224,-118.031"/>
</g>
<!-- 11 -->
<g id="node9" class="node"><title>11</title>
<ellipse fill="none" stroke="black" cx="141" cy="-18" rx="27" ry="18"/>
<text text-anchor="middle" x="141" y="-14.3" font-family="Times,serif" font-size="14.00">a</text>
</g>
<!-- 10&#45;&gt;11 -->
<g id="edge10" class="edge"><title>10&#45;&gt;11</title>
<path fill="none" stroke="black" d="M168.469,-72.411C164.164,-64.0421 158.851,-53.7098 154.047,-44.3698"/>
<polygon fill="black" stroke="black" points="157.156,-42.7621 149.47,-35.4699 150.931,-45.9636 157.156,-42.7621"/>
</g>
<!-- 12 -->
<g id="node10" class="node"><title>12</title>
<ellipse fill="none" stroke="black" cx="213" cy="-18" rx="27" ry="18"/>
<text text-anchor="middle" x="213" y="-14.3" font-family="Times,serif" font-size="14.00">2</text>
</g>
<!-- 10&#45;&gt;12 -->
<g id="edge11" class="edge"><title>10&#45;&gt;12</title>
<path fill="none" stroke="black" d="M185.531,-72.411C189.836,-64.0421 195.149,-53.7098 199.953,-44.3698"/>
<polygon fill="black" stroke="black" points="203.069,-45.9636 204.53,-35.4699 196.844,-42.7621 203.069,-45.9636"/>
</g>
<!-- 14 -->
<g id="node11" class="node"><title>14</title>
<ellipse fill="none" stroke="black" cx="260" cy="-234" rx="37.0935" ry="18"/>
<text text-anchor="middle" x="260" y="-230.3" font-family="Times,serif" font-size="14.00">ATRIB</text>
</g>
<!-- 15 -->
<g id="node12" class="node"><title>15</title>
<ellipse fill="none" stroke="black" cx="211" cy="-162" rx="27" ry="18"/>
<text text-anchor="middle" x="211" y="-158.3" font-family="Times,serif" font-size="14.00">b</text>
</g>
<!-- 14&#45;&gt;15 -->
<g id="edge14" class="edge"><title>14&#45;&gt;15</title>
<path fill="none" stroke="black" d="M248.635,-216.765C242.425,-207.893 234.617,-196.738 227.724,-186.892"/>
<polygon fill="black" stroke="black" points="230.568,-184.851 221.966,-178.666 224.833,-188.865 230.568,-184.851"/>
</g>
<!-- 16 -->
<g id="node13" class="node"><title>16</title>
<ellipse fill="none" stroke="black" cx="283" cy="-162" rx="27" ry="18"/>
<text text-anchor="middle" x="283" y="-158.3" font-family="Times,serif" font-size="14.00">20</text>
</g>
<!-- 14&#45;&gt;16 -->
<g id="edge15" class="edge"><title>14&#45;&gt;16</title>
<path fill="none" stroke="black" d="M265.568,-216.055C268.195,-208.059 271.391,-198.331 274.326,-189.4"/>
<polygon fill="black" stroke="black" points="277.687,-190.382 277.484,-179.789 271.037,-188.197 277.687,-190.382"/>
</g>
<!-- 17 -->
<g id="node14" class="node"><title>17</title>
<ellipse fill="none" stroke="black" cx="355" cy="-234" rx="37.0935" ry="18"/>
<text text-anchor="middle" x="355" y="-230.3" font-family="Times,serif" font-size="14.00">ATRIB</text>
</g>
<!-- 18 -->
<g id="node15" class="node"><title>18</title>
<ellipse fill="none" stroke="black" cx="355" cy="-162" rx="27" ry="18"/>
<text text-anchor="middle" x="355" y="-158.3" font-family="Times,serif" font-size="14.00">a</text>
</g>
<!-- 17&#45;&gt;18 -->
<g id="edge17" class="edge"><title>17&#45;&gt;18</title>
<path fill="none" stroke="black" d="M355,-215.697C355,-207.983 355,-198.712 355,-190.112"/>
<polygon fill="black" stroke="black" points="358.5,-190.104 355,-180.104 351.5,-190.104 358.5,-190.104"/>
</g>
<!-- 19 -->
<g id="node16" class="node"><title>19</title>
<ellipse fill="none" stroke="black" cx="427" cy="-162" rx="27" ry="18"/>
<text text-anchor="middle" x="427" y="-158.3" font-family="Times,serif" font-size="14.00">1</text>
</g>
<!-- 17&#45;&gt;19 -->
<g id="edge18" class="edge"><title>17&#45;&gt;19</title>
<path fill="none" stroke="black" d="M370.979,-217.465C380.943,-207.778 393.907,-195.174 404.854,-184.531"/>
<polygon fill="black" stroke="black" points="407.319,-187.016 412.049,-177.536 402.439,-181.997 407.319,-187.016"/>
</g>
<!-- 1 -->
<g id="node17" class="node"><title>1</title>
<ellipse fill="none" stroke="black" cx="97" cy="-450" rx="27" ry="18"/>
<text text-anchor="middle" x="97" y="-446.3" font-family="Times,serif" font-size="14.00">1</text>
</g>
<!-- 1&#45;&gt;2 -->
<g id="edge1" class="edge"><title>1&#45;&gt;2</title>
<path fill="none" stroke="black" d="M86.7888,-433.116C81.3092,-424.592 74.4268,-413.886 68.233,-404.251"/>
<polygon fill="black" stroke="black" points="71.15,-402.316 62.7983,-395.797 65.2618,-406.102 71.15,-402.316"/>
</g>
<!-- 4 -->
<g id="node18" class="node"><title>4</title>
<ellipse fill="none" stroke="black" cx="143" cy="-378" rx="27" ry="18"/>
<text text-anchor="middle" x="143" y="-374.3" font-family="Times,serif" font-size="14.00">4</text>
</g>
<!-- 1&#45;&gt;4 -->
<g id="edge3" class="edge"><title>1&#45;&gt;4</title>
<path fill="none" stroke="black" d="M107.438,-433.116C113.202,-424.345 120.484,-413.264 126.955,-403.416"/>
<polygon fill="black" stroke="black" points="130.036,-405.1 132.603,-394.821 124.186,-401.256 130.036,-405.1"/>
</g>
<!-- 4&#45;&gt;5 -->
<g id="edge4" class="edge"><title>4&#45;&gt;5</title>
<path fill="none" stroke="black" d="M141.764,-359.697C141.213,-351.983 140.551,-342.712 139.937,-334.112"/>
<polygon fill="black" stroke="black" points="143.425,-333.83 139.222,-324.104 136.443,-334.328 143.425,-333.83"/>
</g>
<!-- 13 -->
<g id="node19" class="node"><title>13</title>
<ellipse fill="none" stroke="black" cx="260" cy="-306" rx="27" ry="18"/>
<text text-anchor="middle" x="260" y="-302.3" font-family="Times,serif" font-size="14.00">13</text>
</g>
<!-- 4&#45;&gt;13 -->
<g id="edge12" class="edge"><title>4&#45;&gt;13</title>
<path fill="none" stroke="black" d="M162.583,-365.284C181.481,-353.977 210.295,-336.738 231.689,-323.938"/>
<polygon fill="black" stroke="black" points="233.569,-326.892 240.353,-318.755 229.975,-320.885 233.569,-326.892"/>
</g>
<!-- 13&#45;&gt;14 -->
<g id="edge13" class="edge"><title>13&#45;&gt;14</title>
<path fill="none" stroke="black" d="M260,-287.697C260,-279.983 260,-270.712 260,-262.112"/>
<polygon fill="black" stroke="black" points="263.5,-262.104 260,-252.104 256.5,-262.104 263.5,-262.104"/>
</g>
<!-- 13&#45;&gt;17 -->
<g id="edge16" class="edge"><title>13&#45;&gt;17</title>
<path fill="none" stroke="black" d="M277.424,-292.161C291.254,-281.97 310.863,-267.522 326.905,-255.701"/>
<polygon fill="black" stroke="black" points="329.417,-258.198 335.392,-249.448 325.265,-252.563 329.417,-258.198"/>
</g>
</g>
</svg>
